{
copyright = "Copyright \U00A9 2019 IBM Corp. with Reserved Font Name \"Plex\"\012This Font Software is licensed under the SIL Open Font License, Version 1.1.\012This license is copied below, and is also available with a FAQ at: http://scripts.sil.org/OFL.";
customParameters = (
{
name = licenseURL;
value = "http://scripts.sil.org/OFL";
},
{
name = vendorID;
value = "";
},
{
name = glyphOrder;
value = (
    ".notdef",
    uni0000,
    uni000D,
    space,
    a,
    b,
    c,
    d,
    e,
    f,
    g,
    "g.alt02",
    h,
    i,
    j,
    k,
    l,
    m,
    n,
    o,
    p,
    q,
    r,
    s,
    t,
    u,
    v,
    w,
    x,
    y,
    z,
    A,
    B,
    C,
    D,
    E,
    F,
    G,
    H,
    I,
    J,
    K,
    L,
    M,
    N,
    O,
    P,
    Q,
    R,
    S,
    T,
    U,
    V,
    W,
    X,
    Y,
    Z,
    zero,
    one,
    two,
    three,
    four,
    five,
    six,
    seven,
    eight,
    nine,
    ampersand,
    at,
    hyphen,
    uni00AD,
    endash,
    emdash,
    underscore,
    period,
    ellipsis,
    colon,
    comma,
    semicolon,
    quotesingle,
    quotedbl,
    quoteleft,
    quoteright,
    quotedblleft,
    quotedblright,
    quotesinglbase,
    quotedblbase,
    guilsinglleft,
    guilsinglright,
    guillemotleft,
    guillemotright,
    exclamdown,
    exclam,
    questiondown,
    question,
    parenleft,
    parenright,
    bracketleft,
    bracketright,
    braceleft,
    braceright,
    slash,
    backslash,
    fraction,
    percent,
    perthousand,
    bar,
    brokenbar,
    section,
    paragraph,
    copyright,
    registered,
    trademark,
    ordfeminine,
    ordmasculine,
    degree,
    asterisk,
    dagger,
    daggerdbl,
    numbersign,
    asciicircum,
    asciitilde,
    plus,
    minus,
    plusminus,
    multiply,
    divide,
    equal,
    approxequal,
    notequal,
    less,
    greater,
    lessequal,
    greaterequal,
    periodcentered,
    bullet,
    lozenge,
    logicalnot,

glyphs = (
{
glyphname = .notdef;
layers = (
{
layerId = "F5C437A1-5BE8-4656-AC88-288CA2D4AAEB";
name = "Light Italic";
paths = (
{
closed = 1;
nodes = (
"32 0 LINE",
"32 780 LINE",
"440 780 LINE",
"440 0 LINE"
);
},
{
closed = 1;
nodes = (
"58 26 LINE",
"414 26 LINE",
"414 754 LINE",
"58 754 LINE"
);
}
);
width = 472;
}
);
},
{
glyphname = a;
layers = (
{
layerId = "F5C437A1-5BE8-4656-AC88-288CA2D4AAEB";
name = "Light Italic";
paths = (
{
closed = 1;
nodes = (
"419 0 LINE SMOOTH",
"396 0 OFFCURVE",
"385 10 OFFCURVE",
"385 29 CURVE SMOOTH",
"385 36 OFFCURVE",
"386 41 OFFCURVE",
"387 48 CURVE",
"400 111 LINE",
"397 111 LINE",
"354 34 OFFCURVE",
"303 -12 OFFCURVE",
"220 -12 CURVE SMOOTH",
"168 -12 OFFCURVE",
"128 8 OFFCURVE",
"101 42 CURVE SMOOTH",
"73 76 OFFCURVE",
"58 122 OFFCURVE",
"58 178 CURVE SMOOTH",
"58 266 OFFCURVE",
"80 351 OFFCURVE",
"122 415 CURVE SMOOTH",
"164 479 OFFCURVE",
"227 520 OFFCURVE",
"308 520 CURVE SMOOTH",
"388 520 OFFCURVE",
"440 481 OFFCURVE",
"459 417 CURVE",
"462 417 LINE",
"480 508 LINE",
"514 508 LINE",
"419 31 LINE",
"501 31 LINE",
"495 0 LINE"
);
},
{
closed = 1;
nodes = (
"268 19 OFFCURVE",
"299 32 OFFCURVE",
"334 61 CURVE SMOOTH",
"373 94 OFFCURVE",
"407 144 OFFCURVE",
"420 211 CURVE SMOOTH",
"447 344 LINE SMOOTH",
"454 377 OFFCURVE",
"448 413 OFFCURVE",
"426 441 CURVE SMOOTH",
"404 469 OFFCURVE",
"365 489 OFFCURVE",
"309 489 CURVE SMOOTH",
"201 489 OFFCURVE",
"132 411 OFFCURVE",
"107 286 CURVE SMOOTH",
"99 242 LINE SMOOTH",
"95 221 OFFCURVE",
"93 202 OFFCURVE",
"93 175 CURVE SMOOTH",
"93 132 OFFCURVE",
"103 93 OFFCURVE",
"125 65 CURVE SMOOTH",
"147 37 OFFCURVE",
"178 19 OFFCURVE",
"225 19 CURVE SMOOTH"
);
}
);
width = 571;
}
);
leftKerningGroup = a;
rightKerningGroup = a;
unicode = 0061;
},
{
glyphname = b;
layers = (
{
layerId = "F5C437A1-5BE8-4656-AC88-288CA2D4AAEB";
name = "Light Italic";
paths = (
{
closed = 1;
nodes = (
"197 740 LINE",
"231 740 LINE",
"163 397 LINE",
"166 397 LINE",
"209 474 OFFCURVE",
"260 520 OFFCURVE",
"343 520 CURVE SMOOTH",
"395 520 OFFCURVE",
"435 501 OFFCURVE",
"463 467 CURVE SMOOTH",
"490 433 OFFCURVE",
"505 386 OFFCURVE",
"505 330 CURVE SMOOTH",
"505 242 OFFCURVE",
"484 157 OFFCURVE",
"442 93 CURVE SMOOTH",
"400 29 OFFCURVE",
"336 -12 OFFCURVE",
"255 -12 CURVE SMOOTH",
"175 -12 OFFCURVE",
"123 27 OFFCURVE",
"104 91 CURVE",
"101 91 LINE",
"83 0 LINE",
"49 0 LINE"
);
},
{
closed = 1;
nodes = (
"362 19 OFFCURVE",
"431 97 OFFCURVE",
"456 222 CURVE SMOOTH",
"464 266 LINE SMOOTH",
"468 287 OFFCURVE",
"470 306 OFFCURVE",
"470 333 CURVE SMOOTH",
"470 376 OFFCURVE",
"461 415 OFFCURVE",
"439 443 CURVE SMOOTH",
"417 471 OFFCURVE",
"383 489 OFFCURVE",
"338 489 CURVE SMOOTH",
"295 489 OFFCURVE",
"264 476 OFFCURVE",
"229 447 CURVE SMOOTH",
"190 414 OFFCURVE",
"156 364 OFFCURVE",
"143 297 CURVE SMOOTH",
"116 164 LINE SMOOTH",
"109 131 OFFCURVE",
"116 95 OFFCURVE",
"138 67 CURVE SMOOTH",
"160 39 OFFCURVE",
"198 19 OFFCURVE",
"254 19 CURVE SMOOTH"
);
}
);
width = 563;
}
);
leftKerningGroup = b;
rightKerningGroup = b;
unicode = 0062;
},
{
glyphname = c;
layers = (
{
layerId = "F5C437A1-5BE8-4656-AC88-288CA2D4AAEB";
name = "Light Italic";
paths = (
{
closed = 1;
nodes = (
"171 -12 OFFCURVE",
"129 8 OFFCURVE",
"101 44 CURVE SMOOTH",
"73 79 OFFCURVE",
"58 129 OFFCURVE",
"58 189 CURVE SMOOTH",
"58 281 OFFCURVE",
"80 364 OFFCURVE",
"121 424 CURVE SMOOTH",
"162 484 OFFCURVE",
"224 520 OFFCURVE",
"301 520 CURVE SMOOTH",
"384 520 OFFCURVE",
"441 472 OFFCURVE",
"456 404 CURVE",
"427 393 LINE",
"411 457 OFFCURVE",
"364 490 OFFCURVE",
"299 490 CURVE SMOOTH",
"202 490 OFFCURVE",
"131 418 OFFCURVE",
"108 301 CURVE SMOOTH",
"97 243 LINE SMOOTH",
"93 220 OFFCURVE",
"92 209 OFFCURVE",
"92 186 CURVE SMOOTH",
"92 139 OFFCURVE",
"102 98 OFFCURVE",
"125 68 CURVE SMOOTH",
"148 38 OFFCURVE",
"181 19 OFFCURVE",
"228 19 CURVE SMOOTH",
"300 19 OFFCURVE",
"353 59 OFFCURVE",
"398 131 CURVE",
"426 117 LINE",
"378 37 OFFCURVE",
"314 -12 OFFCURVE",
"226 -12 CURVE SMOOTH"
);
}
);
width = 481;
}
);
leftKerningGroup = c;
rightKerningGroup = c;
unicode = 0063;
},
{
glyphname = d;
layers = (
{
layerId = "F5C437A1-5BE8-4656-AC88-288CA2D4AAEB";
name = "Light Italic";
paths = (
{
closed = 1;
nodes = (
"419 0 LINE SMOOTH",
"396 0 OFFCURVE",
"385 10 OFFCURVE",
"385 29 CURVE SMOOTH",
"385 36 OFFCURVE",
"386 41 OFFCURVE",
"387 48 CURVE",
"400 111 LINE",
"397 111 LINE",
"354 34 OFFCURVE",
"303 -12 OFFCURVE",
"220 -12 CURVE SMOOTH",
"168 -12 OFFCURVE",
"128 8 OFFCURVE",
"101 42 CURVE SMOOTH",
"73 76 OFFCURVE",
"58 122 OFFCURVE",
"58 178 CURVE SMOOTH",
"58 266 OFFCURVE",
"80 351 OFFCURVE",
"122 415 CURVE SMOOTH",
"164 479 OFFCURVE",
"227 520 OFFCURVE",
"308 520 CURVE SMOOTH",
"388 520 OFFCURVE",
"440 481 OFFCURVE",
"459 417 CURVE",
"462 417 LINE",
"526 740 LINE",
"560 740 LINE",
"418 31 LINE",
"501 31 LINE",
"495 0 LINE"
);
},
{
closed = 1;
nodes = (
"268 19 OFFCURVE",
"299 32 OFFCURVE",
"334 61 CURVE SMOOTH",
"373 94 OFFCURVE",
"407 144 OFFCURVE",
"420 211 CURVE SMOOTH",
"447 344 LINE SMOOTH",
"454 377 OFFCURVE",
"448 413 OFFCURVE",
"426 441 CURVE SMOOTH",
"404 469 OFFCURVE",
"365 489 OFFCURVE",
"309 489 CURVE SMOOTH",
"201 489 OFFCURVE",
"132 411 OFFCURVE",
"107 286 CURVE SMOOTH",
"99 242 LINE SMOOTH",
"95 221 OFFCURVE",
"93 202 OFFCURVE",
"93 175 CURVE SMOOTH",
"93 132 OFFCURVE",
"103 93 OFFCURVE",
"125 65 CURVE SMOOTH",
"147 37 OFFCURVE",
"178 19 OFFCURVE",
"225 19 CURVE SMOOTH"
);
}
);
width = 571;
}
);
leftKerningGroup = a;
rightKerningGroup = d;
unicode = 0064;
},
{
glyphname = e;
layers = (
{
layerId = "F5C437A1-5BE8-4656-AC88-288CA2D4AAEB";
name = "Light Italic";
paths = (
{
closed = 1;
nodes = (
"122 -12 OFFCURVE",
"58 54 OFFCURVE",
"58 191 CURVE SMOOTH",
"58 282 OFFCURVE",
"84 364 OFFCURVE",
"129 424 CURVE SMOOTH",
"173 483 OFFCURVE",
"236 520 OFFCURVE",
"311 520 CURVE SMOOTH",
"404 520 OFFCURVE",
"471 474 OFFCURVE",
"471 394 CURVE SMOOTH",
"471 355 OFFCURVE",
"456 317 OFFCURVE",
"402 286 CURVE SMOOTH",
"348 255 OFFCURVE",
"252 233 OFFCURVE",
"95 230 CURVE",
"94 219 OFFCURVE",
"92 198 OFFCURVE",
"92 187 CURVE SMOOTH",
"92 72 OFFCURVE",
"144 19 OFFCURVE",
"240 19 CURVE SMOOTH",
"319 19 OFFCURVE",
"381 62 OFFCURVE",
"421 134 CURVE",
"448 117 LINE",
"393 26 OFFCURVE",
"320 -12 OFFCURVE",
"239 -12 CURVE SMOOTH"
);
},
{
closed = 1;
nodes = (
"255 490 OFFCURVE",
"210 468 OFFCURVE",
"175 431 CURVE SMOOTH",
"139 394 OFFCURVE",
"114 340 OFFCURVE",
"103 279 CURVE SMOOTH",
"99 259 LINE",
"240 262 OFFCURVE",
"324 279 OFFCURVE",
"373 304 CURVE SMOOTH",
"421 328 OFFCURVE",
"435 359 OFFCURVE",
"435 394 CURVE SMOOTH",
"435 454 OFFCURVE",
"394 490 OFFCURVE",
"307 490 CURVE SMOOTH"
);
}
);
width = 506;
}
);
leftKerningGroup = c;
rightKerningGroup = e;
unicode = 0065;
},
{
glyphname = f;
layers = (
{
layerId = "F5C437A1-5BE8-4656-AC88-288CA2D4AAEB";
name = "Light Italic";
paths = (
{
closed = 1;
nodes = (
"74 -148 LINE SMOOTH",
"67 -184 OFFCURVE",
"55 -200 OFFCURVE",
"15 -200 CURVE SMOOTH",
"-65 -200 LINE",
"-59 -169 LINE",
"36 -169 LINE",
"164 477 LINE",
"68 477 LINE",
"74 508 LINE",
"170 508 LINE",
"205 688 LINE SMOOTH",
"212 724 OFFCURVE",
"225 740 OFFCURVE",
"265 740 CURVE SMOOTH",
"355 740 LINE",
"349 709 LINE",
"243 709 LINE",
"204 508 LINE",
"308 508 LINE",
"302 477 LINE",
"198 477 LINE"
);
}
);
width = 288;
}
);
leftKerningGroup = f;
rightKerningGroup = f;
unicode = 0066;
},
{
glyphname = g;
lastChange = "2018-11-07 05:00:42 +0000";
layers = (
{
layerId = "F5C437A1-5BE8-4656-AC88-288CA2D4AAEB";
name = "Light Italic";
paths = (
{
closed = 1;
nodes = (
"302 -12 OFFCURVE",
"355 34 OFFCURVE",
"397 111 CURVE",
"400 111 LINE",
"377 -9 LINE SMOOTH",
"353 -130 OFFCURVE",
"284 -181 OFFCURVE",
"180 -181 CURVE SMOOTH",
"112 -181 OFFCURVE",
"69 -157 OFFCURVE",
"41 -118 CURVE",
"16 -140 LINE",
"49 -183 OFFCURVE",
"100 -212 OFFCURVE",
"180 -212 CURVE SMOOTH",
"304 -212 OFFCURVE",
"384 -147 OFFCURVE",
"410 -16 CURVE SMOOTH",
"515 508 LINE",
"480 508 LINE",
"462 417 LINE",
"459 417 LINE",
"441 480 OFFCURVE",
"387 520 OFFCURVE",
"308 520 CURVE SMOOTH",
"145 520 OFFCURVE",
"58 354 OFFCURVE",
"58 178 CURVE SMOOTH",
"58 67 OFFCURVE",
"117 -12 OFFCURVE",
"220 -12 CURVE SMOOTH"
);
},
{
closed = 1;
nodes = (
"133 19 OFFCURVE",
"93 89 OFFCURVE",
"93 175 CURVE SMOOTH",
"93 201 OFFCURVE",
"95 221 OFFCURVE",
"99 242 CURVE SMOOTH",
"107 286 LINE SMOOTH",
"132 411 OFFCURVE",
"202 489 OFFCURVE",
"309 489 CURVE SMOOTH",
"422 489 OFFCURVE",
"460 410 OFFCURVE",
"447 344 CURVE SMOOTH",
"420 211 LINE SMOOTH",
"407 145 OFFCURVE",
"372 94 OFFCURVE",
"334 61 CURVE SMOOTH",
"300 32 OFFCURVE",
"267 19 OFFCURVE",
"225 19 CURVE SMOOTH"
);
}
);
width = 554;
}
);
leftKerningGroup = g;
rightKerningGroup = g;
unicode = 0067;
},
{
glyphname = h;
layers = (
{
layerId = "F5C437A1-5BE8-4656-AC88-288CA2D4AAEB";
name = "Light Italic";
paths = (
{
closed = 1;
nodes = (
"196 740 LINE",
"230 740 LINE",
"164 404 LINE",
"167 404 LINE",
"206 480 OFFCURVE",
"260 520 OFFCURVE",
"340 520 CURVE SMOOTH",
"427 520 OFFCURVE",
"473 470 OFFCURVE",
"473 386 CURVE SMOOTH",
"473 366 OFFCURVE",
"470 341 OFFCURVE",
"466 320 CURVE SMOOTH",
"408 31 LINE",
"490 31 LINE",
"484 0 LINE",
"407 0 LINE SMOOTH",
"386 0 OFFCURVE",
"375 9 OFFCURVE",
"375 28 CURVE SMOOTH",
"375 33 OFFCURVE",
"376 41 OFFCURVE",
"378 51 CURVE SMOOTH",
"432 320 LINE SMOOTH",
"436 341 OFFCURVE",
"439 367 OFFCURVE",
"439 380 CURVE SMOOTH",
"439 453 OFFCURVE",
"403 489 OFFCURVE",
"332 489 CURVE SMOOTH",
"289 489 OFFCURVE",
"245 475 OFFCURVE",
"208 432 CURVE SMOOTH",
"183 404 OFFCURVE",
"155 362 OFFCURVE",
"144 306 CURVE SMOOTH",
"83 0 LINE",
"49 0 LINE"
);
}
);
width = 552;
}
);
leftKerningGroup = b;
rightKerningGroup = h;
unicode = 0068;
},
{
glyphname = i;
layers = (
{
layerId = "F5C437A1-5BE8-4656-AC88-288CA2D4AAEB";
name = "Light Italic";
paths = (
{
closed = 1;
nodes = (
"181 664 OFFCURVE",
"175 674 OFFCURVE",
"175 685 CURVE SMOOTH",
"175 689 OFFCURVE",
"175 693 OFFCURVE",
"178 702 CURVE",
"181 717 OFFCURVE",
"190 726 OFFCURVE",
"211 726 CURVE SMOOTH",
"230 726 OFFCURVE",
"236 716 OFFCURVE",
"236 705 CURVE SMOOTH",
"236 700 OFFCURVE",
"234 679 OFFCURVE",
"224 671 CURVE",
"219 666 OFFCURVE",
"211 664 OFFCURVE",
"200 664 CURVE SMOOTH"
);
},
{
closed = 1;
nodes = (
"89 0 LINE SMOOTH",
"67 0 OFFCURVE",
"56 9 OFFCURVE",
"56 28 CURVE SMOOTH",
"56 33 OFFCURVE",
"57 41 OFFCURVE",
"59 51 CURVE SMOOTH",
"150 508 LINE",
"184 508 LINE",
"89 31 LINE",
"171 31 LINE",
"165 0 LINE"
);
}
);
width = 242;
}
);
leftKerningGroup = i;
rightKerningGroup = i;
unicode = 0069;
},
{
glyphname = j;
layers = (
{
layerId = "F5C437A1-5BE8-4656-AC88-288CA2D4AAEB";
name = "Light Italic";
paths = (
{
closed = 1;
nodes = (
"151 508 LINE",
"185 508 LINE",
"53 -151 LINE SMOOTH",
"46 -187 OFFCURVE",
"34 -200 OFFCURVE",
"-5 -200 CURVE SMOOTH",
"-76 -200 LINE",
"-69 -169 LINE",
"15 -169 LINE"
);
},
{
closed = 1;
nodes = (
"182 664 OFFCURVE",
"175 674 OFFCURVE",
"175 685 CURVE SMOOTH",
"175 689 OFFCURVE",
"175 693 OFFCURVE",
"178 702 CURVE",
"181 718 OFFCURVE",
"192 726 OFFCURVE",
"211 726 CURVE SMOOTH",
"230 726 OFFCURVE",
"237 717 OFFCURVE",
"237 706 CURVE SMOOTH",
"237 704 OFFCURVE",
"237 702 OFFCURVE",
"237 700 CURVE",
"236 697 OFFCURVE",
"235 693 OFFCURVE",
"234 688 CURVE SMOOTH",
"231 672 OFFCURVE",
"220 664 OFFCURVE",
"201 664 CURVE SMOOTH"
);
}
);
width = 234;
}
);
leftKerningGroup = j;
rightKerningGroup = j;
unicode = 006A;
},
{
glyphname = k;
layers = (
{
layerId = "F5C437A1-5BE8-4656-AC88-288CA2D4AAEB";
name = "Light Italic";
paths = (
{
closed = 1;
nodes = (
"197 740 LINE",
"231 740 LINE",
"130 234 LINE",
"134 234 LINE",
"241 326 LINE",
"449 508 LINE",
"492 508 LINE",
"252 296 LINE",
"385 31 LINE",
"444 31 LINE",
"438 0 LINE",
"391 0 LINE SMOOTH",
"368 0 OFFCURVE",
"360 8 OFFCURVE",
"349 29 CURVE SMOOTH",
"226 276 LINE",
"121 187 LINE",
"83 0 LINE",
"49 0 LINE"
);
}
);
width = 488;
}
);
leftKerningGroup = b;
rightKerningGroup = k;
unicode = 006B;
},
{
glyphname = l;
layers = (
{
layerId = "F5C437A1-5BE8-4656-AC88-288CA2D4AAEB";
name = "Light Italic";
paths = (
{
closed = 1;
nodes = (
"90 0 LINE SMOOTH",
"68 0 OFFCURVE",
"57 9 OFFCURVE",
"57 28 CURVE SMOOTH",
"57 33 OFFCURVE",
"58 41 OFFCURVE",
"60 51 CURVE SMOOTH",
"197 740 LINE",
"231 740 LINE",
"90 31 LINE",
"173 31 LINE",
"167 0 LINE"
);
}
);
width = 242;
}
);
leftKerningGroup = l;
rightKerningGroup = d;
unicode = 006C;
},
{
glyphname = m;
layers = (
{
layerId = "F5C437A1-5BE8-4656-AC88-288CA2D4AAEB";
name = "Light Italic";
paths = (
{
closed = 1;
nodes = (
"49 0 LINE",
"151 508 LINE",
"185 508 LINE",
"164 404 LINE",
"167 404 LINE",
"203 476 OFFCURVE",
"255 520 OFFCURVE",
"334 520 CURVE SMOOTH",
"414 520 OFFCURVE",
"456 468 OFFCURVE",
"459 399 CURVE",
"463 399 LINE",
"498 475 OFFCURVE",
"557 520 OFFCURVE",
"638 520 CURVE SMOOTH",
"721 520 OFFCURVE",
"765 471 OFFCURVE",
"765 386 CURVE SMOOTH",
"765 366 OFFCURVE",
"762 342 OFFCURVE",
"758 321 CURVE SMOOTH",
"700 31 LINE",
"783 31 LINE",
"776 0 LINE",
"700 0 LINE SMOOTH",
"677 0 OFFCURVE",
"666 9 OFFCURVE",
"666 28 CURVE SMOOTH",
"666 35 OFFCURVE",
"667 43 OFFCURVE",
"669 52 CURVE SMOOTH",
"724 320 LINE SMOOTH",
"728 341 OFFCURVE",
"731 366 OFFCURVE",
"731 381 CURVE SMOOTH",
"731 453 OFFCURVE",
"697 489 OFFCURVE",
"629 489 CURVE SMOOTH",
"588 489 OFFCURVE",
"545 472 OFFCURVE",
"510 432 CURVE SMOOTH",
"483 401 OFFCURVE",
"462 364 OFFCURVE",
"451 312 CURVE SMOOTH",
"388 0 LINE",
"354 0 LINE",
"418 320 LINE SMOOTH",
"422 341 OFFCURVE",
"425 366 OFFCURVE",
"425 381 CURVE SMOOTH",
"425 453 OFFCURVE",
"392 489 OFFCURVE",
"325 489 CURVE SMOOTH",
"284 489 OFFCURVE",
"244 472 OFFCURVE",
"209 432 CURVE SMOOTH",
"182 403 OFFCURVE",
"155 357 OFFCURVE",
"144 306 CURVE SMOOTH",
"83 0 LINE"
);
}
);
width = 844;
}
);
leftKerningGroup = m;
rightKerningGroup = h;
unicode = 006D;
},
{
glyphname = n;
layers = (
{
layerId = "F5C437A1-5BE8-4656-AC88-288CA2D4AAEB";
name = "Light Italic";
paths = (
{
closed = 1;
nodes = (
"49 0 LINE",
"151 508 LINE",
"185 508 LINE",
"164 404 LINE",
"167 404 LINE",
"206 480 OFFCURVE",
"260 520 OFFCURVE",
"341 520 CURVE SMOOTH",
"428 520 OFFCURVE",
"473 470 OFFCURVE",
"473 386 CURVE SMOOTH",
"473 366 OFFCURVE",
"470 341 OFFCURVE",
"466 320 CURVE SMOOTH",
"408 31 LINE",
"490 31 LINE",
"484 0 LINE",
"407 0 LINE SMOOTH",
"386 0 OFFCURVE",
"375 9 OFFCURVE",
"375 28 CURVE SMOOTH",
"375 33 OFFCURVE",
"376 41 OFFCURVE",
"378 51 CURVE SMOOTH",
"432 320 LINE SMOOTH",
"436 341 OFFCURVE",
"438 367 OFFCURVE",
"438 380 CURVE SMOOTH",
"438 453 OFFCURVE",
"403 489 OFFCURVE",
"332 489 CURVE SMOOTH",
"289 489 OFFCURVE",
"247 475 OFFCURVE",
"208 432 CURVE SMOOTH",
"184 404 OFFCURVE",
"155 362 OFFCURVE",
"144 306 CURVE SMOOTH",
"83 0 LINE"
);
}
);
width = 552;
}
);
leftKerningGroup = m;
rightKerningGroup = h;
unicode = 006E;
},
{
glyphname = o;
layers = (
{
layerId = "F5C437A1-5BE8-4656-AC88-288CA2D4AAEB";
name = "Light Italic";
paths = (
{
closed = 1;
nodes = (
"174 -12 OFFCURVE",
"131 8 OFFCURVE",
"102 41 CURVE SMOOTH",
"73 74 OFFCURVE",
"57 121 OFFCURVE",
"57 176 CURVE SMOOTH",
"57 268 OFFCURVE",
"79 354 OFFCURVE",
"123 417 CURVE SMOOTH",
"166 480 OFFCURVE",
"228 520 OFFCURVE",
"311 520 CURVE SMOOTH",
"364 520 OFFCURVE",
"407 500 OFFCURVE",
"436 467 CURVE SMOOTH",
"465 434 OFFCURVE",
"481 387 OFFCURVE",
"481 332 CURVE SMOOTH",
"481 240 OFFCURVE",
"459 154 OFFCURVE",
"416 91 CURVE SMOOTH",
"372 28 OFFCURVE",
"308 -12 OFFCURVE",
"227 -12 CURVE SMOOTH"
);
},
{
closed = 1;
nodes = (
"335 19 OFFCURVE",
"406 94 OFFCURVE",
"433 223 CURVE SMOOTH",
"442 271 LINE SMOOTH",
"446 292 OFFCURVE",
"447 313 OFFCURVE",
"447 337 CURVE SMOOTH",
"447 378 OFFCURVE",
"436 417 OFFCURVE",
"413 445 CURVE SMOOTH",
"390 472 OFFCURVE",
"355 489 OFFCURVE",
"307 489 CURVE SMOOTH",
"203 489 OFFCURVE",
"132 414 OFFCURVE",
"105 285 CURVE SMOOTH",
"96 237 LINE SMOOTH",
"92 216 OFFCURVE",
"91 195 OFFCURVE",
"91 171 CURVE SMOOTH",
"91 128 OFFCURVE",
"102 91 OFFCURVE",
"125 64 CURVE SMOOTH",
"148 36 OFFCURVE",
"183 19 OFFCURVE",
"231 19 CURVE SMOOTH"
);
}
);
width = 538;
}
);
leftKerningGroup = c;
rightKerningGroup = o;
unicode = 006F;
},
{
glyphname = p;
layers = (
{
layerId = "F5C437A1-5BE8-4656-AC88-288CA2D4AAEB";
name = "Light Italic";
paths = (
{
closed = 1;
nodes = (
"151 508 LINE",
"186 508 LINE",
"163 397 LINE",
"166 397 LINE",
"209 474 OFFCURVE",
"260 520 OFFCURVE",
"343 520 CURVE SMOOTH",
"395 520 OFFCURVE",
"435 501 OFFCURVE",
"463 467 CURVE SMOOTH",
"490 433 OFFCURVE",
"505 386 OFFCURVE",
"505 330 CURVE SMOOTH",
"505 242 OFFCURVE",
"484 157 OFFCURVE",
"442 93 CURVE SMOOTH",
"400 29 OFFCURVE",
"336 -12 OFFCURVE",
"255 -12 CURVE SMOOTH",
"175 -12 OFFCURVE",
"123 27 OFFCURVE",
"104 91 CURVE",
"102 91 LINE",
"44 -200 LINE",
"10 -200 LINE"
);
},
{
closed = 1;
nodes = (
"362 19 OFFCURVE",
"431 97 OFFCURVE",
"456 222 CURVE SMOOTH",
"464 266 LINE SMOOTH",
"468 287 OFFCURVE",
"470 306 OFFCURVE",
"470 333 CURVE SMOOTH",
"470 376 OFFCURVE",
"461 415 OFFCURVE",
"439 443 CURVE SMOOTH",
"417 471 OFFCURVE",
"383 489 OFFCURVE",
"338 489 CURVE SMOOTH",
"295 489 OFFCURVE",
"264 476 OFFCURVE",
"229 447 CURVE SMOOTH",
"190 414 OFFCURVE",
"156 364 OFFCURVE",
"143 297 CURVE SMOOTH",
"116 164 LINE SMOOTH",
"109 131 OFFCURVE",
"116 95 OFFCURVE",
"138 67 CURVE SMOOTH",
"160 39 OFFCURVE",
"198 19 OFFCURVE",
"254 19 CURVE SMOOTH"
);
}
);
width = 564;
}
);
leftKerningGroup = p;
rightKerningGroup = b;
unicode = 0070;
},
{
glyphname = q;
layers = (
{
layerId = "F5C437A1-5BE8-4656-AC88-288CA2D4AAEB";
name = "Light Italic";
paths = (
{
closed = 1;
nodes = (
"400 111 LINE",
"397 111 LINE",
"354 34 OFFCURVE",
"303 -12 OFFCURVE",
"220 -12 CURVE SMOOTH",
"168 -12 OFFCURVE",
"128 8 OFFCURVE",
"101 42 CURVE SMOOTH",
"73 76 OFFCURVE",
"58 122 OFFCURVE",
"58 178 CURVE SMOOTH",
"58 266 OFFCURVE",
"80 351 OFFCURVE",
"122 415 CURVE SMOOTH",
"164 479 OFFCURVE",
"227 520 OFFCURVE",
"308 520 CURVE SMOOTH",
"388 520 OFFCURVE",
"440 481 OFFCURVE",
"459 417 CURVE",
"462 417 LINE",
"480 508 LINE",
"514 508 LINE",
"372 -200 LINE",
"338 -200 LINE"
);
},
{
closed = 1;
nodes = (
"268 19 OFFCURVE",
"299 32 OFFCURVE",
"334 61 CURVE SMOOTH",
"373 94 OFFCURVE",
"407 144 OFFCURVE",
"420 211 CURVE SMOOTH",
"447 344 LINE SMOOTH",
"454 377 OFFCURVE",
"448 413 OFFCURVE",
"426 441 CURVE SMOOTH",
"404 469 OFFCURVE",
"365 489 OFFCURVE",
"309 489 CURVE SMOOTH",
"201 489 OFFCURVE",
"132 411 OFFCURVE",
"107 286 CURVE SMOOTH",
"99 242 LINE SMOOTH",
"95 221 OFFCURVE",
"93 202 OFFCURVE",
"93 175 CURVE SMOOTH",
"93 132 OFFCURVE",
"103 93 OFFCURVE",
"125 65 CURVE SMOOTH",
"147 37 OFFCURVE",
"178 19 OFFCURVE",
"225 19 CURVE SMOOTH"
);
}
);
width = 563;
}
);
leftKerningGroup = c;
rightKerningGroup = j;
unicode = 0071;
},
{
glyphname = r;
layers = (
{
layerId = "F5C437A1-5BE8-4656-AC88-288CA2D4AAEB";
name = "Light Italic";
paths = (
{
closed = 1;
nodes = (
"49 0 LINE",
"151 508 LINE",
"185 508 LINE",
"162 397 LINE",
"166 397 LINE",
"182 428 OFFCURVE",
"201 456 OFFCURVE",
"228 476 CURVE SMOOTH",
"255 496 OFFCURVE",
"289 508 OFFCURVE",
"334 508 CURVE SMOOTH",
"365 508 LINE",
"358 475 LINE",
"328 475 LINE SMOOTH",
"279 475 OFFCURVE",
"238 455 OFFCURVE",
"206 423 CURVE SMOOTH",
"174 390 OFFCURVE",
"151 345 OFFCURVE",
"142 296 CURVE SMOOTH",
"83 0 LINE"
);
}
);
width = 344;
}
);
leftKerningGroup = m;
rightKerningGroup = r;
unicode = 0072;
},
{
glyphname = s;
layers = (
{
layerId = "F5C437A1-5BE8-4656-AC88-288CA2D4AAEB";
name = "Light Italic";
paths = (
{
closed = 1;
nodes = (
"118 -12 OFFCURVE",
"56 22 OFFCURVE",
"13 85 CURVE",
"40 105 LINE",
"78 47 OFFCURVE",
"132 18 OFFCURVE",
"201 18 CURVE SMOOTH",
"289 18 OFFCURVE",
"347 61 OFFCURVE",
"347 141 CURVE SMOOTH",
"347 198 OFFCURVE",
"315 221 OFFCURVE",
"251 237 CURVE SMOOTH",
"203 249 LINE SMOOTH",
"168 257 OFFCURVE",
"137 269 OFFCURVE",
"116 289 CURVE SMOOTH",
"95 308 OFFCURVE",
"82 335 OFFCURVE",
"82 375 CURVE SMOOTH",
"82 420 OFFCURVE",
"100 457 OFFCURVE",
"131 482 CURVE SMOOTH",
"162 506 OFFCURVE",
"204 520 OFFCURVE",
"255 520 CURVE SMOOTH",
"339 520 OFFCURVE",
"386 485 OFFCURVE",
"418 442 CURVE",
"393 420 LINE",
"380 439 OFFCURVE",
"364 457 OFFCURVE",
"342 470 CURVE SMOOTH",
"320 482 OFFCURVE",
"290 490 OFFCURVE",
"253 490 CURVE SMOOTH",
"169 490 OFFCURVE",
"116 449 OFFCURVE",
"116 377 CURVE SMOOTH",
"116 321 OFFCURVE",
"147 295 OFFCURVE",
"211 280 CURVE SMOOTH",
"258 268 LINE SMOOTH",
"294 259 OFFCURVE",
"325 248 OFFCURVE",
"347 229 CURVE SMOOTH",
"369 209 OFFCURVE",
"381 183 OFFCURVE",
"381 143 CURVE SMOOTH",
"381 92 OFFCURVE",
"361 54 OFFCURVE",
"329 28 CURVE SMOOTH",
"297 2 OFFCURVE",
"252 -12 OFFCURVE",
"201 -12 CURVE SMOOTH"
);
}
);
width = 453;
}
);
leftKerningGroup = s;
rightKerningGroup = s;
unicode = 0073;
},
{
glyphname = t;
layers = (
{
layerId = "F5C437A1-5BE8-4656-AC88-288CA2D4AAEB";
name = "Light Italic";
paths = (
{
closed = 1;
nodes = (
"109 0 LINE SMOOTH",
"86 0 OFFCURVE",
"75 10 OFFCURVE",
"75 30 CURVE SMOOTH",
"75 37 OFFCURVE",
"77 46 OFFCURVE",
"78 53 CURVE",
"163 477 LINE",
"72 477 LINE",
"78 508 LINE",
"141 508 LINE SMOOTH",
"164 508 OFFCURVE",
"171 516 OFFCURVE",
"175 539 CURVE SMOOTH",
"198 652 LINE",
"232 652 LINE",
"203 508 LINE",
"321 508 LINE",
"315 477 LINE",
"197 477 LINE",
"108 31 LINE",
"218 31 LINE",
"212 0 LINE"
);
}
);
width = 306;
}
);
leftKerningGroup = t;
rightKerningGroup = t;
unicode = 0074;
},
{
glyphname = u;
layers = (
{
layerId = "F5C437A1-5BE8-4656-AC88-288CA2D4AAEB";
name = "Light Italic";
paths = (
{
closed = 1;
nodes = (
"176 508 LINE",
"112 189 LINE SMOOTH",
"108 166 OFFCURVE",
"105 141 OFFCURVE",
"105 128 CURVE SMOOTH",
"105 55 OFFCURVE",
"140 19 OFFCURVE",
"211 19 CURVE SMOOTH",
"254 19 OFFCURVE",
"298 33 OFFCURVE",
"335 76 CURVE SMOOTH",
"360 105 OFFCURVE",
"388 146 OFFCURVE",
"399 202 CURVE SMOOTH",
"460 508 LINE",
"494 508 LINE",
"399 31 LINE",
"481 31 LINE",
"475 0 LINE",
"399 0 LINE SMOOTH",
"377 0 OFFCURVE",
"366 10 OFFCURVE",
"366 29 CURVE SMOOTH",
"366 36 OFFCURVE",
"367 41 OFFCURVE",
"368 49 CURVE",
"379 104 LINE",
"376 104 LINE",
"337 28 OFFCURVE",
"284 -12 OFFCURVE",
"203 -12 CURVE SMOOTH",
"118 -12 OFFCURVE",
"71 38 OFFCURVE",
"71 123 CURVE SMOOTH",
"71 142 OFFCURVE",
"74 167 OFFCURVE",
"78 188 CURVE SMOOTH",
"142 508 LINE"
);
}
);
width = 551;
}
);
leftKerningGroup = u;
rightKerningGroup = a;
unicode = 0075;
},
{
glyphname = v;
layers = (
{
layerId = "F5C437A1-5BE8-4656-AC88-288CA2D4AAEB";
name = "Light Italic";
paths = (
{
closed = 1;
nodes = (
"159 0 LINE",
"72 508 LINE",
"105 508 LINE",
"184 38 LINE",
"187 38 LINE",
"450 508 LINE",
"487 508 LINE",
"200 0 LINE"
);
}
);
width = 466;
}
);
leftKerningGroup = v;
rightKerningGroup = v;
unicode = 0076;
},
{
glyphname = w;
layers = (
{
layerId = "F5C437A1-5BE8-4656-AC88-288CA2D4AAEB";
name = "Light Italic";
paths = (
{
closed = 1;
nodes = (
"78 508 LINE",
"111 508 LINE",
"151 40 LINE",
"154 40 LINE",
"390 508 LINE",
"425 508 LINE",
"472 41 LINE",
"475 41 LINE",
"704 508 LINE",
"739 508 LINE",
"488 0 LINE",
"446 0 LINE",
"400 455 LINE",
"397 455 LINE",
"167 0 LINE",
"124 0 LINE"
);
}
);
width = 723;
}
);
leftKerningGroup = w;
rightKerningGroup = w;
unicode = 0077;
},
{
glyphname = x;
layers = (
{
layerId = "F5C437A1-5BE8-4656-AC88-288CA2D4AAEB";
name = "Light Italic";
paths = (
{
closed = 1;
nodes = (
"-10 0 LINE",
"217 259 LINE",
"86 508 LINE",
"123 508 LINE",
"242 282 LINE",
"245 282 LINE",
"442 508 LINE",
"484 508 LINE",
"260 255 LINE",
"393 0 LINE",
"356 0 LINE",
"235 232 LINE",
"232 232 LINE",
"32 0 LINE"
);
}
);
width = 478;
}
);
leftKerningGroup = x;
rightKerningGroup = x;
unicode = 0078;
},
{
glyphname = y;
layers = (
{
layerId = "F5C437A1-5BE8-4656-AC88-288CA2D4AAEB";
name = "Light Italic";
paths = (
{
closed = 1;
nodes = (
"450 508 LINE",
"487 508 LINE",
"108 -161 LINE SMOOTH",
"92 -190 OFFCURVE",
"80 -200 OFFCURVE",
"53 -200 CURVE SMOOTH",
"-23 -200 LINE",
"-17 -170 LINE",
"69 -170 LINE",
"161 -6 LINE",
"72 508 LINE",
"105 508 LINE",
"184 38 LINE",
"188 38 LINE"
);
}
);
width = 466;
}
);
leftKerningGroup = y;
rightKerningGroup = y;
unicode = 0079;
},
{
glyphname = z;
layers = (
{
layerId = "F5C437A1-5BE8-4656-AC88-288CA2D4AAEB";
name = "Light Italic";
paths = (
{
closed = 1;
nodes = (
"-2 0 LINE",
"4 31 LINE",
"391 478 LINE",
"90 478 LINE",
"96 508 LINE",
"436 508 LINE",
"430 477 LINE",
"44 31 LINE",
"357 31 LINE",
"351 0 LINE"
);
}
);
width = 434;
}
);
leftKerningGroup = z;
rightKerningGroup = z;
unicode = 007A;
},
{
glyphname = A;
layers = (
{
layerId = "F5C437A1-5BE8-4656-AC88-288CA2D4AAEB";
name = "Light Italic";
paths = (
{
closed = 1;
nodes = (
"489 0 LINE",
"449 227 LINE",
"142 227 LINE",
"23 0 LINE",
"-16 0 LINE",
"352 698 LINE",
"400 698 LINE",
"526 0 LINE"
);
},
{
closed = 1;
nodes = (
"372 661 LINE",
"368 661 LINE",
"158 259 LINE",
"444 259 LINE"
);
}
);
width = 601;
}
);
leftKerningGroup = A;
rightKerningGroup = A;
unicode = 0041;
},
{
glyphname = B;
layers = (
{
layerId = "F5C437A1-5BE8-4656-AC88-288CA2D4AAEB";
name = "Light Italic";
paths = (
{
closed = 1;
nodes = (
"190 698 LINE",
"419 698 LINE SMOOTH",
"519 698 OFFCURVE",
"573 647 OFFCURVE",
"573 558 CURVE SMOOTH",
"573 517 OFFCURVE",
"564 475 OFFCURVE",
"543 441 CURVE SMOOTH",
"522 407 OFFCURVE",
"488 380 OFFCURVE",
"437 369 CURVE",
"436 366 LINE",
"503 351 OFFCURVE",
"538 299 OFFCURVE",
"538 230 CURVE SMOOTH",
"538 159 OFFCURVE",
"517 102 OFFCURVE",
"480 62 CURVE SMOOTH",
"443 22 OFFCURVE",
"389 0 OFFCURVE",
"324 0 CURVE SMOOTH",
"52 0 LINE"
);
},
{
closed = 1;
nodes = (
"325 32 LINE SMOOTH",
"421 32 OFFCURVE",
"476 85 OFFCURVE",
"492 165 CURVE SMOOTH",
"496 184 OFFCURVE",
"499 199 OFFCURVE",
"500 209 CURVE SMOOTH",
"501 218 OFFCURVE",
"501 226 OFFCURVE",
"501 231 CURVE SMOOTH",
"501 264 OFFCURVE",
"491 294 OFFCURVE",
"471 315 CURVE SMOOTH",
"450 336 OFFCURVE",
"419 350 OFFCURVE",
"376 350 CURVE SMOOTH",
"156 350 LINE",
"94 32 LINE"
);
},
{
closed = 1;
nodes = (
"367 382 LINE SMOOTH",
"456 382 OFFCURVE",
"513 422 OFFCURVE",
"528 495 CURVE",
"531 515 OFFCURVE",
"534 529 OFFCURVE",
"535 538 CURVE SMOOTH",
"536 547 OFFCURVE",
"536 554 OFFCURVE",
"536 559 CURVE SMOOTH",
"536 624 OFFCURVE",
"500 666 OFFCURVE",
"416 666 CURVE SMOOTH",
"219 666 LINE",
"163 382 LINE"
);
}
);
width = 611;
}
);
unicode = 0042;
},
{
glyphname = C;
layers = (
{
layerId = "F5C437A1-5BE8-4656-AC88-288CA2D4AAEB";
name = "Light Italic";
paths = (
{
closed = 1;
nodes = (
"224 -12 OFFCURVE",
"168 9 OFFCURVE",
"129 50 CURVE SMOOTH",
"89 91 OFFCURVE",
"66 152 OFFCURVE",
"66 231 CURVE SMOOTH",
"66 335 OFFCURVE",
"91 455 OFFCURVE",
"145 549 CURVE SMOOTH",
"199 643 OFFCURVE",
"280 710 OFFCURVE",
"396 710 CURVE SMOOTH",
"509 710 OFFCURVE",
"570 657 OFFCURVE",
"595 565 CURVE",
"562 553 LINE",
"539 630 OFFCURVE",
"494 677 OFFCURVE",
"394 677 CURVE SMOOTH",
"327 677 OFFCURVE",
"269 649 OFFCURVE",
"222 600 CURVE SMOOTH",
"175 551 OFFCURVE",
"142 479 OFFCURVE",
"125 394 CURVE SMOOTH",
"111 325 LINE SMOOTH",
"103 286 OFFCURVE",
"102 253 OFFCURVE",
"102 226 CURVE SMOOTH",
"102 101 OFFCURVE",
"169 21 OFFCURVE",
"292 21 CURVE SMOOTH",
"387 21 OFFCURVE",
"446 68 OFFCURVE",
"497 160 CURVE",
"528 145 LINE",
"465 34 OFFCURVE",
"394 -12 OFFCURVE",
"291 -12 CURVE SMOOTH"
);
}
);
width = 597;
}
);
leftKerningGroup = C;
rightKerningGroup = C;
unicode = 0043;
},
{
glyphname = D;
layers = (
{
layerId = "F5C437A1-5BE8-4656-AC88-288CA2D4AAEB";
name = "Light Italic";
paths = (
{
closed = 1;
nodes = (
"190 698 LINE",
"379 698 LINE SMOOTH",
"532 698 OFFCURVE",
"612 611 OFFCURVE",
"612 458 CURVE SMOOTH",
"612 346 OFFCURVE",
"586 232 OFFCURVE",
"531 145 CURVE SMOOTH",
"476 58 OFFCURVE",
"393 0 OFFCURVE",
"280 0 CURVE SMOOTH",
"50 0 LINE"
);
},
{
closed = 1;
nodes = (
"281 32 LINE SMOOTH",
"356 32 OFFCURVE",
"417 62 OFFCURVE",
"463 110 CURVE SMOOTH",
"509 158 OFFCURVE",
"539 225 OFFCURVE",
"554 300 CURVE SMOOTH",
"567 367 LINE SMOOTH",
"574 403 OFFCURVE",
"576 438 OFFCURVE",
"576 465 CURVE SMOOTH",
"576 590 OFFCURVE",
"509 666 OFFCURVE",
"376 666 CURVE SMOOTH",
"219 666 LINE",
"93 32 LINE"
);
}
);
width = 649;
}
);
rightKerningGroup = D;
unicode = 0044;
},
{
glyphname = E;
layers = (
{
layerId = "F5C437A1-5BE8-4656-AC88-288CA2D4AAEB";
name = "Light Italic";
paths = (
{
closed = 1;
nodes = (
"50 0 LINE",
"190 698 LINE",
"576 698 LINE",
"570 666 LINE",
"220 666 LINE",
"160 370 LINE",
"493 370 LINE",
"487 338 LINE",
"153 338 LINE",
"92 32 LINE",
"447 32 LINE",
"440 0 LINE"
);
}
);
width = 556;
}
);
rightKerningGroup = E;
unicode = 0045;
},
{
glyphname = F;
layers = (
{
layerId = "F5C437A1-5BE8-4656-AC88-288CA2D4AAEB";
name = "Light Italic";
paths = (
{
closed = 1;
nodes = (
"50 0 LINE",
"190 698 LINE",
"568 698 LINE",
"561 666 LINE",
"219 666 LINE",
"159 370 LINE",
"484 370 LINE",
"478 338 LINE",
"153 338 LINE",
"86 0 LINE"
);
}
);
width = 531;
}
);
rightKerningGroup = F;
unicode = 0046;
},
{
glyphname = G;
layers = (
{
layerId = "F5C437A1-5BE8-4656-AC88-288CA2D4AAEB";
name = "Light Italic";
paths = (
{
closed = 1;
nodes = (
"515 111 LINE",
"512 111 LINE",
"465 28 OFFCURVE",
"388 -12 OFFCURVE",
"291 -12 CURVE SMOOTH",
"224 -12 OFFCURVE",
"168 9 OFFCURVE",
"129 50 CURVE SMOOTH",
"89 91 OFFCURVE",
"66 152 OFFCURVE",
"66 231 CURVE SMOOTH",
"66 299 OFFCURVE",
"76 376 OFFCURVE",
"100 447 CURVE SMOOTH",
"123 518 OFFCURVE",
"159 584 OFFCURVE",
"209 632 CURVE SMOOTH",
"259 680 OFFCURVE",
"323 710 OFFCURVE",
"403 710 CURVE SMOOTH",
"524 710 OFFCURVE",
"592 656 OFFCURVE",
"617 565 CURVE",
"584 553 LINE",
"560 630 OFFCURVE",
"509 677 OFFCURVE",
"400 677 CURVE SMOOTH",
"329 677 OFFCURVE",
"270 649 OFFCURVE",
"223 600 CURVE SMOOTH",
"175 551 OFFCURVE",
"141 479 OFFCURVE",
"124 392 CURVE SMOOTH",
"111 325 LINE SMOOTH",
"104 288 OFFCURVE",
"102 255 OFFCURVE",
"102 228 CURVE SMOOTH",
"102 99 OFFCURVE",
"170 21 OFFCURVE",
"297 21 CURVE SMOOTH",
"349 21 OFFCURVE",
"401 35 OFFCURVE",
"444 67 CURVE SMOOTH",
"487 98 OFFCURVE",
"520 144 OFFCURVE",
"533 211 CURVE SMOOTH",
"552 306 LINE",
"382 306 LINE",
"389 339 LINE",
"594 339 LINE",
"527 0 LINE",
"493 0 LINE"
);
}
);
width = 660;
}
);
leftKerningGroup = C;
rightKerningGroup = G;
unicode = 0047;
},
{
glyphname = H;
layers = (
{
layerId = "F5C437A1-5BE8-4656-AC88-288CA2D4AAEB";
name = "Light Italic";
paths = (
{
closed = 1;
nodes = (
"560 338 LINE",
"154 338 LINE",
"86 0 LINE",
"50 0 LINE",
"190 698 LINE",
"226 698 LINE",
"160 370 LINE",
"566 370 LINE",
"632 698 LINE",
"668 698 LINE",
"528 0 LINE",
"492 0 LINE"
);
}
);
width = 681;
}
);
unicode = 0048;
},
{
glyphname = I;
lastChange = "2018-11-04 06:33:59 +0000";
layers = (
{
layerId = "F5C437A1-5BE8-4656-AC88-288CA2D4AAEB";
name = "Light Italic";
paths = (
{
closed = 1;
nodes = (
"190 698 LINE",
"226 698 LINE",
"86 0 LINE",
"50 0 LINE"
);
}
);
width = 238;
}
);
leftKerningGroup = I;
rightKerningGroup = I;
unicode = 0049;
},
{
glyphname = J;
lastChange = "2018-11-04 05:42:22 +0000";
layers = (
{
layerId = "F5C437A1-5BE8-4656-AC88-288CA2D4AAEB";
name = "Light Italic";
paths = (
{
closed = 1;
nodes = (
"320 187 LINE SMOOTH",
"299 81 OFFCURVE",
"241 21 OFFCURVE",
"150 21 CURVE SMOOTH",
"75 21 OFFCURVE",
"30 60 OFFCURVE",
"23 134 CURVE",
"-10 126 LINE",
"-5 44 OFFCURVE",
"52 -12 OFFCURVE",
"149 -12 CURVE SMOOTH",
"256 -12 OFFCURVE",
"330 57 OFFCURVE",
"355 180 CURVE SMOOTH",
"458 698 LINE",
"422 698 LINE"
);
}
);
width = 465;
}
);
leftKerningGroup = J;
rightKerningGroup = J;
unicode = 004A;
},
{
glyphname = K;
layers = (
{
layerId = "F5C437A1-5BE8-4656-AC88-288CA2D4AAEB";
name = "Light Italic";
paths = (
{
closed = 1;
nodes = (
"290 377 LINE",
"134 234 LINE",
"86 0 LINE",
"50 0 LINE",
"190 698 LINE",
"226 698 LINE",
"145 288 LINE",
"148 288 LINE",
"303 431 LINE",
"594 698 LINE",
"641 698 LINE",
"318 400 LINE",
"509 0 LINE",
"471 0 LINE"
);
}
);
width = 576;
}
);
rightKerningGroup = K;
unicode = 004B;
},
{
glyphname = L;
layers = (
{
layerId = "F5C437A1-5BE8-4656-AC88-288CA2D4AAEB";
name = "Light Italic";
paths = (
{
closed = 1;
nodes = (
"50 0 LINE",
"190 698 LINE",
"226 698 LINE",
"93 32 LINE",
"409 32 LINE",
"403 0 LINE"
);
}
);
width = 473;
}
);
rightKerningGroup = L;
unicode = 004C;
},
{
glyphname = M;
layers = (
{
layerId = "F5C437A1-5BE8-4656-AC88-288CA2D4AAEB";
name = "Light Italic";
paths = (
{
closed = 1;
nodes = (
"724 652 LINE",
"721 652 LINE",
"384 219 LINE",
"220 652 LINE",
"216 652 LINE",
"85 0 LINE",
"50 0 LINE",
"190 698 LINE",
"240 698 LINE",
"394 288 LINE",
"397 288 LINE",
"715 698 LINE",
"768 698 LINE",
"628 0 LINE",
"593 0 LINE"
);
}
);
width = 781;
}
);
unicode = 004D;
},
{
glyphname = N;
layers = (
{
layerId = "F5C437A1-5BE8-4656-AC88-288CA2D4AAEB";
name = "Light Italic";
paths = (
{
closed = 1;
nodes = (
"217 649 LINE",
"214 649 LINE",
"85 0 LINE",
"50 0 LINE",
"190 698 LINE",
"235 698 LINE",
"501 49 LINE",
"504 49 LINE",
"633 698 LINE",
"668 698 LINE",
"528 0 LINE",
"483 0 LINE"
);
}
);
width = 681;
}
);
unicode = 004E;
},
{
glyphname = O;
layers = (
{
layerId = "F5C437A1-5BE8-4656-AC88-288CA2D4AAEB";
name = "Light Italic";
paths = (
{
closed = 1;
nodes = (
"226 -12 OFFCURVE",
"169 9 OFFCURVE",
"129 50 CURVE SMOOTH",
"89 91 OFFCURVE",
"66 150 OFFCURVE",
"66 229 CURVE SMOOTH",
"66 297 OFFCURVE",
"77 374 OFFCURVE",
"101 446 CURVE SMOOTH",
"124 517 OFFCURVE",
"160 583 OFFCURVE",
"210 631 CURVE SMOOTH",
"260 679 OFFCURVE",
"323 710 OFFCURVE",
"403 710 CURVE SMOOTH",
"470 710 OFFCURVE",
"527 689 OFFCURVE",
"567 648 CURVE SMOOTH",
"607 607 OFFCURVE",
"630 546 OFFCURVE",
"630 469 CURVE SMOOTH",
"630 401 OFFCURVE",
"619 324 OFFCURVE",
"596 253 CURVE SMOOTH",
"572 181 OFFCURVE",
"537 115 OFFCURVE",
"487 67 CURVE SMOOTH",
"437 19 OFFCURVE",
"372 -12 OFFCURVE",
"293 -12 CURVE SMOOTH"
);
},
{
closed = 1;
nodes = (
"364 21 OFFCURVE",
"425 49 OFFCURVE",
"473 99 CURVE SMOOTH",
"520 149 OFFCURVE",
"555 221 OFFCURVE",
"572 309 CURVE SMOOTH",
"585 375 LINE SMOOTH",
"592 414 OFFCURVE",
"594 447 OFFCURVE",
"594 474 CURVE SMOOTH",
"594 599 OFFCURVE",
"526 677 OFFCURVE",
"401 677 CURVE SMOOTH",
"332 677 OFFCURVE",
"271 649 OFFCURVE",
"224 599 CURVE SMOOTH",
"176 549 OFFCURVE",
"141 477 OFFCURVE",
"124 389 CURVE SMOOTH",
"111 323 LINE SMOOTH",
"104 284 OFFCURVE",
"102 251 OFFCURVE",
"102 224 CURVE SMOOTH",
"102 99 OFFCURVE",
"170 21 OFFCURVE",
"295 21 CURVE SMOOTH"
);
}
);
width = 663;
}
);
leftKerningGroup = C;
rightKerningGroup = O;
unicode = 004F;
},
{
glyphname = P;
layers = (
{
layerId = "F5C437A1-5BE8-4656-AC88-288CA2D4AAEB";
name = "Light Italic";
paths = (
{
closed = 1;
nodes = (
"50 0 LINE",
"190 698 LINE",
"441 698 LINE SMOOTH",
"544 698 OFFCURVE",
"596 633 OFFCURVE",
"596 545 CURVE SMOOTH",
"596 474 OFFCURVE",
"575 418 OFFCURVE",
"539 378 CURVE SMOOTH",
"502 338 OFFCURVE",
"448 316 OFFCURVE",
"381 316 CURVE SMOOTH",
"150 316 LINE",
"86 0 LINE"
);
},
{
closed = 1;
nodes = (
"156 348 LINE",
"385 348 LINE SMOOTH",
"480 348 OFFCURVE",
"535 402 OFFCURVE",
"551 479 CURVE SMOOTH",
"555 499 OFFCURVE",
"558 514 OFFCURVE",
"559 525 CURVE SMOOTH",
"560 535 OFFCURVE",
"560 543 OFFCURVE",
"560 549 CURVE SMOOTH",
"560 614 OFFCURVE",
"525 666 OFFCURVE",
"438 666 CURVE SMOOTH",
"219 666 LINE"
);
}
);
width = 583;
}
);
rightKerningGroup = P;
unicode = 0050;
},
{
glyphname = Q;
layers = (
{
layerId = "F5C437A1-5BE8-4656-AC88-288CA2D4AAEB";
name = "Light Italic";
paths = (
{
closed = 1;
nodes = (
"236 -115 OFFCURVE",
"237 -106 OFFCURVE",
"240 -94 CURVE SMOOTH",
"259 -10 LINE",
"202 -3 OFFCURVE",
"154 21 OFFCURVE",
"120 61 CURVE SMOOTH",
"86 101 OFFCURVE",
"66 158 OFFCURVE",
"66 229 CURVE SMOOTH",
"66 297 OFFCURVE",
"77 374 OFFCURVE",
"101 446 CURVE SMOOTH",
"124 517 OFFCURVE",
"160 583 OFFCURVE",
"210 631 CURVE SMOOTH",
"260 679 OFFCURVE",
"323 710 OFFCURVE",
"403 710 CURVE SMOOTH",
"470 710 OFFCURVE",
"527 689 OFFCURVE",
"567 648 CURVE SMOOTH",
"607 607 OFFCURVE",
"630 546 OFFCURVE",
"630 469 CURVE SMOOTH",
"630 401 OFFCURVE",
"619 324 OFFCURVE",
"596 253 CURVE SMOOTH",
"572 182 OFFCURVE",
"537 116 OFFCURVE",
"487 68 CURVE SMOOTH",
"437 19 OFFCURVE",
"372 -12 OFFCURVE",
"293 -12 CURVE",
"270 -118 LINE",
"373 -118 LINE",
"366 -151 LINE",
"271 -151 LINE SMOOTH",
"244 -151 OFFCURVE",
"236 -138 OFFCURVE",
"236 -122 CURVE SMOOTH"
);
},
{
closed = 1;
nodes = (
"364 21 OFFCURVE",
"425 49 OFFCURVE",
"473 99 CURVE SMOOTH",
"520 149 OFFCURVE",
"555 221 OFFCURVE",
"572 309 CURVE SMOOTH",
"585 375 LINE SMOOTH",
"592 414 OFFCURVE",
"594 447 OFFCURVE",
"594 474 CURVE SMOOTH",
"594 599 OFFCURVE",
"526 677 OFFCURVE",
"401 677 CURVE SMOOTH",
"330 677 OFFCURVE",
"271 649 OFFCURVE",
"224 599 CURVE SMOOTH",
"176 549 OFFCURVE",
"141 477 OFFCURVE",
"124 389 CURVE SMOOTH",
"111 323 LINE SMOOTH",
"103 284 OFFCURVE",
"101 251 OFFCURVE",
"101 224 CURVE SMOOTH",
"101 99 OFFCURVE",
"170 21 OFFCURVE",
"295 21 CURVE SMOOTH"
);
}
);
width = 663;
}
);
leftKerningGroup = C;
rightKerningGroup = O;
unicode = 0051;
},
{
glyphname = R;
layers = (
{
layerId = "F5C437A1-5BE8-4656-AC88-288CA2D4AAEB";
name = "Light Italic";
paths = (
{
closed = 1;
nodes = (
"86 0 LINE",
"50 0 LINE",
"190 698 LINE",
"441 698 LINE SMOOTH",
"544 698 OFFCURVE",
"596 633 OFFCURVE",
"596 545 CURVE SMOOTH",
"596 409 OFFCURVE",
"522 323 OFFCURVE",
"390 318 CURVE",
"510 0 LINE",
"472 0 LINE",
"354 316 LINE",
"149 316 LINE"
);
},
{
closed = 1;
nodes = (
"385 348 LINE SMOOTH",
"480 348 OFFCURVE",
"535 402 OFFCURVE",
"551 479 CURVE SMOOTH",
"555 499 OFFCURVE",
"558 514 OFFCURVE",
"559 525 CURVE SMOOTH",
"560 535 OFFCURVE",
"560 543 OFFCURVE",
"560 549 CURVE SMOOTH",
"560 614 OFFCURVE",
"525 666 OFFCURVE",
"438 666 CURVE SMOOTH",
"219 666 LINE",
"156 348 LINE"
);
}
);
width = 629;
}
);
rightKerningGroup = R;
unicode = 0052;
},
{
glyphname = S;
layers = (
{
layerId = "F5C437A1-5BE8-4656-AC88-288CA2D4AAEB";
name = "Light Italic";
paths = (
{
closed = 1;
nodes = (
"122 -12 OFFCURVE",
"54 31 OFFCURVE",
"13 102 CURVE",
"42 123 LINE",
"81 56 OFFCURVE",
"135 21 OFFCURVE",
"240 21 CURVE SMOOTH",
"311 21 OFFCURVE",
"361 43 OFFCURVE",
"393 76 CURVE SMOOTH",
"425 109 OFFCURVE",
"440 156 OFFCURVE",
"440 205 CURVE SMOOTH",
"440 274 OFFCURVE",
"406 313 OFFCURVE",
"323 333 CURVE SMOOTH",
"241 353 LINE SMOOTH",
"149 376 OFFCURVE",
"107 427 OFFCURVE",
"107 511 CURVE SMOOTH",
"107 564 OFFCURVE",
"126 615 OFFCURVE",
"163 651 CURVE SMOOTH",
"199 687 OFFCURVE",
"254 710 OFFCURVE",
"329 710 CURVE SMOOTH",
"442 710 OFFCURVE",
"501 674 OFFCURVE",
"538 610 CURVE",
"510 590 LINE",
"474 651 OFFCURVE",
"422 677 OFFCURVE",
"327 677 CURVE SMOOTH",
"264 677 OFFCURVE",
"219 658 OFFCURVE",
"189 629 CURVE SMOOTH",
"159 600 OFFCURVE",
"143 557 OFFCURVE",
"143 512 CURVE SMOOTH",
"143 441 OFFCURVE",
"176 404 OFFCURVE",
"255 384 CURVE SMOOTH",
"335 364 LINE SMOOTH",
"430 341 OFFCURVE",
"477 289 OFFCURVE",
"477 206 CURVE SMOOTH",
"477 146 OFFCURVE",
"458 92 OFFCURVE",
"419 53 CURVE SMOOTH",
"379 13 OFFCURVE",
"319 -12 OFFCURVE",
"238 -12 CURVE SMOOTH"
);
}
);
width = 546;
}
);
leftKerningGroup = S;
rightKerningGroup = S;
unicode = 0053;
},
{
glyphname = T;
layers = (
{
layerId = "F5C437A1-5BE8-4656-AC88-288CA2D4AAEB";
name = "Light Italic";
paths = (
{
closed = 1;
nodes = (
"375 666 LINE",
"242 0 LINE",
"206 0 LINE",
"339 666 LINE",
"99 666 LINE",
"105 698 LINE",
"622 698 LINE",
"616 666 LINE"
);
}
);
width = 550;
}
);
leftKerningGroup = T;
rightKerningGroup = T;
unicode = 0054;
},
{
glyphname = U;
layers = (
{
layerId = "F5C437A1-5BE8-4656-AC88-288CA2D4AAEB";
name = "Light Italic";
paths = (
{
closed = 1;
nodes = (
"218 698 LINE",
"133 271 LINE SMOOTH",
"122 218 OFFCURVE",
"118 188 OFFCURVE",
"118 160 CURVE SMOOTH",
"118 72 OFFCURVE",
"169 21 OFFCURVE",
"277 21 CURVE SMOOTH",
"348 21 OFFCURVE",
"399 37 OFFCURVE",
"436 77 CURVE SMOOTH",
"472 116 OFFCURVE",
"497 179 OFFCURVE",
"516 274 CURVE SMOOTH",
"601 698 LINE",
"637 698 LINE",
"552 272 LINE SMOOTH",
"531 165 OFFCURVE",
"503 94 OFFCURVE",
"460 50 CURVE SMOOTH",
"416 6 OFFCURVE",
"358 -12 OFFCURVE",
"275 -12 CURVE SMOOTH",
"154 -12 OFFCURVE",
"82 46 OFFCURVE",
"82 158 CURVE SMOOTH",
"82 193 OFFCURVE",
"88 228 OFFCURVE",
"99 280 CURVE SMOOTH",
"182 698 LINE"
);
}
);
width = 643;
}
);
leftKerningGroup = U;
rightKerningGroup = U;
unicode = 0055;
},
{
glyphname = V;
layers = (
{
layerId = "F5C437A1-5BE8-4656-AC88-288CA2D4AAEB";
name = "Light Italic";
paths = (
{
closed = 1;
nodes = (
"212 0 LINE",
"116 698 LINE",
"152 698 LINE",
"240 39 LINE",
"243 39 LINE",
"596 698 LINE",
"635 698 LINE",
"258 0 LINE"
);
}
);
width = 572;
}
);
leftKerningGroup = V;
rightKerningGroup = V;
unicode = 0056;
},
{
glyphname = W;
layers = (
{
layerId = "F5C437A1-5BE8-4656-AC88-288CA2D4AAEB";
name = "Light Italic";
paths = (
{
closed = 1;
nodes = (
"154 0 LINE",
"117 698 LINE",
"153 698 LINE",
"186 48 LINE",
"189 48 LINE",
"497 698 LINE",
"544 698 LINE",
"590 49 LINE",
"593 49 LINE",
"892 698 LINE",
"930 698 LINE",
"605 0 LINE",
"560 0 LINE",
"514 653 LINE",
"511 653 LINE",
"200 0 LINE"
);
}
);
width = 864;
}
);
leftKerningGroup = W;
rightKerningGroup = W;
unicode = 0057;
},
{
glyphname = X;
layers = (
{
layerId = "F5C437A1-5BE8-4656-AC88-288CA2D4AAEB";
name = "Light Italic";
paths = (
{
closed = 1;
nodes = (
"481 0 LINE",
"443 0 LINE",
"295 324 LINE",
"291 324 LINE",
"16 0 LINE",
"-28 0 LINE",
"275 356 LINE",
"118 698 LINE",
"157 698 LINE",
"301 384 LINE",
"304 384 LINE",
"570 698 LINE",
"614 698 LINE",
"319 352 LINE"
);
}
);
width = 562;
}
);
leftKerningGroup = X;
rightKerningGroup = X;
unicode = 0058;
},
{
glyphname = Y;
layers = (
{
layerId = "F5C437A1-5BE8-4656-AC88-288CA2D4AAEB";
name = "Light Italic";
paths = (
{
closed = 1;
nodes = (
"205 0 LINE",
"263 289 LINE",
"108 698 LINE",
"145 698 LINE",
"285 329 LINE",
"289 329 LINE",
"577 698 LINE",
"619 698 LINE",
"299 289 LINE",
"241 0 LINE"
);
}
);
width = 549;
}
);
leftKerningGroup = Y;
rightKerningGroup = Y;
unicode = 0059;
},
{
glyphname = Z;
layers = (
{
layerId = "F5C437A1-5BE8-4656-AC88-288CA2D4AAEB";
name = "Light Italic";
paths = (
{
closed = 1;
nodes = (
"464 0 LINE",
"-20 0 LINE",
"-13 35 LINE",
"536 666 LINE",
"133 666 LINE",
"139 698 LINE",
"586 698 LINE",
"579 663 LINE",
"29 32 LINE",
"471 32 LINE"
);
}
);
width = 548;
}
);
leftKerningGroup = Z;
rightKerningGroup = Z;
unicode = 005A;
},
{
glyphname = zero;
layers = (
{
layerId = "F5C437A1-5BE8-4656-AC88-288CA2D4AAEB";
name = "Light Italic";
paths = (
{
closed = 1;
nodes = (
"500 710 OFFCURVE",
"558 629 OFFCURVE",
"558 477 CURVE SMOOTH",
"558 409 OFFCURVE",
"548 331 OFFCURVE",
"528 259 CURVE SMOOTH",
"507 186 OFFCURVE",
"474 118 OFFCURVE",
"430 69 CURVE SMOOTH",
"385 20 OFFCURVE",
"326 -12 OFFCURVE",
"254 -12 CURVE SMOOTH",
"131 -12 OFFCURVE",
"73 69 OFFCURVE",
"73 221 CURVE SMOOTH",
"73 289 OFFCURVE",
"83 367 OFFCURVE",
"104 440 CURVE SMOOTH",
"124 512 OFFCURVE",
"157 580 OFFCURVE",
"202 629 CURVE SMOOTH",
"246 678 OFFCURVE",
"304 710 OFFCURVE",
"377 710 CURVE SMOOTH"
);
},
{
closed = 1;
nodes = (
"254 678 OFFCURVE",
"169 574 OFFCURVE",
"133 395 CURVE SMOOTH",
"119 325 LINE SMOOTH",
"112 286 OFFCURVE",
"109 250 OFFCURVE",
"109 218 CURVE SMOOTH",
"109 94 OFFCURVE",
"149 20 OFFCURVE",
"256 20 CURVE SMOOTH",
"377 20 OFFCURVE",
"462 124 OFFCURVE",
"498 303 CURVE SMOOTH",
"512 373 LINE SMOOTH",
"519 412 OFFCURVE",
"522 448 OFFCURVE",
"522 480 CURVE SMOOTH",
"522 604 OFFCURVE",
"482 678 OFFCURVE",
"375 678 CURVE SMOOTH"
);
}
);
width = 600;
}
);
unicode = 0030;
},
{
glyphname = one;
lastChange = "2018-11-05 15:59:47 +0000";
layers = (
{
layerId = "F5C437A1-5BE8-4656-AC88-288CA2D4AAEB";
name = "Light Italic";
paths = (
{
closed = 1;
nodes = (
"204 0 LINE",
"240 0 LINE",
"379 698 LINE",
"339 698 LINE",
"175 612 LINE",
"168 573 LINE",
"335 660 LINE"
);
}
);
width = 450;
}
);
unicode = 0031;
},
{
glyphname = two;
layers = (
{
layerId = "F5C437A1-5BE8-4656-AC88-288CA2D4AAEB";
name = "Light Italic";
paths = (
{
closed = 1;
nodes = (
"468 0 LINE",
"33 0 LINE",
"41 40 LINE",
"353 301 LINE SMOOTH",
"430 365 OFFCURVE",
"482 429 OFFCURVE",
"495 489 CURVE",
"498 506 OFFCURVE",
"501 520 OFFCURVE",
"502 529 CURVE SMOOTH",
"503 538 OFFCURVE",
"503 545 OFFCURVE",
"503 551 CURVE SMOOTH",
"503 586 OFFCURVE",
"493 617 OFFCURVE",
"471 640 CURVE SMOOTH",
"449 663 OFFCURVE",
"414 677 OFFCURVE",
"365 677 CURVE SMOOTH",
"273 677 OFFCURVE",
"212 635 OFFCURVE",
"173 542 CURVE",
"142 554 LINE",
"184 658 OFFCURVE",
"259 710 OFFCURVE",
"368 710 CURVE SMOOTH",
"425 710 OFFCURVE",
"469 693 OFFCURVE",
"498 665 CURVE",
"526 636 OFFCURVE",
"540 596 OFFCURVE",
"540 551 CURVE SMOOTH",
"540 498 OFFCURVE",
"527 453 OFFCURVE",
"500 409 CURVE SMOOTH",
"472 365 OFFCURVE",
"431 323 OFFCURVE",
"376 278 CURVE SMOOTH",
"80 32 LINE",
"474 32 LINE"
);
}
);
width = 600;
}
);
unicode = 0032;
},
{
glyphname = three;
layers = (
{
layerId = "F5C437A1-5BE8-4656-AC88-288CA2D4AAEB";
name = "Light Italic";
paths = (
{
closed = 1;
nodes = (
"304 382 LINE SMOOTH",
"405 382 OFFCURVE",
"471 426 OFFCURVE",
"490 514 CURVE SMOOTH",
"495 537 OFFCURVE",
"496 544 OFFCURVE",
"496 555 CURVE SMOOTH",
"496 632 OFFCURVE",
"444 677 OFFCURVE",
"357 677 CURVE SMOOTH",
"269 677 OFFCURVE",
"217 649 OFFCURVE",
"177 581 CURVE",
"150 599 LINE",
"191 667 OFFCURVE",
"257 710 OFFCURVE",
"362 710 CURVE SMOOTH",
"411 710 OFFCURVE",
"454 696 OFFCURVE",
"485 670 CURVE SMOOTH",
"516 644 OFFCURVE",
"534 606 OFFCURVE",
"534 559 CURVE SMOOTH",
"534 452 OFFCURVE",
"467 383 OFFCURVE",
"366 366 CURVE",
"365 363 LINE",
"434 354 OFFCURVE",
"484 298 OFFCURVE",
"484 217 CURVE SMOOTH",
"484 148 OFFCURVE",
"461 90 OFFCURVE",
"419 50 CURVE SMOOTH",
"377 10 OFFCURVE",
"317 -12 OFFCURVE",
"245 -12 CURVE SMOOTH",
"144 -12 OFFCURVE",
"70 27 OFFCURVE",
"39 99 CURVE",
"68 117 LINE",
"97 50 OFFCURVE",
"153 21 OFFCURVE",
"248 21 CURVE SMOOTH",
"355 21 OFFCURVE",
"422 75 OFFCURVE",
"441 167 CURVE SMOOTH",
"444 182 OFFCURVE",
"446 193 OFFCURVE",
"447 200 CURVE SMOOTH",
"448 207 OFFCURVE",
"448 214 OFFCURVE",
"448 219 CURVE SMOOTH",
"448 298 OFFCURVE",
"399 350 OFFCURVE",
"299 350 CURVE SMOOTH",
"209 350 LINE",
"216 382 LINE"
);
}
);
width = 600;
}
);
unicode = 0033;
},
{
glyphname = four;
layers = (
{
layerId = "F5C437A1-5BE8-4656-AC88-288CA2D4AAEB";
name = "Light Italic";
paths = (
{
closed = 1;
nodes = (
"349 0 LINE",
"380 155 LINE",
"27 155 LINE",
"33 189 LINE",
"474 698 LINE",
"524 698 LINE",
"421 185 LINE",
"533 185 LINE",
"527 155 LINE",
"415 155 LINE",
"384 0 LINE"
);
},
{
closed = 1;
nodes = (
"69 185 LINE",
"386 185 LINE",
"480 656 LINE",
"477 656 LINE"
);
}
);
width = 600;
}
);
unicode = 0034;
},
{
glyphname = five;
layers = (
{
layerId = "F5C437A1-5BE8-4656-AC88-288CA2D4AAEB";
name = "Light Italic";
paths = (
{
closed = 1;
nodes = (
"568 666 LINE",
"252 666 LINE",
"167 346 LINE",
"171 345 LINE",
"214 397 OFFCURVE",
"262 418 OFFCURVE",
"334 418 CURVE SMOOTH",
"447 418 OFFCURVE",
"509 355 OFFCURVE",
"509 248 CURVE SMOOTH",
"509 168 OFFCURVE",
"484 103 OFFCURVE",
"441 59 CURVE SMOOTH",
"397 14 OFFCURVE",
"336 -12 OFFCURVE",
"261 -12 CURVE SMOOTH",
"166 -12 OFFCURVE",
"91 27 OFFCURVE",
"60 99 CURVE",
"88 117 LINE",
"119 49 OFFCURVE",
"182 21 OFFCURVE",
"262 21 CURVE SMOOTH",
"379 21 OFFCURVE",
"444 82 OFFCURVE",
"464 185 CURVE SMOOTH",
"471 220 OFFCURVE",
"472 233 OFFCURVE",
"472 248 CURVE SMOOTH",
"472 333 OFFCURVE",
"427 386 OFFCURVE",
"327 386 CURVE SMOOTH",
"290 386 OFFCURVE",
"262 380 OFFCURVE",
"236 369 CURVE SMOOTH",
"210 357 OFFCURVE",
"188 340 OFFCURVE",
"164 317 CURVE",
"129 321 LINE",
"228 698 LINE",
"574 698 LINE"
);
}
);
width = 600;
}
);
unicode = 0035;
},
{
glyphname = six;
layers = (
{
layerId = "F5C437A1-5BE8-4656-AC88-288CA2D4AAEB";
name = "Light Italic";
paths = (
{
closed = 1;
nodes = (
"140 -12 OFFCURVE",
"81 63 OFFCURVE",
"81 176 CURVE SMOOTH",
"81 281 OFFCURVE",
"122 384 OFFCURVE",
"188 475 CURVE SMOOTH",
"254 566 OFFCURVE",
"344 643 OFFCURVE",
"445 698 CURVE",
"498 698 LINE",
"307 587 OFFCURVE",
"192 466 OFFCURVE",
"137 306 CURVE",
"140 305 LINE",
"185 389 OFFCURVE",
"258 420 OFFCURVE",
"338 420 CURVE SMOOTH",
"447 420 OFFCURVE",
"518 354 OFFCURVE",
"518 245 CURVE SMOOTH",
"518 173 OFFCURVE",
"492 109 OFFCURVE",
"448 63 CURVE SMOOTH",
"403 17 OFFCURVE",
"340 -12 OFFCURVE",
"267 -12 CURVE SMOOTH"
);
},
{
closed = 1;
nodes = (
"322 20 OFFCURVE",
"369 38 OFFCURVE",
"405 68 CURVE SMOOTH",
"441 98 OFFCURVE",
"466 139 OFFCURVE",
"475 187 CURVE SMOOTH",
"478 203 OFFCURVE",
"480 215 OFFCURVE",
"481 223 CURVE SMOOTH",
"482 230 OFFCURVE",
"482 237 OFFCURVE",
"482 242 CURVE SMOOTH",
"482 330 OFFCURVE",
"432 388 OFFCURVE",
"331 388 CURVE SMOOTH",
"276 388 OFFCURVE",
"229 371 OFFCURVE",
"193 341 CURVE SMOOTH",
"157 311 OFFCURVE",
"132 269 OFFCURVE",
"123 221 CURVE SMOOTH",
"120 205 OFFCURVE",
"118 193 OFFCURVE",
"117 186 CURVE SMOOTH",
"116 178 OFFCURVE",
"116 171 OFFCURVE",
"116 166 CURVE SMOOTH",
"116 78 OFFCURVE",
"166 20 OFFCURVE",
"267 20 CURVE SMOOTH"
);
}
);
width = 600;
}
);
unicode = 0036;
},
{
glyphname = seven;
lastChange = "2018-11-05 15:59:34 +0000";
layers = (
{
layerId = "F5C437A1-5BE8-4656-AC88-288CA2D4AAEB";
name = "Light Italic";
paths = (
{
closed = 1;
nodes = (
"165 666 LINE",
"562 666 LINE",
"140 0 LINE",
"180 0 LINE",
"600 664 LINE",
"607 698 LINE",
"171 698 LINE"
);
}
);
width = 600;
}
);
unicode = 0037;
},
{
glyphname = eight;
layers = (
{
layerId = "F5C437A1-5BE8-4656-AC88-288CA2D4AAEB";
name = "Light Italic";
paths = (
{
closed = 1;
nodes = (
"121 -12 OFFCURVE",
"49 55 OFFCURVE",
"49 158 CURVE SMOOTH",
"49 211 OFFCURVE",
"68 260 OFFCURVE",
"101 297 CURVE SMOOTH",
"133 333 OFFCURVE",
"180 359 OFFCURVE",
"239 367 CURVE",
"239 372 LINE",
"172 391 OFFCURVE",
"139 435 OFFCURVE",
"139 506 CURVE SMOOTH",
"139 567 OFFCURVE",
"164 618 OFFCURVE",
"205 654 CURVE SMOOTH",
"246 690 OFFCURVE",
"304 710 OFFCURVE",
"372 710 CURVE SMOOTH",
"488 710 OFFCURVE",
"553 651 OFFCURVE",
"553 559 CURVE SMOOTH",
"553 511 OFFCURVE",
"537 467 OFFCURVE",
"509 434 CURVE SMOOTH",
"481 401 OFFCURVE",
"442 377 OFFCURVE",
"394 366 CURVE",
"393 362 LINE",
"470 341 OFFCURVE",
"509 291 OFFCURVE",
"509 212 CURVE SMOOTH",
"509 145 OFFCURVE",
"483 90 OFFCURVE",
"437 51 CURVE SMOOTH",
"391 11 OFFCURVE",
"326 -12 OFFCURVE",
"250 -12 CURVE SMOOTH"
);
},
{
closed = 1;
nodes = (
"307 20 OFFCURVE",
"358 35 OFFCURVE",
"395 61 CURVE SMOOTH",
"432 87 OFFCURVE",
"459 124 OFFCURVE",
"467 169 CURVE",
"470 183 OFFCURVE",
"471 193 OFFCURVE",
"472 200 CURVE SMOOTH",
"473 206 OFFCURVE",
"473 212 OFFCURVE",
"473 217 CURVE SMOOTH",
"473 297 OFFCURVE",
"415 350 OFFCURVE",
"307 350 CURVE SMOOTH",
"251 350 OFFCURVE",
"200 336 OFFCURVE",
"163 310 CURVE SMOOTH",
"126 284 OFFCURVE",
"99 246 OFFCURVE",
"91 201 CURVE",
"88 187 OFFCURVE",
"87 177 OFFCURVE",
"86 171 CURVE SMOOTH",
"85 164 OFFCURVE",
"85 158 OFFCURVE",
"85 153 CURVE SMOOTH",
"85 73 OFFCURVE",
"143 20 OFFCURVE",
"251 20 CURVE SMOOTH"
);
},
{
closed = 1;
nodes = (
"425 382 OFFCURVE",
"495 432 OFFCURVE",
"511 515 CURVE",
"514 528 OFFCURVE",
"515 538 OFFCURVE",
"516 544 CURVE SMOOTH",
"517 550 OFFCURVE",
"517 555 OFFCURVE",
"517 560 CURVE SMOOTH",
"517 633 OFFCURVE",
"464 678 OFFCURVE",
"368 678 CURVE SMOOTH",
"267 678 OFFCURVE",
"197 628 OFFCURVE",
"181 545 CURVE",
"178 532 OFFCURVE",
"177 522 OFFCURVE",
"176 516 CURVE SMOOTH",
"175 510 OFFCURVE",
"175 505 OFFCURVE",
"175 500 CURVE SMOOTH",
"175 427 OFFCURVE",
"228 382 OFFCURVE",
"324 382 CURVE SMOOTH"
);
}
);
width = 600;
}
);
unicode = 0038;
},
{
glyphname = nine;
layers = (
{
layerId = "F5C437A1-5BE8-4656-AC88-288CA2D4AAEB";
name = "Light Italic";
paths = (
{
closed = 1;
nodes = (
"551 417 OFFCURVE",
"511 314 OFFCURVE",
"445 223 CURVE SMOOTH",
"379 132 OFFCURVE",
"288 55 OFFCURVE",
"187 0 CURVE",
"134 0 LINE",
"325 111 OFFCURVE",
"440 232 OFFCURVE",
"495 392 CURVE",
"492 393 LINE",
"447 309 OFFCURVE",
"374 278 OFFCURVE",
"294 278 CURVE SMOOTH",
"185 278 OFFCURVE",
"114 344 OFFCURVE",
"114 453 CURVE SMOOTH",
"114 525 OFFCURVE",
"140 590 OFFCURVE",
"185 636 CURVE SMOOTH",
"229 682 OFFCURVE",
"292 710 OFFCURVE",
"365 710 CURVE SMOOTH",
"492 710 OFFCURVE",
"551 635 OFFCURVE",
"551 522 CURVE SMOOTH"
);
},
{
closed = 1;
nodes = (
"356 310 OFFCURVE",
"403 328 OFFCURVE",
"439 358 CURVE SMOOTH",
"475 388 OFFCURVE",
"500 429 OFFCURVE",
"509 477 CURVE SMOOTH",
"512 493 OFFCURVE",
"514 505 OFFCURVE",
"515 513 CURVE SMOOTH",
"516 520 OFFCURVE",
"516 527 OFFCURVE",
"516 532 CURVE SMOOTH",
"516 620 OFFCURVE",
"466 678 OFFCURVE",
"365 678 CURVE SMOOTH",
"310 678 OFFCURVE",
"263 661 OFFCURVE",
"227 631 CURVE SMOOTH",
"191 601 OFFCURVE",
"166 559 OFFCURVE",
"157 511 CURVE SMOOTH",
"154 495 OFFCURVE",
"152 483 OFFCURVE",
"151 476 CURVE SMOOTH",
"150 468 OFFCURVE",
"150 461 OFFCURVE",
"150 456 CURVE SMOOTH",
"150 368 OFFCURVE",
"200 310 OFFCURVE",
"301 310 CURVE SMOOTH"
);
}
);
width = 600;
}
);
unicode = 0039;
},
{
glyphname = ampersand;
layers = (
{
layerId = "F5C437A1-5BE8-4656-AC88-288CA2D4AAEB";
name = "Light Italic";
paths = (
{
closed = 1;
nodes = (
"462 108 LINE",
"405 36 OFFCURVE",
"320 -12 OFFCURVE",
"225 -12 CURVE SMOOTH",
"117 -12 OFFCURVE",
"46 40 OFFCURVE",
"46 140 CURVE SMOOTH",
"46 185 OFFCURVE",
"61 225 OFFCURVE",
"94 264 CURVE SMOOTH",
"127 303 OFFCURVE",
"179 339 OFFCURVE",
"254 375 CURVE",
"207 436 OFFCURVE",
"192 482 OFFCURVE",
"192 521 CURVE SMOOTH",
"192 572 OFFCURVE",
"210 619 OFFCURVE",
"243 654 CURVE SMOOTH",
"275 689 OFFCURVE",
"324 710 OFFCURVE",
"385 710 CURVE SMOOTH",
"474 710 OFFCURVE",
"530 663 OFFCURVE",
"530 590 CURVE SMOOTH",
"530 543 OFFCURVE",
"514 509 OFFCURVE",
"478 475 CURVE SMOOTH",
"441 441 OFFCURVE",
"384 407 OFFCURVE",
"301 366 CURVE",
"463 160 LINE",
"496 213 OFFCURVE",
"519 287 OFFCURVE",
"534 355 CURVE",
"649 355 LINE",
"642 324 LINE",
"557 324 LINE",
"541 256 OFFCURVE",
"517 187 OFFCURVE",
"482 135 CURVE",
"587 0 LINE",
"547 0 LINE"
);
},
{
closed = 1;
nodes = (
"301 680 OFFCURVE",
"247 632 OFFCURVE",
"232 564 CURVE",
"230 553 OFFCURVE",
"229 544 OFFCURVE",
"228 539 CURVE SMOOTH",
"227 533 OFFCURVE",
"226 527 OFFCURVE",
"226 522 CURVE SMOOTH",
"226 491 OFFCURVE",
"236 452 OFFCURVE",
"283 389 CURVE",
"360 426 OFFCURVE",
"413 455 OFFCURVE",
"447 486 CURVE SMOOTH",
"481 517 OFFCURVE",
"495 547 OFFCURVE",
"495 586 CURVE SMOOTH",
"495 646 OFFCURVE",
"453 680 OFFCURVE",
"381 680 CURVE SMOOTH"
);
},
{
closed = 1;
nodes = (
"271 352 LINE",
"210 321 OFFCURVE",
"167 295 OFFCURVE",
"137 267 CURVE SMOOTH",
"107 238 OFFCURVE",
"91 207 OFFCURVE",
"84 170 CURVE SMOOTH",
"82 159 OFFCURVE",
"81 149 OFFCURVE",
"81 140 CURVE SMOOTH",
"81 57 OFFCURVE",
"140 19 OFFCURVE",
"232 19 CURVE SMOOTH",
"320 19 OFFCURVE",
"393 65 OFFCURVE",
"444 132 CURVE"
);
}
);
width = 675;
}
);
leftKerningGroup = ampersand;
rightKerningGroup = ampersand;
unicode = 0026;
},
{
glyphname = at;
layers = (
{
layerId = "F5C437A1-5BE8-4656-AC88-288CA2D4AAEB";
name = "Light Italic";
paths = (
{
closed = 1;
nodes = (
"363 -121 LINE SMOOTH",
"271 -121 OFFCURVE",
"196 -93 OFFCURVE",
"145 -40 CURVE SMOOTH",
"94 12 OFFCURVE",
"66 89 OFFCURVE",
"66 188 CURVE SMOOTH",
"66 221 OFFCURVE",
"69 258 OFFCURVE",
"78 301 CURVE SMOOTH",
"102 422 OFFCURVE",
"158 525 OFFCURVE",
"237 597 CURVE SMOOTH",
"316 669 OFFCURVE",
"416 710 OFFCURVE",
"528 710 CURVE SMOOTH",
"616 710 OFFCURVE",
"692 684 OFFCURVE",
"745 633 CURVE SMOOTH",
"798 582 OFFCURVE",
"830 508 OFFCURVE",
"830 413 CURVE SMOOTH",
"830 356 OFFCURVE",
"817 282 OFFCURVE",
"794 221 CURVE SMOOTH",
"771 160 OFFCURVE",
"738 115 OFFCURVE",
"695 89 CURVE SMOOTH",
"674 76 OFFCURVE",
"650 69 OFFCURVE",
"624 69 CURVE SMOOTH",
"573 69 OFFCURVE",
"543 96 OFFCURVE",
"543 143 CURVE SMOOTH",
"543 155 LINE",
"540 155 LINE",
"527 134 OFFCURVE",
"508 112 OFFCURVE",
"483 96 CURVE SMOOTH",
"458 80 OFFCURVE",
"428 69 OFFCURVE",
"392 69 CURVE SMOOTH",
"308 69 OFFCURVE",
"257 122 OFFCURVE",
"257 214 CURVE SMOOTH",
"257 235 OFFCURVE",
"258 262 OFFCURVE",
"265 291 CURVE",
"292 436 OFFCURVE",
"368 508 OFFCURVE",
"476 508 CURVE SMOOTH",
"539 508 OFFCURVE",
"582 472 OFFCURVE",
"593 425 CURVE",
"596 425 LINE",
"610 497 LINE",
"641 497 LINE",
"577 172 LINE SMOOTH",
"575 162 OFFCURVE",
"574 152 OFFCURVE",
"574 143 CURVE SMOOTH",
"574 112 OFFCURVE",
"592 97 OFFCURVE",
"628 97 CURVE SMOOTH",
"697 97 OFFCURVE",
"760 172 OFFCURVE",
"784 297 CURVE SMOOTH",
"793 345 LINE SMOOTH",
"798 368 OFFCURVE",
"800 391 OFFCURVE",
"800 414 CURVE SMOOTH",
"800 498 OFFCURVE",
"773 566 OFFCURVE",
"725 612 CURVE SMOOTH",
"677 658 OFFCURVE",
"608 682 OFFCURVE",
"524 682 CURVE SMOOTH",
"425 682 OFFCURVE",
"334 644 OFFCURVE",
"262 581 CURVE SMOOTH",
"190 517 OFFCURVE",
"137 428 OFFCURVE",
"116 325 CURVE SMOOTH",
"104 271 LINE SMOOTH",
"98 241 OFFCURVE",
"95 213 OFFCURVE",
"95 188 CURVE SMOOTH",
"95 100 OFFCURVE",
"121 30 OFFCURVE",
"168 -18 CURVE SMOOTH",
"215 -67 OFFCURVE",
"282 -93 OFFCURVE",
"366 -93 CURVE SMOOTH",
"601 -93 LINE",
"595 -121 LINE"
);
},
{
closed = 1;
nodes = (
"436 98 OFFCURVE",
"471 113 OFFCURVE",
"499 135 CURVE SMOOTH",
"527 157 OFFCURVE",
"547 188 OFFCURVE",
"554 220 CURVE SMOOTH",
"583 362 LINE SMOOTH",
"590 395 OFFCURVE",
"581 425 OFFCURVE",
"562 446 CURVE",
"542 466 OFFCURVE",
"512 479 OFFCURVE",
"476 479 CURVE SMOOTH",
"387 479 OFFCURVE",
"325 415 OFFCURVE",
"305 314 CURVE SMOOTH",
"295 263 LINE SMOOTH",
"291 244 OFFCURVE",
"290 228 OFFCURVE",
"290 212 CURVE SMOOTH",
"290 140 OFFCURVE",
"328 98 OFFCURVE",
"400 98 CURVE SMOOTH"
);
}
);
width = 876;
}
);
leftKerningGroup = at;
rightKerningGroup = at;
unicode = 0040;
},
{
glyphname = hyphen;
layers = (
{
layerId = "F5C437A1-5BE8-4656-AC88-288CA2D4AAEB";
name = "Light Italic";
paths = (
{
closed = 1;
nodes = (
"83 287 LINE",
"90 322 LINE",
"325 322 LINE",
"318 287 LINE"
);
}
);
width = 388;
}
);
leftKerningGroup = hyphen;
rightKerningGroup = hyphen;
unicode = 002D;
},
{
glyphname = uni00AD;
layers = (
{
layerId = "F5C437A1-5BE8-4656-AC88-288CA2D4AAEB";
name = "Light Italic";
paths = (
{
closed = 1;
nodes = (
"83 287 LINE",
"90 322 LINE",
"325 322 LINE",
"318 287 LINE"
);
}
);
width = 388;
}
);
leftKerningGroup = hyphen;
rightKerningGroup = hyphen;
unicode = 00AD;
},
{
glyphname = endash;
layers = (
{
layerId = "F5C437A1-5BE8-4656-AC88-288CA2D4AAEB";
name = "Light Italic";
paths = (
{
closed = 1;
nodes = (
"35 289 LINE",
"42 320 LINE",
"553 320 LINE",
"546 289 LINE"
);
}
);
width = 568;
}
);
leftKerningGroup = hyphen;
rightKerningGroup = hyphen;
unicode = 2013;
},
{
glyphname = emdash;
layers = (
{
layerId = "F5C437A1-5BE8-4656-AC88-288CA2D4AAEB";
name = "Light Italic";
paths = (
{
closed = 1;
nodes = (
"35 289 LINE",
"42 320 LINE",
"743 320 LINE",
"737 289 LINE"
);
}
);
width = 758;
}
);
leftKerningGroup = hyphen;
rightKerningGroup = hyphen;
unicode = 2014;
},
{
glyphname = underscore;
layers = (
{
layerId = "F5C437A1-5BE8-4656-AC88-288CA2D4AAEB";
name = "Light Italic";
paths = (
{
closed = 1;
nodes = (
"-55 -146 LINE",
"-48 -117 LINE",
"455 -117 LINE",
"449 -146 LINE"
);
}
);
width = 556;
}
);
leftKerningGroup = underscore;
rightKerningGroup = underscore;
unicode = 005F;
},
{
glyphname = period;
layers = (
{
layerId = "F5C437A1-5BE8-4656-AC88-288CA2D4AAEB";
name = "Light Italic";
paths = (
{
closed = 1;
nodes = (
"50 -7 OFFCURVE",
"42 4 OFFCURVE",
"42 17 CURVE SMOOTH",
"42 24 OFFCURVE",
"44 34 OFFCURVE",
"45 39 CURVE SMOOTH",
"48 54 OFFCURVE",
"56 68 OFFCURVE",
"83 68 CURVE SMOOTH",
"106 68 OFFCURVE",
"114 57 OFFCURVE",
"114 44 CURVE SMOOTH",
"114 37 OFFCURVE",
"112 27 OFFCURVE",
"111 22 CURVE SMOOTH",
"108 7 OFFCURVE",
"100 -7 OFFCURVE",
"73 -7 CURVE SMOOTH"
);
}
);
width = 248;
}
);
leftKerningGroup = period;
rightKerningGroup = period;
unicode = 002E;
},
{
glyphname = ellipsis;
layers = (
{
layerId = "F5C437A1-5BE8-4656-AC88-288CA2D4AAEB";
name = "Light Italic";
paths = (
{
closed = 1;
nodes = (
"50 -7 OFFCURVE",
"42 4 OFFCURVE",
"42 17 CURVE SMOOTH",
"42 24 OFFCURVE",
"44 34 OFFCURVE",
"45 39 CURVE SMOOTH",
"48 54 OFFCURVE",
"56 68 OFFCURVE",
"83 68 CURVE SMOOTH",
"106 68 OFFCURVE",
"114 57 OFFCURVE",
"114 44 CURVE SMOOTH",
"114 37 OFFCURVE",
"112 27 OFFCURVE",
"111 22 CURVE SMOOTH",
"108 7 OFFCURVE",
"100 -7 OFFCURVE",
"73 -7 CURVE SMOOTH"
);
},
{
closed = 1;
nodes = (
"293 -7 OFFCURVE",
"285 4 OFFCURVE",
"285 17 CURVE SMOOTH",
"285 24 OFFCURVE",
"287 34 OFFCURVE",
"288 39 CURVE SMOOTH",
"291 54 OFFCURVE",
"299 68 OFFCURVE",
"326 68 CURVE SMOOTH",
"349 68 OFFCURVE",
"357 57 OFFCURVE",
"357 44 CURVE SMOOTH",
"357 37 OFFCURVE",
"355 27 OFFCURVE",
"354 22 CURVE SMOOTH",
"351 7 OFFCURVE",
"343 -7 OFFCURVE",
"316 -7 CURVE SMOOTH"
);
},
{
closed = 1;
nodes = (
"536 -7 OFFCURVE",
"528 4 OFFCURVE",
"528 17 CURVE SMOOTH",
"528 24 OFFCURVE",
"530 34 OFFCURVE",
"531 39 CURVE SMOOTH",
"534 54 OFFCURVE",
"542 68 OFFCURVE",
"569 68 CURVE SMOOTH",
"592 68 OFFCURVE",
"600 57 OFFCURVE",
"600 44 CURVE SMOOTH",
"600 37 OFFCURVE",
"598 27 OFFCURVE",
"597 22 CURVE SMOOTH",
"594 7 OFFCURVE",
"586 -7 OFFCURVE",
"559 -7 CURVE SMOOTH"
);
}
);
width = 738;
}
);
leftKerningGroup = period;
rightKerningGroup = period;
unicode = 2026;
},
{
glyphname = colon;
layers = (
{
layerId = "F5C437A1-5BE8-4656-AC88-288CA2D4AAEB";
name = "Light Italic";
paths = (
{
closed = 1;
nodes = (
"57 -7 OFFCURVE",
"49 4 OFFCURVE",
"49 17 CURVE SMOOTH",
"49 24 OFFCURVE",
"51 34 OFFCURVE",
"52 39 CURVE SMOOTH",
"55 54 OFFCURVE",
"63 68 OFFCURVE",
"90 68 CURVE SMOOTH",
"113 68 OFFCURVE",
"121 57 OFFCURVE",
"121 44 CURVE SMOOTH",
"121 37 OFFCURVE",
"119 27 OFFCURVE",
"118 22 CURVE SMOOTH",
"115 7 OFFCURVE",
"107 -7 OFFCURVE",
"80 -7 CURVE SMOOTH"
);
},
{
closed = 1;
nodes = (
"145 425 OFFCURVE",
"137 436 OFFCURVE",
"137 449 CURVE SMOOTH",
"137 456 OFFCURVE",
"139 466 OFFCURVE",
"140 471 CURVE SMOOTH",
"143 486 OFFCURVE",
"151 500 OFFCURVE",
"178 500 CURVE SMOOTH",
"201 500 OFFCURVE",
"209 489 OFFCURVE",
"209 476 CURVE SMOOTH",
"209 469 OFFCURVE",
"207 459 OFFCURVE",
"206 454 CURVE SMOOTH",
"203 439 OFFCURVE",
"195 425 OFFCURVE",
"168 425 CURVE SMOOTH"
);
}
);
width = 266;
}
);
leftKerningGroup = colon;
unicode = 003A;
},
{
glyphname = comma;
layers = (
{
layerId = "F5C437A1-5BE8-4656-AC88-288CA2D4AAEB";
name = "Light Italic";
paths = (
{
closed = 1;
nodes = (
"106 68 OFFCURVE",
"114 57 OFFCURVE",
"114 44 CURVE SMOOTH",
"114 37 OFFCURVE",
"112 29 OFFCURVE",
"111 22 CURVE",
"104 -5 OFFCURVE",
"91 -36 OFFCURVE",
"72 -65 CURVE SMOOTH",
"53 -94 OFFCURVE",
"29 -123 OFFCURVE",
"2 -144 CURVE",
"-30 -144 LINE",
"29 -95 OFFCURVE",
"56 -44 OFFCURVE",
"71 -5 CURVE",
"48 -4 OFFCURVE",
"42 6 OFFCURVE",
"42 18 CURVE SMOOTH",
"42 25 OFFCURVE",
"44 34 OFFCURVE",
"45 39 CURVE",
"49 54 OFFCURVE",
"56 68 OFFCURVE",
"83 68 CURVE SMOOTH"
);
}
);
width = 248;
}
);
leftKerningGroup = period;
rightKerningGroup = period;
unicode = 002C;
},
{
glyphname = semicolon;
layers = (
{
layerId = "F5C437A1-5BE8-4656-AC88-288CA2D4AAEB";
name = "Light Italic";
paths = (
{
closed = 1;
nodes = (
"113 68 OFFCURVE",
"121 57 OFFCURVE",
"121 44 CURVE SMOOTH",
"121 37 OFFCURVE",
"119 29 OFFCURVE",
"118 22 CURVE",
"111 -5 OFFCURVE",
"98 -36 OFFCURVE",
"79 -65 CURVE SMOOTH",
"60 -94 OFFCURVE",
"36 -123 OFFCURVE",
"9 -144 CURVE",
"-23 -144 LINE",
"36 -95 OFFCURVE",
"63 -44 OFFCURVE",
"78 -5 CURVE",
"55 -4 OFFCURVE",
"49 6 OFFCURVE",
"49 18 CURVE SMOOTH",
"49 25 OFFCURVE",
"51 34 OFFCURVE",
"52 39 CURVE",
"56 54 OFFCURVE",
"63 68 OFFCURVE",
"90 68 CURVE SMOOTH"
);
},
{
closed = 1;
nodes = (
"145 425 OFFCURVE",
"137 436 OFFCURVE",
"137 449 CURVE SMOOTH",
"137 456 OFFCURVE",
"139 466 OFFCURVE",
"140 471 CURVE SMOOTH",
"143 486 OFFCURVE",
"151 500 OFFCURVE",
"178 500 CURVE SMOOTH",
"201 500 OFFCURVE",
"209 489 OFFCURVE",
"209 476 CURVE SMOOTH",
"209 469 OFFCURVE",
"207 459 OFFCURVE",
"206 454 CURVE SMOOTH",
"203 439 OFFCURVE",
"195 425 OFFCURVE",
"168 425 CURVE SMOOTH"
);
}
);
width = 266;
}
);
leftKerningGroup = colon;
unicode = 003B;
},
{
glyphname = quotesingle;
layers = (
{
layerId = "F5C437A1-5BE8-4656-AC88-288CA2D4AAEB";
name = "Light Italic";
paths = (
{
closed = 1;
nodes = (
"141 483 LINE",
"192 740 LINE",
"224 740 LINE",
"173 483 LINE"
);
}
);
width = 223;
}
);
leftKerningGroup = quotesingle;
rightKerningGroup = quotesingle;
unicode = 0027;
},
{
glyphname = quotedbl;
layers = (
{
layerId = "F5C437A1-5BE8-4656-AC88-288CA2D4AAEB";
name = "Light Italic";
paths = (
{
closed = 1;
nodes = (
"141 483 LINE",
"192 740 LINE",
"224 740 LINE",
"173 483 LINE"
);
},
{
closed = 1;
nodes = (
"299 483 LINE",
"350 740 LINE",
"382 740 LINE",
"331 483 LINE"
);
}
);
width = 382;
}
);
leftKerningGroup = quotesingle;
rightKerningGroup = quotesingle;
unicode = 0022;
},
{
glyphname = quoteleft;
layers = (
{
layerId = "F5C437A1-5BE8-4656-AC88-288CA2D4AAEB";
name = "Light Italic";
paths = (
{
closed = 1;
nodes = (
"155 528 OFFCURVE",
"147 539 OFFCURVE",
"147 552 CURVE SMOOTH",
"147 559 OFFCURVE",
"149 569 OFFCURVE",
"150 574 CURVE",
"157 601 OFFCURVE",
"170 632 OFFCURVE",
"189 661 CURVE SMOOTH",
"208 690 OFFCURVE",
"232 719 OFFCURVE",
"259 740 CURVE",
"291 740 LINE",
"232 692 OFFCURVE",
"205 641 OFFCURVE",
"190 602 CURVE",
"213 599 OFFCURVE",
"219 590 OFFCURVE",
"219 578 CURVE SMOOTH",
"219 571 OFFCURVE",
"217 564 OFFCURVE",
"216 557 CURVE",
"212 542 OFFCURVE",
"205 528 OFFCURVE",
"178 528 CURVE SMOOTH"
);
}
);
width = 248;
}
);
leftKerningGroup = quoteleft;
rightKerningGroup = quoteleft;
unicode = 2018;
},
{
glyphname = quoteright;
layers = (
{
layerId = "F5C437A1-5BE8-4656-AC88-288CA2D4AAEB";
name = "Light Italic";
paths = (
{
closed = 1;
nodes = (
"249 750 OFFCURVE",
"257 739 OFFCURVE",
"257 726 CURVE SMOOTH",
"257 719 OFFCURVE",
"255 711 OFFCURVE",
"254 704 CURVE",
"247 677 OFFCURVE",
"234 646 OFFCURVE",
"215 617 CURVE SMOOTH",
"195 588 OFFCURVE",
"172 559 OFFCURVE",
"144 538 CURVE",
"113 538 LINE",
"170 586 OFFCURVE",
"200 638 OFFCURVE",
"213 677 CURVE",
"190 678 OFFCURVE",
"185 688 OFFCURVE",
"185 700 CURVE SMOOTH",
"185 707 OFFCURVE",
"187 716 OFFCURVE",
"188 721 CURVE",
"192 736 OFFCURVE",
"199 750 OFFCURVE",
"226 750 CURVE SMOOTH"
);
}
);
width = 248;
}
);
leftKerningGroup = quoteright;
rightKerningGroup = quoteright;
unicode = 2019;
},
{
glyphname = quotedblleft;
layers = (
{
layerId = "F5C437A1-5BE8-4656-AC88-288CA2D4AAEB";
name = "Light Italic";
paths = (
{
closed = 1;
nodes = (
"155 528 OFFCURVE",
"147 539 OFFCURVE",
"147 552 CURVE SMOOTH",
"147 559 OFFCURVE",
"149 569 OFFCURVE",
"150 574 CURVE",
"157 601 OFFCURVE",
"170 632 OFFCURVE",
"189 661 CURVE SMOOTH",
"208 690 OFFCURVE",
"232 719 OFFCURVE",
"259 740 CURVE",
"291 740 LINE",
"232 692 OFFCURVE",
"205 641 OFFCURVE",
"190 602 CURVE",
"213 599 OFFCURVE",
"219 590 OFFCURVE",
"219 578 CURVE SMOOTH",
"219 571 OFFCURVE",
"217 564 OFFCURVE",
"216 557 CURVE",
"212 542 OFFCURVE",
"205 528 OFFCURVE",
"178 528 CURVE SMOOTH"
);
},
{
closed = 1;
nodes = (
"323 528 OFFCURVE",
"315 539 OFFCURVE",
"315 552 CURVE SMOOTH",
"315 559 OFFCURVE",
"317 569 OFFCURVE",
"318 574 CURVE",
"325 601 OFFCURVE",
"338 632 OFFCURVE",
"357 661 CURVE SMOOTH",
"376 690 OFFCURVE",
"400 719 OFFCURVE",
"427 740 CURVE",
"459 740 LINE",
"400 692 OFFCURVE",
"373 641 OFFCURVE",
"358 602 CURVE",
"381 599 OFFCURVE",
"387 590 OFFCURVE",
"387 578 CURVE SMOOTH",
"387 571 OFFCURVE",
"385 564 OFFCURVE",
"384 557 CURVE",
"380 542 OFFCURVE",
"373 528 OFFCURVE",
"346 528 CURVE SMOOTH"
);
}
);
width = 417;
}
);
leftKerningGroup = quoteleft;
rightKerningGroup = quoteleft;
unicode = 201C;
},
{
glyphname = quotedblright;
layers = (
{
layerId = "F5C437A1-5BE8-4656-AC88-288CA2D4AAEB";
name = "Light Italic";
paths = (
{
closed = 1;
nodes = (
"249 750 OFFCURVE",
"257 739 OFFCURVE",
"257 726 CURVE SMOOTH",
"257 719 OFFCURVE",
"255 711 OFFCURVE",
"254 704 CURVE",
"247 677 OFFCURVE",
"234 646 OFFCURVE",
"215 617 CURVE SMOOTH",
"195 588 OFFCURVE",
"172 559 OFFCURVE",
"144 538 CURVE",
"113 538 LINE",
"170 586 OFFCURVE",
"200 638 OFFCURVE",
"213 677 CURVE",
"190 678 OFFCURVE",
"185 688 OFFCURVE",
"185 700 CURVE SMOOTH",
"185 707 OFFCURVE",
"187 716 OFFCURVE",
"188 721 CURVE",
"192 736 OFFCURVE",
"199 750 OFFCURVE",
"226 750 CURVE SMOOTH"
);
},
{
closed = 1;
nodes = (
"417 750 OFFCURVE",
"425 739 OFFCURVE",
"425 726 CURVE SMOOTH",
"425 719 OFFCURVE",
"423 711 OFFCURVE",
"422 704 CURVE",
"415 677 OFFCURVE",
"402 646 OFFCURVE",
"383 617 CURVE SMOOTH",
"363 588 OFFCURVE",
"340 559 OFFCURVE",
"312 538 CURVE",
"281 538 LINE",
"338 586 OFFCURVE",
"368 638 OFFCURVE",
"381 677 CURVE",
"358 678 OFFCURVE",
"353 688 OFFCURVE",
"353 700 CURVE SMOOTH",
"353 707 OFFCURVE",
"355 716 OFFCURVE",
"356 721 CURVE",
"360 736 OFFCURVE",
"367 750 OFFCURVE",
"394 750 CURVE SMOOTH"
);
}
);
width = 417;
}
);
leftKerningGroup = quoteright;
rightKerningGroup = quoteright;
unicode = 201D;
},
{
glyphname = quotesinglbase;
layers = (
{
layerId = "F5C437A1-5BE8-4656-AC88-288CA2D4AAEB";
name = "Light Italic";
paths = (
{
closed = 1;
nodes = (
"117 82 OFFCURVE",
"125 71 OFFCURVE",
"125 58 CURVE SMOOTH",
"125 51 OFFCURVE",
"123 43 OFFCURVE",
"122 36 CURVE",
"115 9 OFFCURVE",
"102 -22 OFFCURVE",
"83 -51 CURVE SMOOTH",
"63 -80 OFFCURVE",
"40 -109 OFFCURVE",
"12 -130 CURVE",
"-19 -130 LINE",
"38 -81 OFFCURVE",
"68 -30 OFFCURVE",
"81 9 CURVE",
"58 10 OFFCURVE",
"53 20 OFFCURVE",
"53 32 CURVE SMOOTH",
"53 39 OFFCURVE",
"55 48 OFFCURVE",
"56 53 CURVE",
"60 68 OFFCURVE",
"67 82 OFFCURVE",
"94 82 CURVE SMOOTH"
);
}
);
width = 248;
}
);
leftKerningGroup = period;
rightKerningGroup = period;
unicode = 201A;
},
{
glyphname = quotedblbase;
layers = (
{
layerId = "F5C437A1-5BE8-4656-AC88-288CA2D4AAEB";
name = "Light Italic";
paths = (
{
closed = 1;
nodes = (
"117 82 OFFCURVE",
"125 71 OFFCURVE",
"125 58 CURVE SMOOTH",
"125 51 OFFCURVE",
"123 43 OFFCURVE",
"122 36 CURVE",
"115 9 OFFCURVE",
"102 -22 OFFCURVE",
"83 -51 CURVE SMOOTH",
"63 -80 OFFCURVE",
"40 -109 OFFCURVE",
"12 -130 CURVE",
"-19 -130 LINE",
"38 -81 OFFCURVE",
"68 -30 OFFCURVE",
"81 9 CURVE",
"58 10 OFFCURVE",
"53 20 OFFCURVE",
"53 32 CURVE SMOOTH",
"53 39 OFFCURVE",
"55 48 OFFCURVE",
"56 53 CURVE",
"60 68 OFFCURVE",
"67 82 OFFCURVE",
"94 82 CURVE SMOOTH"
);
},
{
closed = 1;
nodes = (
"284 82 OFFCURVE",
"292 71 OFFCURVE",
"292 58 CURVE SMOOTH",
"292 51 OFFCURVE",
"290 43 OFFCURVE",
"289 36 CURVE",
"282 9 OFFCURVE",
"269 -22 OFFCURVE",
"250 -51 CURVE SMOOTH",
"230 -80 OFFCURVE",
"207 -109 OFFCURVE",
"179 -130 CURVE",
"148 -130 LINE",
"205 -81 OFFCURVE",
"235 -30 OFFCURVE",
"248 9 CURVE",
"225 10 OFFCURVE",
"220 20 OFFCURVE",
"220 32 CURVE SMOOTH",
"220 39 OFFCURVE",
"222 48 OFFCURVE",
"223 53 CURVE",
"227 68 OFFCURVE",
"234 82 OFFCURVE",
"261 82 CURVE SMOOTH"
);
}
);
width = 417;
}
);
leftKerningGroup = period;
rightKerningGroup = period;
unicode = 201E;
},
{
glyphname = guilsinglleft;
layers = (
{
layerId = "F5C437A1-5BE8-4656-AC88-288CA2D4AAEB";
name = "Light Italic";
paths = (
{
closed = 1;
nodes = (
"200 99 LINE",
"40 276 LINE",
"46 309 LINE",
"276 483 LINE",
"284 456 LINE",
"78 288 LINE",
"216 121 LINE"
);
}
);
width = 289;
}
);
leftKerningGroup = guilsinglleft;
rightKerningGroup = guilsinglleft;
unicode = 2039;
},
{
glyphname = guilsinglright;
layers = (
{
layerId = "F5C437A1-5BE8-4656-AC88-288CA2D4AAEB";
name = "Light Italic";
paths = (
{
closed = 1;
nodes = (
"17 126 LINE",
"223 294 LINE",
"85 462 LINE",
"102 483 LINE",
"262 307 LINE",
"255 274 LINE",
"25 99 LINE"
);
}
);
width = 289;
}
);
leftKerningGroup = guilsinglright;
rightKerningGroup = guilsinglright;
unicode = 203A;
},
{
glyphname = guillemotleft;
layers = (
{
layerId = "F5C437A1-5BE8-4656-AC88-288CA2D4AAEB";
name = "Light Italic";
paths = (
{
closed = 1;
nodes = (
"200 99 LINE",
"40 276 LINE",
"46 309 LINE",
"276 483 LINE",
"284 456 LINE",
"78 288 LINE",
"216 121 LINE"
);
},
{
closed = 1;
nodes = (
"382 99 LINE",
"222 276 LINE",
"228 309 LINE",
"458 483 LINE",
"466 456 LINE",
"260 288 LINE",
"398 121 LINE"
);
}
);
width = 472;
}
);
leftKerningGroup = guilsinglleft;
rightKerningGroup = guilsinglleft;
unicode = 00AB;
},
{
glyphname = guillemotright;
layers = (
{
layerId = "F5C437A1-5BE8-4656-AC88-288CA2D4AAEB";
name = "Light Italic";
paths = (
{
closed = 1;
nodes = (
"199 126 LINE",
"405 294 LINE",
"267 462 LINE",
"284 483 LINE",
"444 307 LINE",
"437 274 LINE",
"207 99 LINE"
);
},
{
closed = 1;
nodes = (
"17 126 LINE",
"223 294 LINE",
"85 462 LINE",
"102 483 LINE",
"262 307 LINE",
"255 274 LINE",
"25 99 LINE"
);
}
);
width = 472;
}
);
leftKerningGroup = guilsinglright;
rightKerningGroup = guilsinglright;
unicode = 00BB;
},
{
glyphname = exclamdown;
layers = (
{
layerId = "F5C437A1-5BE8-4656-AC88-288CA2D4AAEB";
name = "Light Italic";
paths = (
{
closed = 1;
nodes = (
"19 -190 LINE",
"71 74 LINE",
"132 330 LINE",
"150 330 LINE",
"108 74 LINE",
"56 -190 LINE"
);
},
{
closed = 1;
nodes = (
"142 440 OFFCURVE",
"134 451 OFFCURVE",
"134 464 CURVE SMOOTH",
"134 471 OFFCURVE",
"136 481 OFFCURVE",
"137 486 CURVE SMOOTH",
"140 501 OFFCURVE",
"148 515 OFFCURVE",
"175 515 CURVE SMOOTH",
"198 515 OFFCURVE",
"206 504 OFFCURVE",
"206 491 CURVE SMOOTH",
"206 484 OFFCURVE",
"204 474 OFFCURVE",
"203 469 CURVE SMOOTH",
"200 454 OFFCURVE",
"192 440 OFFCURVE",
"165 440 CURVE SMOOTH"
);
}
);
width = 253;
}
);
leftKerningGroup = exclamdown;
rightKerningGroup = exclamdown;
unicode = 00A1;
},
{
glyphname = exclam;
layers = (
{
layerId = "F5C437A1-5BE8-4656-AC88-288CA2D4AAEB";
name = "Light Italic";
paths = (
{
closed = 1;
nodes = (
"102 178 LINE",
"144 434 LINE",
"196 698 LINE",
"233 698 LINE",
"181 434 LINE",
"120 178 LINE"
);
},
{
closed = 1;
nodes = (
"54 -7 OFFCURVE",
"46 4 OFFCURVE",
"46 17 CURVE SMOOTH",
"46 24 OFFCURVE",
"48 34 OFFCURVE",
"49 39 CURVE SMOOTH",
"52 54 OFFCURVE",
"60 68 OFFCURVE",
"87 68 CURVE SMOOTH",
"110 68 OFFCURVE",
"118 57 OFFCURVE",
"118 44 CURVE SMOOTH",
"118 37 OFFCURVE",
"116 27 OFFCURVE",
"115 22 CURVE SMOOTH",
"112 7 OFFCURVE",
"104 -7 OFFCURVE",
"77 -7 CURVE SMOOTH"
);
}
);
width = 253;
}
);
leftKerningGroup = exclam;
unicode = 0021;
},
{
glyphname = questiondown;
layers = (
{
layerId = "F5C437A1-5BE8-4656-AC88-288CA2D4AAEB";
name = "Light Italic";
paths = (
{
closed = 1;
nodes = (
"54 -202 OFFCURVE",
"-12 -141 OFFCURVE",
"-12 -45 CURVE SMOOTH",
"-12 78 OFFCURVE",
"63 164 OFFCURVE",
"222 181 CURVE",
"250 324 LINE",
"284 324 LINE",
"251 153 LINE",
"117 144 OFFCURVE",
"43 93 OFFCURVE",
"29 0 CURVE",
"26 -12 OFFCURVE",
"24 -33 OFFCURVE",
"24 -44 CURVE SMOOTH",
"24 -123 OFFCURVE",
"73 -170 OFFCURVE",
"162 -170 CURVE SMOOTH",
"257 -170 OFFCURVE",
"306 -119 OFFCURVE",
"341 -38 CURVE",
"371 -49 LINE",
"334 -142 OFFCURVE",
"270 -202 OFFCURVE",
"159 -202 CURVE SMOOTH"
);
},
{
closed = 1;
nodes = (
"269 440 OFFCURVE",
"261 451 OFFCURVE",
"261 464 CURVE SMOOTH",
"261 471 OFFCURVE",
"263 481 OFFCURVE",
"264 486 CURVE SMOOTH",
"267 501 OFFCURVE",
"275 515 OFFCURVE",
"302 515 CURVE SMOOTH",
"325 515 OFFCURVE",
"333 504 OFFCURVE",
"333 491 CURVE SMOOTH",
"333 484 OFFCURVE",
"331 474 OFFCURVE",
"330 469 CURVE SMOOTH",
"327 454 OFFCURVE",
"319 440 OFFCURVE",
"292 440 CURVE SMOOTH"
);
}
);
width = 457;
}
);
leftKerningGroup = questiondown;
rightKerningGroup = questiondown;
unicode = 00BF;
},
{
glyphname = question;
layers = (
{
layerId = "F5C437A1-5BE8-4656-AC88-288CA2D4AAEB";
name = "Light Italic";
paths = (
{
closed = 1;
nodes = (
"177 184 LINE",
"210 355 LINE",
"344 364 OFFCURVE",
"418 415 OFFCURVE",
"432 508 CURVE",
"435 520 OFFCURVE",
"437 541 OFFCURVE",
"437 552 CURVE SMOOTH",
"437 631 OFFCURVE",
"388 678 OFFCURVE",
"299 678 CURVE SMOOTH",
"204 678 OFFCURVE",
"155 627 OFFCURVE",
"120 546 CURVE",
"90 557 LINE",
"127 650 OFFCURVE",
"191 710 OFFCURVE",
"302 710 CURVE SMOOTH",
"407 710 OFFCURVE",
"473 649 OFFCURVE",
"473 553 CURVE SMOOTH",
"473 430 OFFCURVE",
"398 344 OFFCURVE",
"239 327 CURVE",
"211 184 LINE"
);
},
{
closed = 1;
nodes = (
"136 -7 OFFCURVE",
"128 4 OFFCURVE",
"128 17 CURVE SMOOTH",
"128 24 OFFCURVE",
"130 34 OFFCURVE",
"131 39 CURVE SMOOTH",
"134 54 OFFCURVE",
"142 68 OFFCURVE",
"169 68 CURVE SMOOTH",
"192 68 OFFCURVE",
"200 57 OFFCURVE",
"200 44 CURVE SMOOTH",
"200 37 OFFCURVE",
"198 27 OFFCURVE",
"197 22 CURVE SMOOTH",
"194 7 OFFCURVE",
"186 -7 OFFCURVE",
"159 -7 CURVE SMOOTH"
);
}
);
width = 457;
}
);
leftKerningGroup = question;
rightKerningGroup = question;
unicode = 003F;
},
{
glyphname = parenleft;
layers = (
{
layerId = "F5C437A1-5BE8-4656-AC88-288CA2D4AAEB";
name = "Light Italic";
paths = (
{
closed = 1;
nodes = (
"100 337 OFFCURVE",
"131 446 OFFCURVE",
"180 539 CURVE SMOOTH",
"228 631 OFFCURVE",
"295 708 OFFCURVE",
"367 760 CURVE",
"405 760 LINE",
"342 715 OFFCURVE",
"284 654 OFFCURVE",
"240 585 CURVE SMOOTH",
"195 516 OFFCURVE",
"162 437 OFFCURVE",
"147 357 CURVE SMOOTH",
"139 311 LINE",
"132 280 OFFCURVE",
"131 253 OFFCURVE",
"131 222 CURVE SMOOTH",
"131 78 OFFCURVE",
"167 -41 OFFCURVE",
"247 -138 CURVE",
"215 -138 LINE",
"147 -54 OFFCURVE",
"100 71 OFFCURVE",
"100 224 CURVE SMOOTH"
);
}
);
width = 330;
}
);
rightKerningGroup = parenleft;
unicode = 0028;
},
{
glyphname = parenright;
layers = (
{
layerId = "F5C437A1-5BE8-4656-AC88-288CA2D4AAEB";
name = "Light Italic";
paths = (
{
closed = 1;
nodes = (
"249 285 OFFCURVE",
"218 176 OFFCURVE",
"170 84 CURVE SMOOTH",
"121 -9 OFFCURVE",
"54 -86 OFFCURVE",
"-18 -138 CURVE",
"-55 -138 LINE",
"8 -93 OFFCURVE",
"65 -31 OFFCURVE",
"110 38 CURVE SMOOTH",
"154 107 OFFCURVE",
"187 185 OFFCURVE",
"202 265 CURVE SMOOTH",
"211 312 LINE SMOOTH",
"216 343 OFFCURVE",
"218 369 OFFCURVE",
"218 400 CURVE SMOOTH",
"218 544 OFFCURVE",
"182 663 OFFCURVE",
"103 760 CURVE",
"135 760 LINE",
"203 676 OFFCURVE",
"249 553 OFFCURVE",
"249 398 CURVE SMOOTH"
);
}
);
width = 330;
}
);
leftKerningGroup = parenright;
unicode = 0029;
},
{
glyphname = bracketleft;
layers = (
{
layerId = "F5C437A1-5BE8-4656-AC88-288CA2D4AAEB";
name = "Light Italic";
paths = (
{
closed = 1;
nodes = (
"27 -138 LINE",
"207 760 LINE",
"340 760 LINE",
"333 732 LINE",
"233 732 LINE",
"65 -110 LINE",
"165 -110 LINE",
"159 -138 LINE"
);
}
);
width = 306;
}
);
rightKerningGroup = bracketleft;
unicode = 005B;
},
{
glyphname = bracketright;
layers = (
{
layerId = "F5C437A1-5BE8-4656-AC88-288CA2D4AAEB";
name = "Light Italic";
paths = (
{
closed = 1;
nodes = (
"301 760 LINE",
"121 -138 LINE",
"-11 -138 LINE",
"-5 -110 LINE",
"95 -110 LINE",
"264 732 LINE",
"163 732 LINE",
"169 760 LINE"
);
}
);
width = 306;
}
);
leftKerningGroup = bracketright;
unicode = 005D;
},
{
glyphname = braceleft;
layers = (
{
layerId = "F5C437A1-5BE8-4656-AC88-288CA2D4AAEB";
name = "Light Italic";
paths = (
{
closed = 1;
nodes = (
"81 -138 LINE SMOOTH",
"60 -138 OFFCURVE",
"50 -129 OFFCURVE",
"50 -110 CURVE SMOOTH",
"50 -107 OFFCURVE",
"51 -98 OFFCURVE",
"54 -85 CURVE SMOOTH",
"110 196 LINE SMOOTH",
"112 206 OFFCURVE",
"113 215 OFFCURVE",
"113 223 CURVE SMOOTH",
"113 268 OFFCURVE",
"83 283 OFFCURVE",
"32 283 CURVE",
"44 339 LINE",
"108 339 OFFCURVE",
"145 370 OFFCURVE",
"156 426 CURVE SMOOTH",
"215 720 LINE SMOOTH",
"220 747 OFFCURVE",
"234 760 OFFCURVE",
"259 760 CURVE SMOOTH",
"356 760 LINE",
"350 731 LINE",
"249 731 LINE",
"188 427 LINE SMOOTH",
"175 362 OFFCURVE",
"134 321 OFFCURVE",
"69 318 CURVE",
"65 302 LINE",
"116 299 OFFCURVE",
"145 274 OFFCURVE",
"145 225 CURVE SMOOTH",
"145 216 OFFCURVE",
"144 206 OFFCURVE",
"142 195 CURVE SMOOTH",
"81 -109 LINE",
"183 -109 LINE",
"176 -138 LINE"
);
}
);
width = 319;
}
);
rightKerningGroup = bracketleft;
unicode = 007B;
},
{
glyphname = braceright;
layers = (
{
layerId = "F5C437A1-5BE8-4656-AC88-288CA2D4AAEB";
name = "Light Italic";
paths = (
{
closed = 1;
nodes = (
"-8 -109 LINE",
"93 -109 LINE",
"154 195 LINE SMOOTH",
"166 260 OFFCURVE",
"208 300 OFFCURVE",
"272 303 CURVE",
"276 319 LINE",
"225 322 OFFCURVE",
"197 348 OFFCURVE",
"197 397 CURVE SMOOTH",
"197 406 OFFCURVE",
"198 416 OFFCURVE",
"200 427 CURVE SMOOTH",
"261 731 LINE",
"159 731 LINE",
"165 760 LINE",
"260 760 LINE SMOOTH",
"281 760 OFFCURVE",
"292 751 OFFCURVE",
"292 732 CURVE SMOOTH",
"292 729 OFFCURVE",
"291 720 OFFCURVE",
"288 707 CURVE SMOOTH",
"231 426 LINE SMOOTH",
"229 416 OFFCURVE",
"228 407 OFFCURVE",
"228 399 CURVE SMOOTH",
"228 354 OFFCURVE",
"260 339 OFFCURVE",
"309 339 CURVE",
"298 283 LINE",
"234 283 OFFCURVE",
"197 252 OFFCURVE",
"186 196 CURVE SMOOTH",
"126 -98 LINE SMOOTH",
"121 -125 OFFCURVE",
"107 -138 OFFCURVE",
"83 -138 CURVE SMOOTH",
"-14 -138 LINE"
);
}
);
width = 319;
}
);
leftKerningGroup = bracketright;
unicode = 007D;
},
{
glyphname = slash;
layers = (
{
layerId = "F5C437A1-5BE8-4656-AC88-288CA2D4AAEB";
name = "Light Italic";
paths = (
{
closed = 1;
nodes = (
"-75 -151 LINE",
"352 740 LINE",
"384 740 LINE",
"-43 -151 LINE"
);
}
);
width = 319;
}
);
leftKerningGroup = slash;
rightKerningGroup = slash;
unicode = 002F;
},
{
glyphname = backslash;
layers = (
{
layerId = "F5C437A1-5BE8-4656-AC88-288CA2D4AAEB";
name = "Light Italic";
paths = (
{
closed = 1;
nodes = (
"202 -151 LINE",
"130 740 LINE",
"160 740 LINE",
"232 -151 LINE"
);
}
);
width = 319;
}
);
unicode = 005C;
},
{
glyphname = fraction;
layers = (
{
layerId = "F5C437A1-5BE8-4656-AC88-288CA2D4AAEB";
name = "Light Italic";
paths = (
{
closed = 1;
nodes = (
"-224 0 LINE",
"382 698 LINE",
"416 698 LINE",
"-190 0 LINE"
);
}
);
width = 149;
}
);
unicode = 2044;
},
{
glyphname = percent;
layers = (
{
layerId = "F5C437A1-5BE8-4656-AC88-288CA2D4AAEB";
name = "Light Italic";
paths = (
{
closed = 1;
nodes = (
"140 0 LINE",
"745 698 LINE",
"782 698 LINE",
"177 0 LINE"
);
},
{
closed = 1;
nodes = (
"161 324 OFFCURVE",
"119 381 OFFCURVE",
"119 458 CURVE SMOOTH",
"119 513 OFFCURVE",
"131 576 OFFCURVE",
"159 625 CURVE SMOOTH",
"187 674 OFFCURVE",
"232 710 OFFCURVE",
"299 710 CURVE SMOOTH",
"375 710 OFFCURVE",
"417 653 OFFCURVE",
"417 576 CURVE SMOOTH",
"417 521 OFFCURVE",
"405 458 OFFCURVE",
"377 409 CURVE SMOOTH",
"349 360 OFFCURVE",
"304 324 OFFCURVE",
"237 324 CURVE SMOOTH"
);
},
{
closed = 1;
nodes = (
"311 349 OFFCURVE",
"355 400 OFFCURVE",
"374 492 CURVE SMOOTH",
"383 533 LINE SMOOTH",
"386 548 OFFCURVE",
"387 564 OFFCURVE",
"387 579 CURVE SMOOTH",
"387 639 OFFCURVE",
"360 685 OFFCURVE",
"297 685 CURVE SMOOTH",
"225 685 OFFCURVE",
"181 634 OFFCURVE",
"162 542 CURVE SMOOTH",
"153 501 LINE SMOOTH",
"150 486 OFFCURVE",
"149 470 OFFCURVE",
"149 455 CURVE SMOOTH",
"149 395 OFFCURVE",
"176 349 OFFCURVE",
"239 349 CURVE SMOOTH"
);
},
{
closed = 1;
nodes = (
"546 -12 OFFCURVE",
"503 44 OFFCURVE",
"503 123 CURVE SMOOTH",
"503 178 OFFCURVE",
"515 241 OFFCURVE",
"544 290 CURVE SMOOTH",
"572 338 OFFCURVE",
"617 374 OFFCURVE",
"684 374 CURVE SMOOTH",
"760 374 OFFCURVE",
"802 318 OFFCURVE",
"802 239 CURVE SMOOTH",
"802 184 OFFCURVE",
"790 121 OFFCURVE",
"762 73 CURVE SMOOTH",
"734 24 OFFCURVE",
"689 -12 OFFCURVE",
"622 -12 CURVE SMOOTH"
);
},
{
closed = 1;
nodes = (
"696 13 OFFCURVE",
"740 64 OFFCURVE",
"759 156 CURVE SMOOTH",
"768 197 LINE SMOOTH",
"771 212 OFFCURVE",
"772 228 OFFCURVE",
"772 243 CURVE SMOOTH",
"772 303 OFFCURVE",
"743 349 OFFCURVE",
"682 349 CURVE SMOOTH",
"610 349 OFFCURVE",
"565 298 OFFCURVE",
"546 207 CURVE SMOOTH",
"538 165 LINE SMOOTH",
"535 150 OFFCURVE",
"534 134 OFFCURVE",
"534 119 CURVE SMOOTH",
"534 59 OFFCURVE",
"561 13 OFFCURVE",
"624 13 CURVE SMOOTH"
);
}
);
width = 887;
}
);
rightKerningGroup = percent;
unicode = 0025;
},
{
glyphname = perthousand;
layers = (
{
layerId = "F5C437A1-5BE8-4656-AC88-288CA2D4AAEB";
name = "Light Italic";
paths = (
{
closed = 1;
nodes = (
"140 0 LINE",
"745 698 LINE",
"782 698 LINE",
"177 0 LINE"
);
},
{
closed = 1;
nodes = (
"161 324 OFFCURVE",
"119 380 OFFCURVE",
"119 459 CURVE SMOOTH",
"119 514 OFFCURVE",
"131 577 OFFCURVE",
"159 626 CURVE SMOOTH",
"187 674 OFFCURVE",
"232 710 OFFCURVE",
"299 710 CURVE SMOOTH",
"375 710 OFFCURVE",
"417 653 OFFCURVE",
"417 576 CURVE SMOOTH",
"417 521 OFFCURVE",
"405 458 OFFCURVE",
"377 409 CURVE SMOOTH",
"349 360 OFFCURVE",
"304 324 OFFCURVE",
"237 324 CURVE SMOOTH"
);
},
{
closed = 1;
nodes = (
"311 349 OFFCURVE",
"355 400 OFFCURVE",
"374 492 CURVE SMOOTH",
"383 533 LINE SMOOTH",
"386 548 OFFCURVE",
"387 564 OFFCURVE",
"387 579 CURVE SMOOTH",
"387 639 OFFCURVE",
"360 685 OFFCURVE",
"297 685 CURVE SMOOTH",
"225 685 OFFCURVE",
"181 634 OFFCURVE",
"162 543 CURVE SMOOTH",
"153 501 LINE SMOOTH",
"150 486 OFFCURVE",
"149 470 OFFCURVE",
"149 455 CURVE SMOOTH",
"149 395 OFFCURVE",
"176 349 OFFCURVE",
"239 349 CURVE SMOOTH"
);
},
{
closed = 1;
nodes = (
"546 -12 OFFCURVE",
"503 44 OFFCURVE",
"503 123 CURVE SMOOTH",
"503 178 OFFCURVE",
"515 241 OFFCURVE",
"544 290 CURVE SMOOTH",
"572 338 OFFCURVE",
"617 374 OFFCURVE",
"684 374 CURVE SMOOTH",
"760 374 OFFCURVE",
"802 318 OFFCURVE",
"802 239 CURVE SMOOTH",
"802 184 OFFCURVE",
"790 121 OFFCURVE",
"762 73 CURVE SMOOTH",
"734 24 OFFCURVE",
"689 -12 OFFCURVE",
"622 -12 CURVE SMOOTH"
);
},
{
closed = 1;
nodes = (
"696 13 OFFCURVE",
"740 64 OFFCURVE",
"759 156 CURVE SMOOTH",
"768 197 LINE SMOOTH",
"771 212 OFFCURVE",
"772 228 OFFCURVE",
"772 243 CURVE SMOOTH",
"772 303 OFFCURVE",
"743 349 OFFCURVE",
"682 349 CURVE SMOOTH",
"610 349 OFFCURVE",
"565 298 OFFCURVE",
"546 207 CURVE SMOOTH",
"538 165 LINE SMOOTH",
"535 150 OFFCURVE",
"534 134 OFFCURVE",
"534 119 CURVE SMOOTH",
"534 59 OFFCURVE",
"561 13 OFFCURVE",
"624 13 CURVE SMOOTH"
);
},
{
closed = 1;
nodes = (
"898 -12 OFFCURVE",
"856 44 OFFCURVE",
"856 123 CURVE SMOOTH",
"856 178 OFFCURVE",
"868 241 OFFCURVE",
"897 290 CURVE SMOOTH",
"925 338 OFFCURVE",
"970 374 OFFCURVE",
"1037 374 CURVE SMOOTH",
"1113 374 OFFCURVE",
"1155 318 OFFCURVE",
"1155 239 CURVE SMOOTH",
"1155 184 OFFCURVE",
"1143 121 OFFCURVE",
"1115 73 CURVE SMOOTH",
"1086 24 OFFCURVE",
"1041 -12 OFFCURVE",
"974 -12 CURVE SMOOTH"
);
},
{
closed = 1;
nodes = (
"1048 13 OFFCURVE",
"1093 64 OFFCURVE",
"1112 156 CURVE SMOOTH",
"1121 197 LINE SMOOTH",
"1124 212 OFFCURVE",
"1125 228 OFFCURVE",
"1125 243 CURVE SMOOTH",
"1125 303 OFFCURVE",
"1096 349 OFFCURVE",
"1035 349 CURVE SMOOTH",
"963 349 OFFCURVE",
"918 298 OFFCURVE",
"899 207 CURVE SMOOTH",
"890 165 LINE SMOOTH",
"887 150 OFFCURVE",
"886 134 OFFCURVE",
"886 119 CURVE SMOOTH",
"886 59 OFFCURVE",
"914 13 OFFCURVE",
"977 13 CURVE SMOOTH"
);
}
);
width = 1240;
}
);
rightKerningGroup = perthousand;
unicode = 2030;
},
{
glyphname = bar;
layers = (
{
layerId = "F5C437A1-5BE8-4656-AC88-288CA2D4AAEB";
name = "Light Italic";
paths = (
{
closed = 1;
nodes = (
"31 -138 LINE",
"211 760 LINE",
"241 760 LINE",
"61 -138 LINE"
);
}
);
width = 249;
}
);
unicode = 007C;
},
{
glyphname = brokenbar;
layers = (
{
layerId = "F5C437A1-5BE8-4656-AC88-288CA2D4AAEB";
name = "Light Italic";
paths = (
{
closed = 1;
nodes = (
"139 402 LINE",
"211 760 LINE",
"241 760 LINE",
"169 402 LINE"
);
},
{
closed = 1;
nodes = (
"31 -138 LINE",
"103 220 LINE",
"133 220 LINE",
"61 -138 LINE"
);
}
);
width = 249;
}
);
unicode = 00A6;
},
{
glyphname = section;
layers = (
{
layerId = "F5C437A1-5BE8-4656-AC88-288CA2D4AAEB";
name = "Light Italic";
paths = (
{
closed = 1;
nodes = (
"393 -44 OFFCURVE",
"373 -84 OFFCURVE",
"339 -112 CURVE SMOOTH",
"305 -140 OFFCURVE",
"255 -154 OFFCURVE",
"199 -154 CURVE SMOOTH",
"131 -154 OFFCURVE",
"82 -135 OFFCURVE",
"47 -100 CURVE",
"71 -76 LINE",
"102 -107 OFFCURVE",
"143 -124 OFFCURVE",
"202 -124 CURVE SMOOTH",
"295 -124 OFFCURVE",
"359 -78 OFFCURVE",
"359 6 CURVE SMOOTH",
"359 66 OFFCURVE",
"327 99 OFFCURVE",
"267 118 CURVE SMOOTH",
"195 142 LINE SMOOTH",
"119 169 OFFCURVE",
"84 200 OFFCURVE",
"84 268 CURVE SMOOTH",
"84 352 OFFCURVE",
"141 401 OFFCURVE",
"229 428 CURVE",
"229 432 LINE",
"190 458 OFFCURVE",
"171 497 OFFCURVE",
"171 548 CURVE SMOOTH",
"171 600 OFFCURVE",
"191 640 OFFCURVE",
"226 668 CURVE SMOOTH",
"261 696 OFFCURVE",
"309 710 OFFCURVE",
"365 710 CURVE SMOOTH",
"433 710 OFFCURVE",
"482 689 OFFCURVE",
"517 656 CURVE",
"493 632 LINE",
"462 663 OFFCURVE",
"421 679 OFFCURVE",
"362 679 CURVE SMOOTH",
"269 679 OFFCURVE",
"205 634 OFFCURVE",
"205 550 CURVE SMOOTH",
"205 489 OFFCURVE",
"237 457 OFFCURVE",
"297 437 CURVE SMOOTH",
"369 413 LINE SMOOTH",
"445 388 OFFCURVE",
"480 355 OFFCURVE",
"480 287 CURVE SMOOTH",
"480 204 OFFCURVE",
"423 153 OFFCURVE",
"335 128 CURVE",
"334 124 LINE",
"375 97 OFFCURVE",
"393 59 OFFCURVE",
"393 8 CURVE SMOOTH"
);
},
{
closed = 1;
nodes = (
"445 338 OFFCURVE",
"419 364 OFFCURVE",
"351 387 CURVE SMOOTH",
"278 411 LINE",
"269 413 OFFCURVE",
"260 416 OFFCURVE",
"252 420 CURVE",
"169 391 OFFCURVE",
"119 347 OFFCURVE",
"119 275 CURVE SMOOTH",
"119 218 OFFCURVE",
"144 192 OFFCURVE",
"213 169 CURVE SMOOTH",
"286 145 LINE",
"291 144 OFFCURVE",
"295 142 OFFCURVE",
"300 141 CURVE",
"304 139 OFFCURVE",
"308 137 OFFCURVE",
"312 136 CURVE",
"395 165 OFFCURVE",
"445 209 OFFCURVE",
"445 281 CURVE SMOOTH"
);
}
);
width = 562;
}
);
unicode = 00A7;
},
{
glyphname = paragraph;
layers = (
{
layerId = "F5C437A1-5BE8-4656-AC88-288CA2D4AAEB";
name = "Light Italic";
paths = (
{
closed = 1;
nodes = (
"261 323 LINE",
"214 323 OFFCURVE",
"174 339 OFFCURVE",
"145 367 CURVE SMOOTH",
"116 395 OFFCURVE",
"98 435 OFFCURVE",
"98 483 CURVE SMOOTH",
"98 548 OFFCURVE",
"124 603 OFFCURVE",
"168 640 CURVE SMOOTH",
"212 677 OFFCURVE",
"273 698 OFFCURVE",
"344 698 CURVE SMOOTH",
"595 698 LINE",
"589 669 LINE",
"521 669 LINE",
"357 -149 LINE",
"325 -149 LINE",
"488 669 LINE",
"363 669 LINE",
"199 -149 LINE",
"166 -149 LINE"
);
}
);
width = 599;
}
);
unicode = 00B6;
},
{
glyphname = copyright;
layers = (
{
layerId = "F5C437A1-5BE8-4656-AC88-288CA2D4AAEB";
name = "Light Italic";
paths = (
{
closed = 1;
nodes = (
"240 -12 OFFCURVE",
"169 17 OFFCURVE",
"119 69 CURVE SMOOTH",
"69 120 OFFCURVE",
"40 194 OFFCURVE",
"40 285 CURVE SMOOTH",
"40 410 OFFCURVE",
"82 516 OFFCURVE",
"151 592 CURVE SMOOTH",
"219 667 OFFCURVE",
"314 710 OFFCURVE",
"421 710 CURVE SMOOTH",
"508 710 OFFCURVE",
"580 681 OFFCURVE",
"630 629 CURVE SMOOTH",
"680 577 OFFCURVE",
"708 503 OFFCURVE",
"708 412 CURVE SMOOTH",
"708 287 OFFCURVE",
"666 181 OFFCURVE",
"598 106 CURVE SMOOTH",
"529 31 OFFCURVE",
"434 -12 OFFCURVE",
"327 -12 CURVE SMOOTH"
);
},
{
closed = 1;
nodes = (
"415 15 OFFCURVE",
"491 46 OFFCURVE",
"549 98 CURVE SMOOTH",
"607 149 OFFCURVE",
"646 219 OFFCURVE",
"662 295 CURVE SMOOTH",
"674 358 OFFCURVE",
"677 385 OFFCURVE",
"677 412 CURVE SMOOTH",
"677 492 OFFCURVE",
"653 559 OFFCURVE",
"609 607 CURVE SMOOTH",
"565 655 OFFCURVE",
"501 682 OFFCURVE",
"420 682 CURVE SMOOTH",
"333 682 OFFCURVE",
"257 651 OFFCURVE",
"200 600 CURVE SMOOTH",
"143 549 OFFCURVE",
"102 479 OFFCURVE",
"86 402 CURVE SMOOTH",
"74 342 OFFCURVE",
"71 312 OFFCURVE",
"71 285 CURVE SMOOTH",
"71 205 OFFCURVE",
"95 138 OFFCURVE",
"139 91 CURVE SMOOTH",
"183 43 OFFCURVE",
"247 15 OFFCURVE",
"328 15 CURVE SMOOTH"
);
},
{
closed = 1;
nodes = (
"271 150 OFFCURVE",
"216 202 OFFCURVE",
"216 301 CURVE SMOOTH",
"216 372 OFFCURVE",
"236 432 OFFCURVE",
"270 475 CURVE SMOOTH",
"304 518 OFFCURVE",
"351 543 OFFCURVE",
"407 543 CURVE SMOOTH",
"471 543 OFFCURVE",
"511 504 OFFCURVE",
"526 460 CURVE",
"499 450 LINE",
"484 489 OFFCURVE",
"457 516 OFFCURVE",
"405 516 CURVE SMOOTH",
"333 516 OFFCURVE",
"277 466 OFFCURVE",
"258 371 CURVE SMOOTH",
"252 341 LINE",
"250 324 OFFCURVE",
"249 310 OFFCURVE",
"249 299 CURVE SMOOTH",
"249 224 OFFCURVE",
"286 179 OFFCURVE",
"351 179 CURVE SMOOTH",
"398 179 OFFCURVE",
"436 204 OFFCURVE",
"463 248 CURVE",
"486 233 LINE",
"459 188 OFFCURVE",
"409 150 OFFCURVE",
"348 150 CURVE SMOOTH"
);
}
);
width = 721;
}
);
leftKerningGroup = copyright;
unicode = 00A9;
},
{
glyphname = registered;
layers = (
{
layerId = "F5C437A1-5BE8-4656-AC88-288CA2D4AAEB";
name = "Light Italic";
paths = (
{
closed = 1;
nodes = (
"203 298 OFFCURVE",
"160 316 OFFCURVE",
"130 345 CURVE SMOOTH",
"100 374 OFFCURVE",
"82 417 OFFCURVE",
"82 466 CURVE SMOOTH",
"82 521 OFFCURVE",
"100 581 OFFCURVE",
"137 629 CURVE SMOOTH",
"173 676 OFFCURVE",
"231 710 OFFCURVE",
"311 710 CURVE SMOOTH",
"362 710 OFFCURVE",
"405 692 OFFCURVE",
"436 663 CURVE SMOOTH",
"467 634 OFFCURVE",
"484 591 OFFCURVE",
"484 542 CURVE SMOOTH",
"484 487 OFFCURVE",
"466 427 OFFCURVE",
"429 380 CURVE SMOOTH",
"392 332 OFFCURVE",
"334 298 OFFCURVE",
"254 298 CURVE SMOOTH"
);
},
{
closed = 1;
nodes = (
"309 319 OFFCURVE",
"353 337 OFFCURVE",
"386 366 CURVE SMOOTH",
"419 395 OFFCURVE",
"442 436 OFFCURVE",
"453 483 CURVE SMOOTH",
"460 514 OFFCURVE",
"460 530 OFFCURVE",
"460 541 CURVE SMOOTH",
"460 629 OFFCURVE",
"400 689 OFFCURVE",
"308 689 CURVE SMOOTH",
"256 689 OFFCURVE",
"212 671 OFFCURVE",
"179 642 CURVE SMOOTH",
"146 613 OFFCURVE",
"122 572 OFFCURVE",
"113 525 CURVE SMOOTH",
"106 494 OFFCURVE",
"105 478 OFFCURVE",
"105 467 CURVE SMOOTH",
"105 379 OFFCURVE",
"165 319 OFFCURVE",
"257 319 CURVE SMOOTH"
);
},
{
closed = 1;
nodes = (
"218 398 LINE",
"196 398 LINE",
"238 609 LINE",
"318 609 LINE SMOOTH",
"353 609 OFFCURVE",
"372 592 OFFCURVE",
"372 561 CURVE SMOOTH",
"372 516 OFFCURVE",
"345 491 OFFCURVE",
"313 488 CURVE",
"348 398 LINE",
"325 398 LINE",
"292 486 LINE",
"235 486 LINE"
);
},
{
closed = 1;
nodes = (
"296 505 LINE SMOOTH",
"324 505 OFFCURVE",
"341 512 OFFCURVE",
"346 540 CURVE SMOOTH",
"348 551 OFFCURVE",
"349 558 OFFCURVE",
"349 562 CURVE SMOOTH",
"349 581 OFFCURVE",
"337 590 OFFCURVE",
"314 590 CURVE SMOOTH",
"256 590 LINE",
"239 505 LINE"
);
}
);
width = 467;
}
);
leftKerningGroup = registered;
rightKerningGroup = registered;
unicode = 00AE;
},
{
glyphname = trademark;
layers = (
{
layerId = "F5C437A1-5BE8-4656-AC88-288CA2D4AAEB";
name = "Light Italic";
paths = (
{
closed = 1;
nodes = (
"155 427 LINE",
"205 675 LINE",
"105 675 LINE",
"110 698 LINE",
"336 698 LINE",
"331 675 LINE",
"232 675 LINE",
"181 427 LINE"
);
},
{
closed = 1;
nodes = (
"347 427 LINE",
"402 698 LINE",
"432 698 LINE",
"481 538 LINE",
"484 538 LINE",
"598 698 LINE",
"631 698 LINE",
"577 427 LINE",
"553 427 LINE",
"599 660 LINE",
"597 660 LINE",
"474 489 LINE",
"420 660 LINE",
"418 660 LINE",
"371 427 LINE"
);
}
);
width = 626;
}
);
leftKerningGroup = trademark;
rightKerningGroup = trademark;
unicode = 2122;
},
{
glyphname = ordfeminine;
layers = (
{
layerId = "F5C437A1-5BE8-4656-AC88-288CA2D4AAEB";
name = "Light Italic";
paths = (
{
closed = 1;
nodes = (
"355 370 LINE",
"311 370 LINE SMOOTH",
"295 370 OFFCURVE",
"287 376 OFFCURVE",
"287 388 CURVE",
"287 388 OFFCURVE",
"288 392 OFFCURVE",
"289 400 CURVE",
"293 419 LINE",
"291 419 LINE",
"270 391 OFFCURVE",
"231 363 OFFCURVE",
"170 363 CURVE SMOOTH",
"110 363 OFFCURVE",
"77 393 OFFCURVE",
"77 440 CURVE SMOOTH",
"77 503 OFFCURVE",
"118 549 OFFCURVE",
"227 549 CURVE SMOOTH",
"318 549 LINE",
"327 598 LINE",
"328 605 OFFCURVE",
"329 613 OFFCURVE",
"329 620 CURVE SMOOTH",
"329 667 OFFCURVE",
"302 685 OFFCURVE",
"251 685 CURVE SMOOTH",
"207 685 OFFCURVE",
"169 668 OFFCURVE",
"144 629 CURVE",
"124 643 LINE",
"151 684 OFFCURVE",
"194 710 OFFCURVE",
"254 710 CURVE SMOOTH",
"322 710 OFFCURVE",
"358 680 OFFCURVE",
"358 620 CURVE SMOOTH",
"358 613 OFFCURVE",
"358 604 OFFCURVE",
"355 596 CURVE",
"316 396 LINE",
"361 396 LINE"
);
},
{
closed = 1;
nodes = (
"223 525 LINE SMOOTH",
"186 525 OFFCURVE",
"159 519 OFFCURVE",
"142 508 CURVE SMOOTH",
"125 497 OFFCURVE",
"115 483 OFFCURVE",
"111 466 CURVE",
"108 455 OFFCURVE",
"107 446 OFFCURVE",
"107 441 CURVE SMOOTH",
"107 406 OFFCURVE",
"130 388 OFFCURVE",
"175 388 CURVE SMOOTH",
"204 388 OFFCURVE",
"233 396 OFFCURVE",
"257 410 CURVE SMOOTH",
"280 424 OFFCURVE",
"297 444 OFFCURVE",
"302 472 CURVE SMOOTH",
"313 525 LINE"
);
}
);
width = 363;
}
);
unicode = 00AA;
},
{
glyphname = ordmasculine;
layers = (
{
layerId = "F5C437A1-5BE8-4656-AC88-288CA2D4AAEB";
name = "Light Italic";
paths = (
{
closed = 1;
nodes = (
"140 363 OFFCURVE",
"95 415 OFFCURVE",
"95 491 CURVE SMOOTH",
"95 546 OFFCURVE",
"110 601 OFFCURVE",
"139 642 CURVE SMOOTH",
"168 682 OFFCURVE",
"212 710 OFFCURVE",
"269 710 CURVE SMOOTH",
"340 710 OFFCURVE",
"385 658 OFFCURVE",
"385 582 CURVE SMOOTH",
"385 527 OFFCURVE",
"370 472 OFFCURVE",
"341 432 CURVE SMOOTH",
"312 391 OFFCURVE",
"268 363 OFFCURVE",
"211 363 CURVE SMOOTH"
);
},
{
closed = 1;
nodes = (
"285 388 OFFCURVE",
"329 440 OFFCURVE",
"344 511 CURVE SMOOTH",
"352 552 LINE",
"355 563 OFFCURVE",
"356 573 OFFCURVE",
"356 584 CURVE SMOOTH",
"356 641 OFFCURVE",
"329 685 OFFCURVE",
"266 685 CURVE SMOOTH",
"195 685 OFFCURVE",
"151 633 OFFCURVE",
"136 562 CURVE SMOOTH",
"128 521 LINE",
"125 510 OFFCURVE",
"124 500 OFFCURVE",
"124 489 CURVE SMOOTH",
"124 432 OFFCURVE",
"151 388 OFFCURVE",
"214 388 CURVE SMOOTH"
);
}
);
width = 370;
}
);
unicode = 00BA;
},
{
glyphname = degree;
layers = (
{
layerId = "F5C437A1-5BE8-4656-AC88-288CA2D4AAEB";
name = "Light Italic";
paths = (
{
closed = 1;
nodes = (
"228 372 OFFCURVE",
"192 387 OFFCURVE",
"167 414 CURVE SMOOTH",
"142 441 OFFCURVE",
"127 478 OFFCURVE",
"127 522 CURVE SMOOTH",
"127 577 OFFCURVE",
"147 624 OFFCURVE",
"180 657 CURVE SMOOTH",
"212 690 OFFCURVE",
"257 710 OFFCURVE",
"308 710 CURVE SMOOTH",
"349 710 OFFCURVE",
"385 695 OFFCURVE",
"410 668 CURVE SMOOTH",
"435 641 OFFCURVE",
"450 604 OFFCURVE",
"450 560 CURVE SMOOTH",
"450 505 OFFCURVE",
"430 458 OFFCURVE",
"398 425 CURVE SMOOTH",
"365 392 OFFCURVE",
"320 372 OFFCURVE",
"269 372 CURVE SMOOTH"
);
},
{
closed = 1;
nodes = (
"314 402 OFFCURVE",
"351 419 OFFCURVE",
"376 447 CURVE SMOOTH",
"401 475 OFFCURVE",
"417 514 OFFCURVE",
"417 558 CURVE SMOOTH",
"417 629 OFFCURVE",
"377 680 OFFCURVE",
"304 680 CURVE SMOOTH",
"263 680 OFFCURVE",
"226 663 OFFCURVE",
"201 635 CURVE SMOOTH",
"176 607 OFFCURVE",
"160 568 OFFCURVE",
"160 524 CURVE SMOOTH",
"160 453 OFFCURVE",
"200 402 OFFCURVE",
"273 402 CURVE SMOOTH"
);
}
);
width = 463;
}
);
unicode = 00B0;
},
{
glyphname = asterisk;
layers = (
{
layerId = "F5C437A1-5BE8-4656-AC88-288CA2D4AAEB";
name = "Light Italic";
paths = (
{
closed = 1;
nodes = (
"137 423 LINE",
"113 442 LINE",
"232 569 LINE",
"95 612 LINE",
"108 642 LINE",
"244 592 LINE",
"272 747 LINE",
"304 747 LINE",
"272 591 LINE",
"425 642 LINE",
"431 612 LINE",
"276 566 LINE",
"344 441 LINE",
"318 424 LINE",
"252 552 LINE"
);
}
);
width = 384;
}
);
leftKerningGroup = quotesingle;
rightKerningGroup = quotesingle;
unicode = 002A;
},
{
glyphname = dagger;
layers = (
{
layerId = "F5C437A1-5BE8-4656-AC88-288CA2D4AAEB";
name = "Light Italic";
paths = (
{
closed = 1;
nodes = (
"170 -200 LINE",
"306 479 LINE",
"101 479 LINE",
"107 508 LINE",
"312 508 LINE",
"359 740 LINE",
"391 740 LINE",
"344 508 LINE",
"549 508 LINE",
"543 479 LINE",
"338 479 LINE",
"202 -200 LINE"
);
}
);
width = 554;
}
);
unicode = 2020;
},
{
glyphname = daggerdbl;
layers = (
{
layerId = "F5C437A1-5BE8-4656-AC88-288CA2D4AAEB";
name = "Light Italic";
paths = (
{
closed = 1;
nodes = (
"170 -200 LINE",
"217 32 LINE",
"12 32 LINE",
"18 61 LINE",
"223 61 LINE",
"306 479 LINE",
"101 479 LINE",
"107 508 LINE",
"312 508 LINE",
"359 740 LINE",
"391 740 LINE",
"344 508 LINE",
"549 508 LINE",
"543 479 LINE",
"338 479 LINE",
"255 61 LINE",
"460 61 LINE",
"454 32 LINE",
"249 32 LINE",
"202 -200 LINE"
);
}
);
width = 554;
}
);
unicode = 2021;
},
{
glyphname = numbersign;
layers = (
{
layerId = "F5C437A1-5BE8-4656-AC88-288CA2D4AAEB";
name = "Light Italic";
paths = (
{
closed = 1;
nodes = (
"394 216 LINE",
"220 216 LINE",
"140 0 LINE",
"108 0 LINE",
"188 216 LINE",
"45 216 LINE",
"50 245 LINE",
"200 245 LINE",
"276 453 LINE",
"131 453 LINE",
"137 482 LINE",
"286 482 LINE",
"367 698 LINE",
"399 698 LINE",
"318 482 LINE",
"492 482 LINE",
"572 698 LINE",
"604 698 LINE",
"524 482 LINE",
"667 482 LINE",
"662 453 LINE",
"513 453 LINE",
"436 245 LINE",
"581 245 LINE",
"575 216 LINE",
"426 216 LINE",
"345 0 LINE",
"313 0 LINE"
);
},
{
closed = 1;
nodes = (
"404 245 LINE",
"481 453 LINE",
"308 453 LINE",
"231 245 LINE"
);
}
);
width = 703;
}
);
unicode = 0023;
},
{
glyphname = asciicircum;
layers = (
{
layerId = "F5C437A1-5BE8-4656-AC88-288CA2D4AAEB";
name = "Light Italic";
paths = (
{
closed = 1;
nodes = (
"514 316 LINE",
"378 663 LINE",
"376 663 LINE",
"101 316 LINE",
"74 332 LINE",
"363 698 LINE",
"400 698 LINE",
"542 330 LINE"
);
}
);
width = 600;
}
);
unicode = 005E;
},
{
glyphname = asciitilde;
layers = (
{
layerId = "F5C437A1-5BE8-4656-AC88-288CA2D4AAEB";
name = "Light Italic";
paths = (
{
closed = 1;
nodes = (
"402 251 OFFCURVE",
"385 254 OFFCURVE",
"367 261 CURVE SMOOTH",
"349 268 OFFCURVE",
"329 277 OFFCURVE",
"302 290 CURVE SMOOTH",
"254 314 OFFCURVE",
"229 326 OFFCURVE",
"192 326 CURVE SMOOTH",
"155 326 OFFCURVE",
"128 314 OFFCURVE",
"91 286 CURVE",
"76 308 LINE",
"115 341 OFFCURVE",
"151 357 OFFCURVE",
"198 357 CURVE SMOOTH",
"218 357 OFFCURVE",
"236 354 OFFCURVE",
"254 347 CURVE SMOOTH",
"272 340 OFFCURVE",
"291 331 OFFCURVE",
"318 318 CURVE SMOOTH",
"366 294 OFFCURVE",
"391 282 OFFCURVE",
"428 282 CURVE SMOOTH",
"465 282 OFFCURVE",
"492 294 OFFCURVE",
"529 322 CURVE",
"544 300 LINE",
"505 267 OFFCURVE",
"469 251 OFFCURVE",
"422 251 CURVE SMOOTH"
);
}
);
width = 600;
}
);
unicode = 007E;
},
{
glyphname = plus;
layers = (
{
layerId = "F5C437A1-5BE8-4656-AC88-288CA2D4AAEB";
name = "Light Italic";
paths = (
{
closed = 1;
nodes = (
"245 62 LINE",
"291 290 LINE",
"72 290 LINE",
"78 320 LINE",
"297 320 LINE",
"343 549 LINE",
"376 549 LINE",
"330 320 LINE",
"548 320 LINE",
"542 290 LINE",
"324 290 LINE",
"278 62 LINE"
);
}
);
width = 600;
}
);
unicode = 002B;
},
{
glyphname = minus;
layers = (
{
layerId = "F5C437A1-5BE8-4656-AC88-288CA2D4AAEB";
name = "Light Italic";
paths = (
{
closed = 1;
nodes = (
"72 290 LINE",
"78 320 LINE",
"548 320 LINE",
"542 290 LINE"
);
}
);
width = 600;
}
);
unicode = 2212;
},
{
glyphname = plusminus;
layers = (
{
layerId = "F5C437A1-5BE8-4656-AC88-288CA2D4AAEB";
name = "Light Italic";
paths = (
{
closed = 1;
nodes = (
"258 124 LINE",
"303 350 LINE",
"84 350 LINE",
"90 380 LINE",
"308 380 LINE",
"354 606 LINE",
"387 606 LINE",
"342 380 LINE",
"560 380 LINE",
"554 350 LINE",
"336 350 LINE",
"291 124 LINE"
);
},
{
closed = 1;
nodes = (
"14 0 LINE",
"20 30 LINE",
"490 30 LINE",
"484 0 LINE"
);
}
);
width = 600;
}
);
unicode = 00B1;
},
{
glyphname = multiply;
layers = (
{
layerId = "F5C437A1-5BE8-4656-AC88-288CA2D4AAEB";
name = "Light Italic";
paths = (
{
closed = 1;
nodes = (
"307 283 LINE",
"96 105 LINE",
"77 128 LINE",
"288 307 LINE",
"149 483 LINE",
"174 504 LINE",
"312 328 LINE",
"522 504 LINE",
"540 481 LINE",
"331 304 LINE",
"470 126 LINE",
"446 106 LINE"
);
}
);
width = 600;
}
);
unicode = 00D7;
},
{
glyphname = divide;
layers = (
{
layerId = "F5C437A1-5BE8-4656-AC88-288CA2D4AAEB";
name = "Light Italic";
paths = (
{
closed = 1;
nodes = (
"72 290 LINE",
"78 320 LINE",
"548 320 LINE",
"542 290 LINE"
);
},
{
closed = 1;
nodes = (
"243 75 OFFCURVE",
"234 86 OFFCURVE",
"234 98 CURVE SMOOTH",
"234 105 OFFCURVE",
"235 115 OFFCURVE",
"238 122 CURVE",
"241 138 OFFCURVE",
"250 150 OFFCURVE",
"277 150 CURVE SMOOTH",
"302 150 OFFCURVE",
"311 139 OFFCURVE",
"311 126 CURVE SMOOTH",
"311 121 OFFCURVE",
"310 110 OFFCURVE",
"307 103 CURVE",
"304 86 OFFCURVE",
"295 75 OFFCURVE",
"268 75 CURVE SMOOTH"
);
},
{
closed = 1;
nodes = (
"319 461 OFFCURVE",
"312 472 OFFCURVE",
"312 485 CURVE SMOOTH",
"312 492 OFFCURVE",
"314 501 OFFCURVE",
"315 508 CURVE SMOOTH",
"318 525 OFFCURVE",
"328 537 OFFCURVE",
"355 537 CURVE SMOOTH",
"379 537 OFFCURVE",
"388 526 OFFCURVE",
"388 513 CURVE SMOOTH",
"388 506 OFFCURVE",
"386 497 OFFCURVE",
"385 490 CURVE SMOOTH",
"382 473 OFFCURVE",
"373 461 OFFCURVE",
"346 461 CURVE SMOOTH"
);
}
);
width = 600;
}
);
unicode = 00F7;
},
{
glyphname = equal;
layers = (
{
layerId = "F5C437A1-5BE8-4656-AC88-288CA2D4AAEB";
name = "Light Italic";
paths = (
{
closed = 1;
nodes = (
"83 382 LINE",
"89 412 LINE",
"559 412 LINE",
"553 382 LINE"
);
},
{
closed = 1;
nodes = (
"46 199 LINE",
"52 229 LINE",
"522 229 LINE",
"516 199 LINE"
);
}
);
width = 600;
}
);
unicode = 003D;
},
{
glyphname = approxequal;
layers = (
{
layerId = "F5C437A1-5BE8-4656-AC88-288CA2D4AAEB";
name = "Light Italic";
paths = (
{
closed = 1;
nodes = (
"420 342 OFFCURVE",
"403 345 OFFCURVE",
"385 352 CURVE SMOOTH",
"367 359 OFFCURVE",
"347 368 OFFCURVE",
"320 381 CURVE SMOOTH",
"272 405 OFFCURVE",
"247 417 OFFCURVE",
"210 417 CURVE SMOOTH",
"173 417 OFFCURVE",
"146 405 OFFCURVE",
"109 377 CURVE",
"94 399 LINE",
"133 432 OFFCURVE",
"169 448 OFFCURVE",
"216 448 CURVE SMOOTH",
"236 448 OFFCURVE",
"254 445 OFFCURVE",
"272 438 CURVE SMOOTH",
"290 431 OFFCURVE",
"309 422 OFFCURVE",
"336 409 CURVE SMOOTH",
"384 385 OFFCURVE",
"409 373 OFFCURVE",
"446 373 CURVE SMOOTH",
"483 373 OFFCURVE",
"510 385 OFFCURVE",
"547 413 CURVE",
"562 391 LINE",
"523 358 OFFCURVE",
"487 342 OFFCURVE",
"440 342 CURVE SMOOTH"
);
},
{
closed = 1;
nodes = (
"379 163 OFFCURVE",
"362 166 OFFCURVE",
"344 173 CURVE SMOOTH",
"326 180 OFFCURVE",
"306 189 OFFCURVE",
"279 202 CURVE SMOOTH",
"231 226 OFFCURVE",
"206 238 OFFCURVE",
"169 238 CURVE SMOOTH",
"132 238 OFFCURVE",
"105 226 OFFCURVE",
"68 198 CURVE",
"53 220 LINE",
"92 253 OFFCURVE",
"128 269 OFFCURVE",
"175 269 CURVE SMOOTH",
"195 269 OFFCURVE",
"213 266 OFFCURVE",
"231 259 CURVE SMOOTH",
"249 252 OFFCURVE",
"268 243 OFFCURVE",
"295 230 CURVE SMOOTH",
"343 206 OFFCURVE",
"368 194 OFFCURVE",
"405 194 CURVE SMOOTH",
"442 194 OFFCURVE",
"469 206 OFFCURVE",
"506 234 CURVE",
"521 212 LINE",
"482 179 OFFCURVE",
"446 163 OFFCURVE",
"399 163 CURVE SMOOTH"
);
}
);
width = 600;
}
);
unicode = 2248;
},
{
glyphname = notequal;
layers = (
{
layerId = "F5C437A1-5BE8-4656-AC88-288CA2D4AAEB";
name = "Light Italic";
paths = (
{
closed = 1;
nodes = (
"131 87 LINE",
"210 199 LINE",
"46 199 LINE",
"52 229 LINE",
"230 229 LINE",
"341 382 LINE",
"83 382 LINE",
"89 412 LINE",
"361 412 LINE",
"440 524 LINE",
"474 524 LINE",
"395 412 LINE",
"559 412 LINE",
"553 382 LINE",
"375 382 LINE",
"264 229 LINE",
"522 229 LINE",
"516 199 LINE",
"244 199 LINE",
"165 87 LINE"
);
}
);
width = 600;
}
);
unicode = 2260;
},
{
glyphname = less;
layers = (
{
layerId = "F5C437A1-5BE8-4656-AC88-288CA2D4AAEB";
name = "Light Italic";
paths = (
{
closed = 1;
nodes = (
"96 283 LINE",
"102 315 LINE",
"577 571 LINE",
"570 531 LINE",
"134 299 LINE",
"133 295 LINE",
"476 61 LINE",
"469 26 LINE"
);
}
);
width = 600;
}
);
unicode = 003C;
},
{
glyphname = greater;
layers = (
{
layerId = "F5C437A1-5BE8-4656-AC88-288CA2D4AAEB";
name = "Light Italic";
paths = (
{
closed = 1;
nodes = (
"48 66 LINE",
"484 300 LINE",
"484 303 LINE",
"142 536 LINE",
"149 571 LINE",
"522 315 LINE",
"515 283 LINE",
"40 26 LINE"
);
}
);
width = 600;
}
);
unicode = 003E;
},
{
glyphname = lessequal;
layers = (
{
layerId = "F5C437A1-5BE8-4656-AC88-288CA2D4AAEB";
name = "Light Italic";
paths = (
{
closed = 1;
nodes = (
"31 0 LINE",
"37 30 LINE",
"461 30 LINE",
"455 0 LINE"
);
},
{
closed = 1;
nodes = (
"566 554 LINE",
"134 347 LINE",
"134 344 LINE",
"483 137 LINE",
"475 104 LINE",
"97 331 LINE",
"104 365 LINE",
"573 592 LINE"
);
}
);
width = 600;
}
);
unicode = 2264;
},
{
glyphname = greaterequal;
layers = (
{
layerId = "F5C437A1-5BE8-4656-AC88-288CA2D4AAEB";
name = "Light Italic";
paths = (
{
closed = 1;
nodes = (
"72 142 LINE",
"503 349 LINE",
"504 352 LINE",
"155 558 LINE",
"162 592 LINE",
"541 365 LINE",
"534 331 LINE",
"64 104 LINE"
);
},
{
closed = 1;
nodes = (
"50 30 LINE",
"474 30 LINE",
"468 0 LINE",
"44 0 LINE"
);
}
);
width = 600;
}
);
unicode = 2265;
},
{
glyphname = periodcentered;
layers = (
{
layerId = "F5C437A1-5BE8-4656-AC88-288CA2D4AAEB";
name = "Light Italic";
paths = (
{
closed = 1;
nodes = (
"129 267 OFFCURVE",
"121 278 OFFCURVE",
"121 291 CURVE SMOOTH",
"121 298 OFFCURVE",
"123 308 OFFCURVE",
"124 313 CURVE SMOOTH",
"127 328 OFFCURVE",
"135 342 OFFCURVE",
"162 342 CURVE SMOOTH",
"185 342 OFFCURVE",
"193 331 OFFCURVE",
"193 318 CURVE SMOOTH",
"193 311 OFFCURVE",
"191 301 OFFCURVE",
"190 296 CURVE SMOOTH",
"187 281 OFFCURVE",
"179 267 OFFCURVE",
"152 267 CURVE SMOOTH"
);
}
);
width = 302;
}
);
unicode = 00B7;
},
{
glyphname = bullet;
layers = (
{
layerId = "F5C437A1-5BE8-4656-AC88-288CA2D4AAEB";
name = "Light Italic";
paths = (
{
closed = 1;
nodes = (
"104 210 OFFCURVE",
"80 233 OFFCURVE",
"80 272 CURVE SMOOTH",
"80 279 OFFCURVE",
"83 299 OFFCURVE",
"87 319 CURVE SMOOTH",
"96 366 OFFCURVE",
"125 398 OFFCURVE",
"192 398 CURVE SMOOTH",
"248 398 OFFCURVE",
"272 375 OFFCURVE",
"272 336 CURVE SMOOTH",
"272 329 OFFCURVE",
"269 309 OFFCURVE",
"265 289 CURVE SMOOTH",
"256 242 OFFCURVE",
"227 210 OFFCURVE",
"160 210 CURVE SMOOTH"
);
}
);
width = 340;
}
);
unicode = 2022;
},
{
glyphname = lozenge;
layers = (
{
layerId = "F5C437A1-5BE8-4656-AC88-288CA2D4AAEB";
name = "Light Italic";
paths = (
{
closed = 1;
nodes = (
"233 0 LINE",
"76 349 LINE",
"369 698 LINE",
"404 698 LINE",
"561 349 LINE",
"268 0 LINE"
);
},
{
closed = 1;
nodes = (
"257 34 LINE",
"525 351 LINE",
"385 664 LINE",
"380 664 LINE",
"112 347 LINE",
"252 34 LINE"
);
}
);
width = 600;
}
);
unicode = 25CA;
},
{
glyphname = logicalnot;
layers = (
{
layerId = "F5C437A1-5BE8-4656-AC88-288CA2D4AAEB";
name = "Light Italic";
paths = (
{
closed = 1;
nodes = (
"460 98 LINE",
"499 290 LINE",
"72 290 LINE",
"78 320 LINE",
"537 320 LINE",
"492 98 LINE"
);
}
);
width = 601;
}
);
unicode = 00AC;
},
{
glyphname = radical;
layers = (
{
layerId = "F5C437A1-5BE8-4656-AC88-288CA2D4AAEB";
name = "Light Italic";
paths = (
{
closed = 1;
nodes = (
"220 0 LINE",
"182 479 LINE",
"67 479 LINE",
"72 508 LINE",
"212 508 LINE",
"250 36 LINE",
"253 36 LINE",
"584 698 LINE",
"621 698 LINE",
"268 0 LINE"
);
}
);
width = 596;
}
);
unicode = 221A;
},
{
glyphname = integral;
layers = (
{
layerId = "F5C437A1-5BE8-4656-AC88-288CA2D4AAEB";
name = "Light Italic";
paths = (
{
closed = 1;
nodes = (
"-32 -169 LINE",
"84 -169 LINE",
"255 687 LINE SMOOTH",
"262 723 OFFCURVE",
"274 740 OFFCURVE",
"315 740 CURVE SMOOTH",
"417 740 LINE",
"410 709 LINE",
"294 709 LINE",
"123 -147 LINE SMOOTH",
"116 -184 OFFCURVE",
"103 -200 OFFCURVE",
"63 -200 CURVE SMOOTH",
"-39 -200 LINE"
);
}
);
width = 371;
}
);
unicode = 222B;
},
{
glyphname = infinity;
layers = (
{
layerId = "F5C437A1-5BE8-4656-AC88-288CA2D4AAEB";
name = "Light Italic";
paths = (
{
closed = 1;
nodes = (
"75 123 OFFCURVE",
"27 172 OFFCURVE",
"27 256 CURVE SMOOTH",
"27 324 OFFCURVE",
"46 382 OFFCURVE",
"80 423 CURVE SMOOTH",
"114 463 OFFCURVE",
"163 487 OFFCURVE",
"227 487 CURVE SMOOTH",
"307 487 OFFCURVE",
"369 435 OFFCURVE",
"380 335 CURVE",
"384 335 LINE",
"424 436 OFFCURVE",
"500 487 OFFCURVE",
"576 487 CURVE SMOOTH",
"671 487 OFFCURVE",
"719 438 OFFCURVE",
"719 354 CURVE SMOOTH",
"719 286 OFFCURVE",
"701 228 OFFCURVE",
"667 188 CURVE SMOOTH",
"633 147 OFFCURVE",
"583 123 OFFCURVE",
"519 123 CURVE SMOOTH",
"439 123 OFFCURVE",
"377 175 OFFCURVE",
"366 275 CURVE",
"362 275 LINE",
"322 174 OFFCURVE",
"246 123 OFFCURVE",
"170 123 CURVE SMOOTH"
);
},
{
closed = 1;
nodes = (
"242 154 OFFCURVE",
"309 201 OFFCURVE",
"356 305 CURVE",
"345 409 OFFCURVE",
"299 456 OFFCURVE",
"226 456 CURVE SMOOTH",
"150 456 OFFCURVE",
"87 416 OFFCURVE",
"70 329 CURVE SMOOTH",
"65 306 OFFCURVE",
"63 290 OFFCURVE",
"62 281 CURVE SMOOTH",
"61 271 OFFCURVE",
"61 263 OFFCURVE",
"61 256 CURVE SMOOTH",
"61 188 OFFCURVE",
"101 154 OFFCURVE",
"173 154 CURVE SMOOTH"
);
},
{
closed = 1;
nodes = (
"596 154 OFFCURVE",
"659 194 OFFCURVE",
"676 281 CURVE SMOOTH",
"680 304 OFFCURVE",
"683 320 OFFCURVE",
"684 330 CURVE SMOOTH",
"685 339 OFFCURVE",
"685 347 OFFCURVE",
"685 354 CURVE SMOOTH",
"685 422 OFFCURVE",
"645 456 OFFCURVE",
"573 456 CURVE SMOOTH",
"504 456 OFFCURVE",
"437 409 OFFCURVE",
"390 305 CURVE",
"401 201 OFFCURVE",
"447 154 OFFCURVE",
"520 154 CURVE SMOOTH"
);
}
);
width = 732;
}
);
unicode = 221E;
},
{
glyphname = uni212E;
layers = (
{
layerId = "F5C437A1-5BE8-4656-AC88-288CA2D4AAEB";
name = "Light Italic";
paths = (
{
closed = 1;
nodes = (
"116 173 LINE",
"133 129 OFFCURVE",
"164 89 OFFCURVE",
"205 61 CURVE SMOOTH",
"245 32 OFFCURVE",
"295 15 OFFCURVE",
"352 15 CURVE SMOOTH",
"477 15 OFFCURVE",
"553 73 OFFCURVE",
"602 161 CURVE",
"627 148 LINE",
"603 103 OFFCURVE",
"568 62 OFFCURVE",
"523 34 CURVE SMOOTH",
"478 5 OFFCURVE",
"420 -12 OFFCURVE",
"352 -12 CURVE SMOOTH",
"259 -12 OFFCURVE",
"182 26 OFFCURVE",
"127 90 CURVE SMOOTH",
"72 154 OFFCURVE",
"41 244 OFFCURVE",
"41 349 CURVE SMOOTH",
"41 454 OFFCURVE",
"73 544 OFFCURVE",
"127 608 CURVE SMOOTH",
"181 672 OFFCURVE",
"258 710 OFFCURVE",
"350 710 CURVE SMOOTH",
"442 710 OFFCURVE",
"520 672 OFFCURVE",
"574 608 CURVE SMOOTH",
"628 544 OFFCURVE",
"659 454 OFFCURVE",
"659 349 CURVE",
"116 349 LINE"
);
},
{
closed = 1;
nodes = (
"584 376 LINE",
"584 528 LINE",
"549 619 OFFCURVE",
"465 683 OFFCURVE",
"350 683 CURVE SMOOTH",
"235 683 OFFCURVE",
"151 619 OFFCURVE",
"116 528 CURVE",
"116 376 LINE"
);
}
);
width = 701;
}
);
unicode = 212E;
},
{
glyphname = uni2113;
layers = (
{
layerId = "F5C437A1-5BE8-4656-AC88-288CA2D4AAEB";
name = "Light Italic";
paths = (
{
closed = 1;
nodes = (
"162 -12 OFFCURVE",
"124 56 OFFCURVE",
"124 163 CURVE SMOOTH",
"124 193 LINE",
"101 174 OFFCURVE",
"79 159 OFFCURVE",
"56 146 CURVE",
"41 171 LINE",
"68 187 OFFCURVE",
"97 206 OFFCURVE",
"124 230 CURVE",
"124 569 LINE SMOOTH",
"124 696 OFFCURVE",
"167 752 OFFCURVE",
"243 752 CURVE SMOOTH",
"319 752 OFFCURVE",
"357 703 OFFCURVE",
"357 605 CURVE SMOOTH",
"357 534 OFFCURVE",
"336 464 OFFCURVE",
"301 397 CURVE SMOOTH",
"265 330 OFFCURVE",
"215 268 OFFCURVE",
"158 216 CURVE",
"158 167 LINE SMOOTH",
"158 67 OFFCURVE",
"187 19 OFFCURVE",
"259 19 CURVE SMOOTH",
"296 19 OFFCURVE",
"324 32 OFFCURVE",
"348 52 CURVE SMOOTH",
"371 72 OFFCURVE",
"390 100 OFFCURVE",
"406 131 CURVE",
"432 117 LINE",
"415 84 OFFCURVE",
"394 52 OFFCURVE",
"366 28 CURVE SMOOTH",
"338 4 OFFCURVE",
"303 -12 OFFCURVE",
"258 -12 CURVE SMOOTH"
);
},
{
closed = 1;
nodes = (
"219 722 OFFCURVE",
"197 713 OFFCURVE",
"182 689 CURVE SMOOTH",
"167 665 OFFCURVE",
"158 627 OFFCURVE",
"158 571 CURVE SMOOTH",
"158 255 LINE",
"206 303 OFFCURVE",
"247 360 OFFCURVE",
"277 419 CURVE SMOOTH",
"307 478 OFFCURVE",
"324 540 OFFCURVE",
"324 600 CURVE SMOOTH",
"324 613 LINE SMOOTH",
"324 689 OFFCURVE",
"293 722 OFFCURVE",
"244 722 CURVE SMOOTH"
);
}
);
width = 467;
}
);
unicode = 2113;
},
{
glyphname = uni2116;
layers = (
{
layerId = "F5C437A1-5BE8-4656-AC88-288CA2D4AAEB";
name = "Light Italic";
paths = (
{
closed = 1;
nodes = (
"769 366 OFFCURVE",
"720 417 OFFCURVE",
"720 494 CURVE SMOOTH",
"720 546 OFFCURVE",
"735 601 OFFCURVE",
"766 642 CURVE SMOOTH",
"797 682 OFFCURVE",
"842 710 OFFCURVE",
"902 710 CURVE SMOOTH",
"978 710 OFFCURVE",
"1027 659 OFFCURVE",
"1027 582 CURVE SMOOTH",
"1027 530 OFFCURVE",
"1012 475 OFFCURVE",
"981 435 CURVE SMOOTH",
"950 394 OFFCURVE",
"905 366 OFFCURVE",
"845 366 CURVE SMOOTH"
);
},
{
closed = 1;
nodes = (
"50 0 LINE",
"190 698 LINE",
"233 698 LINE",
"494 49 LINE",
"497 49 LINE",
"627 698 LINE",
"660 698 LINE",
"520 0 LINE",
"477 0 LINE",
"216 649 LINE",
"213 649 LINE",
"83 0 LINE"
);
},
{
closed = 1;
nodes = (
"920 391 OFFCURVE",
"971 445 OFFCURVE",
"986 517 CURVE SMOOTH",
"993 551 LINE SMOOTH",
"995 562 OFFCURVE",
"996 572 OFFCURVE",
"996 582 CURVE SMOOTH",
"996 642 OFFCURVE",
"967 685 OFFCURVE",
"899 685 CURVE SMOOTH",
"827 685 OFFCURVE",
"776 631 OFFCURVE",
"761 559 CURVE SMOOTH",
"754 525 LINE SMOOTH",
"752 514 OFFCURVE",
"751 503 OFFCURVE",
"751 494 CURVE SMOOTH",
"751 434 OFFCURVE",
"780 391 OFFCURVE",
"848 391 CURVE SMOOTH"
);
},
{
closed = 1;
nodes = (
"684 275 LINE",
"691 305 LINE",
"963 305 LINE",
"957 275 LINE"
);
}
);
width = 1006;
}
);
unicode = 2116;
},
{
glyphname = partialdiff;
layers = (
{
layerId = "F5C437A1-5BE8-4656-AC88-288CA2D4AAEB";
name = "Light Italic";
paths = (
{
closed = 1;
nodes = (
"126 -12 OFFCURVE",
"57 62 OFFCURVE",
"57 183 CURVE SMOOTH",
"57 278 OFFCURVE",
"83 358 OFFCURVE",
"127 415 CURVE SMOOTH",
"171 471 OFFCURVE",
"233 504 OFFCURVE",
"305 504 CURVE SMOOTH",
"376 504 OFFCURVE",
"428 472 OFFCURVE",
"455 415 CURVE",
"459 417 LINE",
"448 476 OFFCURVE",
"418 530 OFFCURVE",
"377 578 CURVE SMOOTH",
"336 626 OFFCURVE",
"283 667 OFFCURVE",
"226 698 CURVE",
"279 698 LINE",
"323 670 OFFCURVE",
"378 630 OFFCURVE",
"422 572 CURVE SMOOTH",
"466 514 OFFCURVE",
"498 436 OFFCURVE",
"498 335 CURVE SMOOTH",
"498 223 OFFCURVE",
"471 137 OFFCURVE",
"425 78 CURVE SMOOTH",
"379 18 OFFCURVE",
"314 -12 OFFCURVE",
"238 -12 CURVE SMOOTH"
);
},
{
closed = 1;
nodes = (
"346 19 OFFCURVE",
"424 91 OFFCURVE",
"447 212 CURVE SMOOTH",
"456 259 LINE SMOOTH",
"460 280 OFFCURVE",
"461 299 OFFCURVE",
"461 315 CURVE SMOOTH",
"461 415 OFFCURVE",
"401 474 OFFCURVE",
"309 474 CURVE SMOOTH",
"258 474 OFFCURVE",
"213 455 OFFCURVE",
"177 422 CURVE SMOOTH",
"141 389 OFFCURVE",
"116 340 OFFCURVE",
"104 280 CURVE SMOOTH",
"95 233 LINE SMOOTH",
"91 212 OFFCURVE",
"91 193 OFFCURVE",
"91 177 CURVE SMOOTH",
"91 77 OFFCURVE",
"150 19 OFFCURVE",
"242 19 CURVE SMOOTH"
);
}
);
width = 561;
}
);
unicode = 2202;
},
{
glyphname = cent;
layers = (
{
layerId = "F5C437A1-5BE8-4656-AC88-288CA2D4AAEB";
name = "Light Italic";
paths = (
{
closed = 1;
nodes = (
"194 -9 LINE",
"103 6 OFFCURVE",
"58 84 OFFCURVE",
"58 189 CURVE SMOOTH",
"58 281 OFFCURVE",
"79 362 OFFCURVE",
"120 422 CURVE SMOOTH",
"160 482 OFFCURVE",
"220 519 OFFCURVE",
"299 520 CURVE",
"319 622 LINE",
"351 622 LINE",
"330 518 LINE",
"398 507 OFFCURVE",
"442 464 OFFCURVE",
"457 404 CURVE",
"426 393 LINE",
"413 448 OFFCURVE",
"375 480 OFFCURVE",
"324 488 CURVE",
"230 18 LINE",
"302 21 OFFCURVE",
"351 56 OFFCURVE",
"398 131 CURVE",
"425 117 LINE",
"369 29 OFFCURVE",
"308 -11 OFFCURVE",
"224 -12 CURVE",
"204 -114 LINE",
"173 -114 LINE"
);
},
{
closed = 1;
nodes = (
"91 144 OFFCURVE",
"100 105 OFFCURVE",
"117 77 CURVE SMOOTH",
"134 48 OFFCURVE",
"161 26 OFFCURVE",
"200 21 CURVE",
"293 489 LINE",
"197 486 OFFCURVE",
"129 414 OFFCURVE",
"108 301 CURVE SMOOTH",
"97 243 LINE SMOOTH",
"93 222 OFFCURVE",
"91 208 OFFCURVE",
"91 185 CURVE SMOOTH"
);
}
);
width = 492;
}
);
unicode = 00A2;
},
{
glyphname = Euro;
layers = (
{
layerId = "F5C437A1-5BE8-4656-AC88-288CA2D4AAEB";
name = "Light Italic";
paths = (
{
closed = 1;
nodes = (
"224 -12 OFFCURVE",
"168 9 OFFCURVE",
"129 50 CURVE SMOOTH",
"89 91 OFFCURVE",
"66 152 OFFCURVE",
"66 231 CURVE SMOOTH",
"66 300 OFFCURVE",
"77 377 OFFCURVE",
"101 448 CURVE SMOOTH",
"124 519 OFFCURVE",
"159 584 OFFCURVE",
"208 632 CURVE SMOOTH",
"256 680 OFFCURVE",
"319 710 OFFCURVE",
"396 710 CURVE SMOOTH",
"509 710 OFFCURVE",
"570 657 OFFCURVE",
"595 566 CURVE",
"562 553 LINE",
"539 630 OFFCURVE",
"494 677 OFFCURVE",
"394 677 CURVE SMOOTH",
"273 677 OFFCURVE",
"179 588 OFFCURVE",
"136 443 CURVE",
"396 443 LINE",
"390 413 LINE",
"128 413 LINE",
"117 373 OFFCURVE",
"112 336 OFFCURVE",
"105 285 CURVE",
"365 285 LINE",
"359 255 LINE",
"103 255 LINE",
"102 249 OFFCURVE",
"102 241 OFFCURVE",
"102 231 CURVE SMOOTH",
"102 226 LINE SMOOTH",
"102 99 OFFCURVE",
"170 21 OFFCURVE",
"291 21 CURVE SMOOTH",
"386 21 OFFCURVE",
"445 68 OFFCURVE",
"497 161 CURVE",
"525 142 LINE",
"462 34 OFFCURVE",
"396 -12 OFFCURVE",
"289 -12 CURVE SMOOTH"
);
}
);
width = 596;
}
);
unicode = 20AC;
},
{
glyphname = florin;
layers = (
{
layerId = "F5C437A1-5BE8-4656-AC88-288CA2D4AAEB";
name = "Light Italic";
paths = (
{
closed = 1;
nodes = (
"-74 -103 LINE",
"97 -103 LINE",
"217 309 LINE",
"55 309 LINE",
"63 340 LINE",
"226 340 LINE",
"317 647 LINE SMOOTH",
"328 682 OFFCURVE",
"341 698 OFFCURVE",
"380 698 CURVE SMOOTH",
"542 698 LINE",
"534 667 LINE",
"358 667 LINE",
"262 340 LINE",
"461 340 LINE",
"453 309 LINE",
"252 309 LINE",
"137 -83 LINE SMOOTH",
"126 -120 OFFCURVE",
"113 -134 OFFCURVE",
"74 -134 CURVE SMOOTH",
"-81 -134 LINE"
);
}
);
width = 487;
}
);
unicode = 0192;
},
{
glyphname = sterling;
layers = (
{
layerId = "F5C437A1-5BE8-4656-AC88-288CA2D4AAEB";
name = "Light Italic";
paths = (
{
closed = 1;
nodes = (
"31 0 LINE",
"40 43 LINE",
"132 86 OFFCURVE",
"177 168 OFFCURVE",
"177 264 CURVE SMOOTH",
"177 279 OFFCURVE",
"176 291 OFFCURVE",
"175 306 CURVE",
"80 306 LINE",
"86 337 LINE",
"172 337 LINE",
"165 388 OFFCURVE",
"160 439 OFFCURVE",
"160 486 CURVE SMOOTH",
"160 555 OFFCURVE",
"186 611 OFFCURVE",
"227 650 CURVE SMOOTH",
"268 689 OFFCURVE",
"326 710 OFFCURVE",
"391 710 CURVE SMOOTH",
"482 710 OFFCURVE",
"545 671 OFFCURVE",
"580 592 CURVE",
"548 574 LINE",
"519 646 OFFCURVE",
"466 678 OFFCURVE",
"389 678 CURVE SMOOTH",
"334 678 OFFCURVE",
"287 660 OFFCURVE",
"252 628 CURVE SMOOTH",
"217 595 OFFCURVE",
"196 545 OFFCURVE",
"196 484 CURVE SMOOTH",
"196 437 OFFCURVE",
"201 388 OFFCURVE",
"208 337 CURVE",
"420 337 LINE",
"414 306 LINE",
"210 306 LINE",
"212 292 OFFCURVE",
"213 278 OFFCURVE",
"213 264 CURVE SMOOTH",
"210 159 OFFCURVE",
"157 74 OFFCURVE",
"77 35 CURVE",
"75 32 LINE",
"467 32 LINE",
"460 0 LINE"
);
}
);
width = 579;
}
);
unicode = 00A3;
},
{
glyphname = dollar;
layers = (
{
layerId = "F5C437A1-5BE8-4656-AC88-288CA2D4AAEB";
name = "Light Italic";
paths = (
{
closed = 1;
nodes = (
"208 1 LINE",
"112 8 OFFCURVE",
"52 50 OFFCURVE",
"13 115 CURVE",
"41 136 LINE",
"76 76 OFFCURVE",
"129 40 OFFCURVE",
"214 33 CURVE",
"277 344 LINE",
"246 352 LINE SMOOTH",
"151 376 OFFCURVE",
"108 426 OFFCURVE",
"108 510 CURVE SMOOTH",
"108 561 OFFCURVE",
"127 607 OFFCURVE",
"164 642 CURVE SMOOTH",
"201 677 OFFCURVE",
"257 698 OFFCURVE",
"333 698 CURVE SMOOTH",
"348 698 LINE",
"364 780 LINE",
"392 780 LINE",
"375 697 LINE",
"462 689 OFFCURVE",
"505 654 OFFCURVE",
"536 597 CURVE",
"508 577 LINE",
"477 632 OFFCURVE",
"441 658 OFFCURVE",
"368 665 CURVE",
"310 369 LINE",
"334 363 LINE SMOOTH",
"434 338 OFFCURVE",
"479 289 OFFCURVE",
"479 205 CURVE SMOOTH",
"479 149 OFFCURVE",
"461 98 OFFCURVE",
"422 61 CURVE SMOOTH",
"382 24 OFFCURVE",
"323 0 OFFCURVE",
"243 0 CURVE SMOOTH",
"235 0 LINE",
"219 -82 LINE",
"191 -82 LINE"
);
},
{
closed = 1;
nodes = (
"303 338 LINE",
"241 32 LINE",
"313 32 OFFCURVE",
"364 52 OFFCURVE",
"397 84 CURVE SMOOTH",
"429 115 OFFCURVE",
"443 158 OFFCURVE",
"443 203 CURVE SMOOTH",
"443 272 OFFCURVE",
"408 312 OFFCURVE",
"327 332 CURVE SMOOTH"
);
},
{
closed = 1;
nodes = (
"144 442 OFFCURVE",
"177 402 OFFCURVE",
"256 382 CURVE SMOOTH",
"283 375 LINE",
"341 666 LINE",
"329 666 LINE SMOOTH",
"266 666 OFFCURVE",
"221 649 OFFCURVE",
"190 621 CURVE SMOOTH",
"159 593 OFFCURVE",
"144 554 OFFCURVE",
"144 511 CURVE SMOOTH"
);
}
);
width = 546;
}
);
unicode = 0024;
},
{
glyphname = yen;
layers = (
{
layerId = "F5C437A1-5BE8-4656-AC88-288CA2D4AAEB";
name = "Light Italic";
paths = (
{
closed = 1;
nodes = (
"286 163 LINE",
"253 0 LINE",
"217 0 LINE",
"250 163 LINE",
"59 163 LINE",
"66 193 LINE",
"256 193 LINE",
"282 321 LINE",
"92 321 LINE",
"98 351 LINE",
"270 351 LINE",
"131 698 LINE",
"169 698 LINE",
"303 357 LINE",
"306 357 LINE",
"578 698 LINE",
"620 698 LINE",
"342 351 LINE",
"516 351 LINE",
"510 321 LINE",
"318 321 LINE",
"292 193 LINE",
"484 193 LINE",
"477 163 LINE"
);
}
);
width = 573;
}
);
unicode = 00A5;
},
{
glyphname = uni0E3F;
layers = (
{
layerId = "F5C437A1-5BE8-4656-AC88-288CA2D4AAEB";
name = "Light Italic";
paths = (
{
closed = 1;
nodes = (
"238 -82 LINE",
"207 -82 LINE",
"227 20 LINE",
"55 20 LINE",
"186 677 LINE",
"358 677 LINE",
"379 780 LINE",
"410 780 LINE",
"389 677 LINE",
"400 677 LINE SMOOTH",
"496 677 OFFCURVE",
"556 631 OFFCURVE",
"556 547 CURVE SMOOTH",
"556 458 OFFCURVE",
"516 388 OFFCURVE",
"416 368 CURVE",
"416 365 LINE",
"487 350 OFFCURVE",
"521 297 OFFCURVE",
"521 228 CURVE SMOOTH",
"521 171 OFFCURVE",
"507 118 OFFCURVE",
"473 81 CURVE SMOOTH",
"439 44 OFFCURVE",
"384 20 OFFCURVE",
"305 20 CURVE SMOOTH",
"258 20 LINE"
);
},
{
closed = 1;
nodes = (
"299 380 LINE",
"352 645 LINE",
"215 645 LINE",
"162 380 LINE"
);
},
{
closed = 1;
nodes = (
"330 380 LINE",
"340 380 LINE SMOOTH",
"437 380 OFFCURVE",
"497 420 OFFCURVE",
"509 484 CURVE SMOOTH",
"512 503 OFFCURVE",
"515 516 OFFCURVE",
"516 525 CURVE SMOOTH",
"517 534 OFFCURVE",
"518 541 OFFCURVE",
"518 547 CURVE SMOOTH",
"518 618 OFFCURVE",
"468 645 OFFCURVE",
"393 645 CURVE SMOOTH",
"383 645 LINE"
);
},
{
closed = 1;
nodes = (
"233 52 LINE",
"293 348 LINE",
"156 348 LINE",
"97 52 LINE"
);
},
{
closed = 1;
nodes = (
"265 52 LINE",
"311 52 LINE SMOOTH",
"403 52 OFFCURVE",
"459 91 OFFCURVE",
"474 163 CURVE SMOOTH",
"478 182 OFFCURVE",
"481 197 OFFCURVE",
"482 208 CURVE SMOOTH",
"483 218 OFFCURVE",
"484 226 OFFCURVE",
"484 232 CURVE SMOOTH",
"484 296 OFFCURVE",
"446 348 OFFCURVE",
"357 348 CURVE SMOOTH",
"324 348 LINE"
);
}
);
width = 600;
}
);
unicode = 0E3F;
},
{
glyphname = uni20A1;
layers = (
{
layerId = "F5C437A1-5BE8-4656-AC88-288CA2D4AAEB";
name = "Light Italic";
paths = (
{
closed = 1;
nodes = (
"102 -82 LINE",
"142 44 LINE",
"93 83 OFFCURVE",
"63 144 OFFCURVE",
"63 229 CURVE SMOOTH",
"63 292 OFFCURVE",
"72 362 OFFCURVE",
"92 428 CURVE SMOOTH",
"111 494 OFFCURVE",
"142 556 OFFCURVE",
"184 604 CURVE SMOOTH",
"226 652 OFFCURVE",
"280 686 OFFCURVE",
"349 697 CURVE",
"375 780 LINE",
"406 780 LINE",
"381 700 LINE",
"398 700 LINE SMOOTH",
"429 700 OFFCURVE",
"454 695 OFFCURVE",
"477 687 CURVE",
"507 780 LINE",
"538 780 LINE",
"505 676 LINE",
"549 652 OFFCURVE",
"577 612 OFFCURVE",
"593 557 CURVE",
"561 543 LINE",
"550 588 OFFCURVE",
"527 620 OFFCURVE",
"494 641 CURVE",
"300 31 LINE",
"389 34 OFFCURVE",
"447 82 OFFCURVE",
"496 170 CURVE",
"524 153 LINE",
"464 46 OFFCURVE",
"397 -2 OFFCURVE",
"293 -2 CURVE SMOOTH",
"291 -2 LINE",
"265 -82 LINE",
"234 -82 LINE",
"260 -1 LINE",
"225 2 OFFCURVE",
"195 11 OFFCURVE",
"168 28 CURVE",
"133 -82 LINE"
);
},
{
closed = 1;
nodes = (
"370 667 LINE",
"178 61 LINE",
"203 44 OFFCURVE",
"234 34 OFFCURVE",
"270 32 CURVE",
"468 654 LINE",
"448 663 OFFCURVE",
"422 667 OFFCURVE",
"391 667 CURVE SMOOTH"
);
},
{
closed = 1;
nodes = (
"99 163 OFFCURVE",
"119 115 OFFCURVE",
"154 80 CURVE",
"338 663 LINE",
"234 640 OFFCURVE",
"154 547 OFFCURVE",
"123 398 CURVE SMOOTH",
"108 326 LINE SMOOTH",
"100 287 OFFCURVE",
"99 252 OFFCURVE",
"99 224 CURVE SMOOTH"
);
}
);
width = 602;
}
);
unicode = 20A1;
},
{
glyphname = uni20A4;
layers = (
{
layerId = "F5C437A1-5BE8-4656-AC88-288CA2D4AAEB";
name = "Light Italic";
paths = (
{
closed = 1;
nodes = (
"460 0 LINE",
"31 0 LINE",
"40 43 LINE",
"124 82 OFFCURVE",
"170 151 OFFCURVE",
"175 242 CURVE",
"64 242 LINE",
"70 272 LINE",
"177 272 LINE",
"177 317 OFFCURVE",
"172 357 OFFCURVE",
"165 396 CURVE",
"94 396 LINE",
"100 426 LINE",
"162 426 LINE",
"161 447 OFFCURVE",
"160 467 OFFCURVE",
"160 486 CURVE SMOOTH",
"160 554 OFFCURVE",
"185 610 OFFCURVE",
"226 649 CURVE SMOOTH",
"267 688 OFFCURVE",
"324 710 OFFCURVE",
"391 710 CURVE SMOOTH",
"482 710 OFFCURVE",
"545 671 OFFCURVE",
"580 592 CURVE",
"548 574 LINE",
"519 646 OFFCURVE",
"466 678 OFFCURVE",
"389 678 CURVE SMOOTH",
"333 678 OFFCURVE",
"285 659 OFFCURVE",
"251 626 CURVE SMOOTH",
"217 593 OFFCURVE",
"196 545 OFFCURVE",
"196 485 CURVE SMOOTH",
"196 466 OFFCURVE",
"197 446 OFFCURVE",
"199 426 CURVE",
"433 426 LINE",
"426 396 LINE",
"201 396 LINE",
"208 356 OFFCURVE",
"212 315 OFFCURVE",
"213 272 CURVE",
"402 272 LINE",
"396 242 LINE",
"210 242 LINE",
"203 146 OFFCURVE",
"152 71 OFFCURVE",
"76 35 CURVE",
"75 32 LINE",
"467 32 LINE"
);
}
);
width = 579;
}
);
unicode = 20A4;
},
{
glyphname = uni20A6;
layers = (
{
layerId = "F5C437A1-5BE8-4656-AC88-288CA2D4AAEB";
name = "Light Italic";
paths = (
{
closed = 1;
nodes = (
"369 255 LINE",
"138 255 LINE",
"87 0 LINE",
"54 0 LINE",
"105 255 LINE",
"17 255 LINE",
"23 285 LINE",
"111 285 LINE",
"137 413 LINE",
"50 413 LINE",
"56 443 LINE",
"144 443 LINE",
"194 698 LINE",
"238 698 LINE",
"335 443 LINE",
"566 443 LINE",
"617 698 LINE",
"650 698 LINE",
"599 443 LINE",
"687 443 LINE",
"681 413 LINE",
"593 413 LINE",
"567 285 LINE",
"654 285 LINE",
"648 255 LINE",
"560 255 LINE",
"510 0 LINE",
"466 0 LINE"
);
},
{
closed = 1;
nodes = (
"359 284 LINE",
"310 414 LINE",
"169 414 LINE",
"143 284 LINE"
);
},
{
closed = 1;
nodes = (
"394 284 LINE",
"535 284 LINE",
"561 414 LINE",
"345 414 LINE"
);
},
{
closed = 1;
nodes = (
"174 443 LINE",
"299 443 LINE",
"220 653 LINE",
"216 653 LINE"
);
},
{
closed = 1;
nodes = (
"488 45 LINE",
"530 255 LINE",
"405 255 LINE",
"484 45 LINE"
);
}
);
width = 665;
}
);
unicode = 20A6;
},
{
glyphname = uni20A8;
layers = (
{
layerId = "F5C437A1-5BE8-4656-AC88-288CA2D4AAEB";
name = "Light Italic";
paths = (
{
closed = 1;
nodes = (
"190 698 LINE",
"322 698 LINE SMOOTH",
"421 698 OFFCURVE",
"461 648 OFFCURVE",
"461 572 CURVE SMOOTH",
"461 519 OFFCURVE",
"450 465 OFFCURVE",
"424 422 CURVE SMOOTH",
"398 378 OFFCURVE",
"357 346 OFFCURVE",
"300 335 CURVE",
"378 120 LINE SMOOTH",
"405 44 OFFCURVE",
"438 19 OFFCURVE",
"510 19 CURVE SMOOTH",
"538 19 OFFCURVE",
"564 27 OFFCURVE",
"584 43 CURVE SMOOTH",
"603 59 OFFCURVE",
"616 82 OFFCURVE",
"616 113 CURVE SMOOTH",
"616 148 OFFCURVE",
"601 173 OFFCURVE",
"572 202 CURVE SMOOTH",
"534 239 LINE SMOOTH",
"495 276 OFFCURVE",
"481 307 OFFCURVE",
"481 350 CURVE SMOOTH",
"481 382 OFFCURVE",
"494 412 OFFCURVE",
"518 436 CURVE SMOOTH",
"542 459 OFFCURVE",
"575 474 OFFCURVE",
"615 474 CURVE SMOOTH",
"652 474 OFFCURVE",
"687 463 OFFCURVE",
"708 440 CURVE",
"687 416 LINE",
"671 435 OFFCURVE",
"644 444 OFFCURVE",
"613 444 CURVE SMOOTH",
"557 444 OFFCURVE",
"516 405 OFFCURVE",
"516 352 CURVE SMOOTH",
"516 317 OFFCURVE",
"527 293 OFFCURVE",
"559 262 CURVE SMOOTH",
"597 225 LINE SMOOTH",
"636 189 OFFCURVE",
"650 156 OFFCURVE",
"650 116 CURVE SMOOTH",
"650 40 OFFCURVE",
"594 -12 OFFCURVE",
"509 -12 CURVE SMOOTH",
"422 -12 OFFCURVE",
"376 20 OFFCURVE",
"347 103 CURVE SMOOTH",
"264 330 LINE",
"153 330 LINE",
"86 0 LINE",
"51 0 LINE"
);
},
{
closed = 1;
nodes = (
"254 361 LINE SMOOTH",
"341 361 OFFCURVE",
"396 404 OFFCURVE",
"413 487 CURVE SMOOTH",
"422 529 LINE SMOOTH",
"425 544 OFFCURVE",
"426 560 OFFCURVE",
"426 573 CURVE SMOOTH",
"426 633 OFFCURVE",
"394 666 OFFCURVE",
"318 666 CURVE SMOOTH",
"220 666 LINE",
"159 361 LINE"
);
}
);
width = 728;
}
);
unicode = 20A8;
},
{
glyphname = uni20A9;
layers = (
{
layerId = "F5C437A1-5BE8-4656-AC88-288CA2D4AAEB";
name = "Light Italic";
paths = (
{
closed = 1;
nodes = (
"550 252 LINE",
"325 252 LINE",
"206 0 LINE",
"163 0 LINE",
"149 251 LINE",
"35 251 LINE",
"41 281 LINE",
"148 281 LINE",
"140 410 LINE",
"62 410 LINE",
"68 440 LINE",
"139 440 LINE",
"125 698 LINE",
"160 698 LINE",
"173 439 LINE",
"382 439 LINE",
"505 698 LINE",
"550 698 LINE",
"568 439 LINE",
"780 439 LINE",
"900 698 LINE",
"937 698 LINE",
"815 440 LINE",
"886 440 LINE",
"880 410 LINE",
"801 410 LINE",
"741 281 LINE",
"850 281 LINE",
"844 251 LINE",
"727 251 LINE",
"609 0 LINE",
"568 0 LINE"
);
},
{
closed = 1;
nodes = (
"548 281 LINE",
"539 410 LINE",
"401 410 LINE",
"339 281 LINE"
);
},
{
closed = 1;
nodes = (
"570 410 LINE",
"579 281 LINE",
"707 281 LINE",
"767 410 LINE"
);
},
{
closed = 1;
nodes = (
"175 410 LINE",
"181 281 LINE",
"307 281 LINE",
"368 410 LINE"
);
},
{
closed = 1;
nodes = (
"415 439 LINE",
"537 439 LINE",
"522 657 LINE",
"519 657 LINE"
);
},
{
closed = 1;
nodes = (
"599 48 LINE",
"693 252 LINE",
"581 252 LINE",
"596 48 LINE"
);
},
{
closed = 1;
nodes = (
"196 48 LINE",
"293 252 LINE",
"182 252 LINE",
"192 48 LINE"
);
}
);
width = 876;
}
);
unicode = 20A9;
},
{
glyphname = uni20AA;
layers = (
{
layerId = "F5C437A1-5BE8-4656-AC88-288CA2D4AAEB";
name = "Light Italic";
paths = (
{
closed = 1;
nodes = (
"336 564 LINE",
"372 564 LINE",
"265 31 LINE",
"466 31 LINE SMOOTH",
"494 31 OFFCURVE",
"523 38 OFFCURVE",
"547 58 CURVE SMOOTH",
"571 78 OFFCURVE",
"589 111 OFFCURVE",
"600 162 CURVE SMOOTH",
"708 698 LINE",
"744 698 LINE",
"637 166 LINE SMOOTH",
"613 51 OFFCURVE",
"554 0 OFFCURVE",
"461 0 CURVE SMOOTH",
"223 0 LINE"
);
},
{
closed = 1;
nodes = (
"50 0 LINE",
"190 698 LINE",
"420 698 LINE SMOOTH",
"497 698 OFFCURVE",
"543 660 OFFCURVE",
"543 580 CURVE SMOOTH",
"543 565 OFFCURVE",
"541 551 OFFCURVE",
"538 532 CURVE",
"458 134 LINE",
"422 134 LINE",
"503 535 LINE SMOOTH",
"506 552 OFFCURVE",
"508 567 OFFCURVE",
"508 580 CURVE SMOOTH",
"508 644 OFFCURVE",
"473 667 OFFCURVE",
"413 667 CURVE SMOOTH",
"219 667 LINE",
"86 0 LINE"
);
}
);
width = 756;
}
);
unicode = 20AA;
},
{
glyphname = uni20AB;
layers = (
{
layerId = "F5C437A1-5BE8-4656-AC88-288CA2D4AAEB";
name = "Light Italic";
paths = (
{
closed = 1;
nodes = (
"413 205 LINE",
"409 205 LINE",
"393 180 OFFCURVE",
"372 155 OFFCURVE",
"345 137 CURVE SMOOTH",
"317 119 OFFCURVE",
"284 106 OFFCURVE",
"245 106 CURVE SMOOTH",
"141 106 OFFCURVE",
"85 170 OFFCURVE",
"85 274 CURVE SMOOTH",
"85 362 OFFCURVE",
"110 431 OFFCURVE",
"151 479 CURVE SMOOTH",
"191 526 OFFCURVE",
"248 551 OFFCURVE",
"313 551 CURVE SMOOTH",
"356 551 OFFCURVE",
"389 539 OFFCURVE",
"414 523 CURVE",
"438 506 OFFCURVE",
"454 483 OFFCURVE",
"461 459 CURVE",
"464 459 LINE",
"499 639 LINE",
"339 639 LINE",
"345 668 LINE",
"505 668 LINE",
"519 740 LINE",
"553 740 LINE",
"538 668 LINE",
"609 668 LINE",
"603 639 LINE",
"533 639 LINE",
"429 117 LINE",
"395 117 LINE"
);
},
{
closed = 1;
nodes = (
"295 135 OFFCURVE",
"335 152 OFFCURVE",
"367 180 CURVE SMOOTH",
"398 207 OFFCURVE",
"420 243 OFFCURVE",
"428 282 CURVE SMOOTH",
"451 394 LINE SMOOTH",
"458 427 OFFCURVE",
"447 460 OFFCURVE",
"423 484 CURVE SMOOTH",
"399 507 OFFCURVE",
"360 522 OFFCURVE",
"312 522 CURVE SMOOTH",
"223 522 OFFCURVE",
"153 467 OFFCURVE",
"133 363 CURVE SMOOTH",
"128 337 OFFCURVE",
"124 318 OFFCURVE",
"122 305 CURVE SMOOTH",
"120 292 OFFCURVE",
"119 281 OFFCURVE",
"119 273 CURVE SMOOTH",
"119 186 OFFCURVE",
"163 135 OFFCURVE",
"254 135 CURVE SMOOTH"
);
},
{
closed = 1;
nodes = (
"24 0 LINE",
"30 31 LINE",
"445 31 LINE",
"439 0 LINE"
);
}
);
width = 563;
}
);
unicode = 20AB;
},
{
glyphname = uni20AD;
layers = (
{
layerId = "F5C437A1-5BE8-4656-AC88-288CA2D4AAEB";
name = "Light Italic";
paths = (
{
closed = 1;
nodes = (
"90 0 LINE",
"54 0 LINE",
"125 351 LINE",
"34 351 LINE",
"40 382 LINE",
"131 382 LINE",
"194 698 LINE",
"230 698 LINE",
"167 382 LINE",
"256 382 LINE",
"571 698 LINE",
"614 698 LINE",
"299 382 LINE",
"539 382 LINE",
"532 351 LINE",
"293 351 LINE",
"492 0 LINE",
"451 0 LINE",
"253 351 LINE",
"160 351 LINE"
);
}
);
width = 575;
}
);
unicode = 20AD;
},
{
glyphname = uni20AE;
layers = (
{
layerId = "F5C437A1-5BE8-4656-AC88-288CA2D4AAEB";
name = "Light Italic";
paths = (
{
closed = 1;
nodes = (
"307 244 LINE",
"258 0 LINE",
"222 0 LINE",
"267 226 LINE",
"103 153 LINE",
"109 188 LINE",
"274 260 LINE",
"297 377 LINE",
"134 304 LINE",
"140 339 LINE",
"304 412 LINE",
"355 666 LINE",
"115 666 LINE",
"121 698 LINE",
"638 698 LINE",
"632 666 LINE",
"391 666 LINE",
"344 430 LINE",
"507 502 LINE",
"501 467 LINE",
"337 395 LINE",
"313 278 LINE",
"477 351 LINE",
"471 316 LINE"
);
}
);
width = 582;
}
);
unicode = 20AE;
},
{
glyphname = uni20B1;
layers = (
{
layerId = "F5C437A1-5BE8-4656-AC88-288CA2D4AAEB";
name = "Light Italic";
paths = (
{
closed = 1;
nodes = (
"130 379 LINE",
"41 379 LINE",
"47 409 LINE",
"137 409 LINE",
"161 531 LINE",
"70 531 LINE",
"76 561 LINE",
"167 561 LINE",
"194 698 LINE",
"387 698 LINE SMOOTH",
"486 698 OFFCURVE",
"541 641 OFFCURVE",
"552 561 CURVE",
"645 561 LINE",
"639 531 LINE",
"552 531 LINE",
"552 491 OFFCURVE",
"547 448 OFFCURVE",
"535 409 CURVE",
"615 409 LINE",
"609 379 LINE",
"524 379 LINE",
"489 294 OFFCURVE",
"423 244 OFFCURVE",
"327 244 CURVE SMOOTH",
"140 244 LINE",
"91 0 LINE",
"55 0 LINE"
);
},
{
closed = 1;
nodes = (
"203 561 LINE",
"517 561 LINE",
"508 621 OFFCURVE",
"468 666 OFFCURVE",
"388 666 CURVE SMOOTH",
"224 666 LINE"
);
},
{
closed = 1;
nodes = (
"173 409 LINE",
"498 409 LINE",
"510 452 OFFCURVE",
"517 498 OFFCURVE",
"517 531 CURVE",
"197 531 LINE"
);
},
{
closed = 1;
nodes = (
"330 276 LINE SMOOTH",
"411 276 OFFCURVE",
"462 312 OFFCURVE",
"489 379 CURVE",
"166 379 LINE",
"146 276 LINE"
);
}
);
width = 609;
}
);
unicode = 20B1;
},
{
glyphname = uni20B2;
layers = (
{
layerId = "F5C437A1-5BE8-4656-AC88-288CA2D4AAEB";
name = "Light Italic";
paths = (
{
closed = 1;
nodes = (
"200 13 LINE",
"117 44 OFFCURVE",
"66 113 OFFCURVE",
"66 233 CURVE SMOOTH",
"66 302 OFFCURVE",
"77 378 OFFCURVE",
"99 447 CURVE SMOOTH",
"121 516 OFFCURVE",
"155 580 OFFCURVE",
"204 626 CURVE SMOOTH",
"252 672 OFFCURVE",
"315 700 OFFCURVE",
"395 700 CURVE SMOOTH",
"414 700 OFFCURVE",
"431 699 OFFCURVE",
"444 696 CURVE",
"474 780 LINE",
"507 780 LINE",
"474 689 LINE",
"545 669 OFFCURVE",
"584 621 OFFCURVE",
"601 556 CURVE",
"569 542 LINE",
"554 598 OFFCURVE",
"525 638 OFFCURVE",
"462 657 CURVE",
"348 338 LINE",
"575 338 LINE",
"550 214 LINE SMOOTH",
"535 141 OFFCURVE",
"502 87 OFFCURVE",
"457 51 CURVE SMOOTH",
"412 15 OFFCURVE",
"355 -2 OFFCURVE",
"294 -2 CURVE SMOOTH",
"271 -2 OFFCURVE",
"249 1 OFFCURVE",
"228 5 CURVE",
"197 -82 LINE",
"166 -82 LINE"
);
},
{
closed = 1;
nodes = (
"101 135 OFFCURVE",
"140 72 OFFCURVE",
"212 45 CURVE",
"433 665 LINE",
"419 667 OFFCURVE",
"405 668 OFFCURVE",
"391 668 CURVE SMOOTH",
"260 668 OFFCURVE",
"161 578 OFFCURVE",
"125 401 CURVE SMOOTH",
"111 330 LINE SMOOTH",
"103 291 OFFCURVE",
"101 256 OFFCURVE",
"101 228 CURVE SMOOTH"
);
},
{
closed = 1;
nodes = (
"240 36 LINE",
"258 32 OFFCURVE",
"277 30 OFFCURVE",
"296 30 CURVE SMOOTH",
"348 30 OFFCURVE",
"395 44 OFFCURVE",
"434 74 CURVE SMOOTH",
"473 104 OFFCURVE",
"501 147 OFFCURVE",
"514 210 CURVE SMOOTH",
"533 306 LINE",
"336 306 LINE"
);
}
);
width = 638;
}
);
unicode = 20B2;
},
{
glyphname = uni20B4;
layers = (
{
layerId = "F5C437A1-5BE8-4656-AC88-288CA2D4AAEB";
name = "Light Italic";
paths = (
{
closed = 1;
nodes = (
"227 -12 OFFCURVE",
"182 4 OFFCURVE",
"151 32 CURVE SMOOTH",
"119 60 OFFCURVE",
"103 100 OFFCURVE",
"103 145 CURVE SMOOTH",
"103 198 OFFCURVE",
"131 238 OFFCURVE",
"159 265 CURVE",
"56 265 LINE",
"61 295 LINE",
"188 295 LINE",
"418 423 LINE",
"86 423 LINE",
"93 453 LINE",
"461 453 LINE",
"498 484 OFFCURVE",
"510 524 OFFCURVE",
"510 559 CURVE SMOOTH",
"510 627 OFFCURVE",
"464 678 OFFCURVE",
"377 678 CURVE SMOOTH",
"322 678 OFFCURVE",
"266 660 OFFCURVE",
"206 607 CURVE",
"185 631 LINE",
"250 690 OFFCURVE",
"319 710 OFFCURVE",
"380 710 CURVE SMOOTH",
"432 710 OFFCURVE",
"474 695 OFFCURVE",
"503 668 CURVE SMOOTH",
"531 641 OFFCURVE",
"547 604 OFFCURVE",
"547 563 CURVE SMOOTH",
"547 520 OFFCURVE",
"529 480 OFFCURVE",
"502 453 CURVE",
"604 453 LINE",
"598 423 LINE",
"473 423 LINE",
"243 295 LINE",
"572 295 LINE",
"567 265 LINE",
"201 265 LINE",
"164 234 OFFCURVE",
"139 194 OFFCURVE",
"139 147 CURVE SMOOTH",
"139 72 OFFCURVE",
"191 20 OFFCURVE",
"287 20 CURVE SMOOTH",
"346 20 OFFCURVE",
"406 42 OFFCURVE",
"474 102 CURVE",
"493 77 LINE",
"425 13 OFFCURVE",
"352 -12 OFFCURVE",
"284 -12 CURVE SMOOTH"
);
}
);
width = 616;
}
);
unicode = 20B4;
},
{
glyphname = uni20B5;
layers = (
{
layerId = "F5C437A1-5BE8-4656-AC88-288CA2D4AAEB";
name = "Light Italic";
paths = (
{
closed = 1;
nodes = (
"189 18 LINE",
"113 51 OFFCURVE",
"66 120 OFFCURVE",
"66 229 CURVE SMOOTH",
"66 297 OFFCURVE",
"77 372 OFFCURVE",
"99 442 CURVE SMOOTH",
"121 512 OFFCURVE",
"156 576 OFFCURVE",
"205 623 CURVE SMOOTH",
"253 670 OFFCURVE",
"316 700 OFFCURVE",
"396 700 CURVE SMOOTH",
"408 700 OFFCURVE",
"421 699 OFFCURVE",
"432 698 CURVE",
"462 780 LINE",
"494 780 LINE",
"462 692 LINE",
"534 675 OFFCURVE",
"575 628 OFFCURVE",
"594 557 CURVE",
"562 542 LINE",
"546 602 OFFCURVE",
"514 644 OFFCURVE",
"451 660 CURVE",
"229 39 LINE",
"249 33 OFFCURVE",
"270 30 OFFCURVE",
"293 30 CURVE SMOOTH",
"388 30 OFFCURVE",
"446 77 OFFCURVE",
"498 170 CURVE",
"526 153 LINE",
"494 98 OFFCURVE",
"462 59 OFFCURVE",
"425 35 CURVE SMOOTH",
"388 10 OFFCURVE",
"343 -2 OFFCURVE",
"290 -2 CURVE SMOOTH",
"264 -2 OFFCURVE",
"240 1 OFFCURVE",
"218 8 CURVE",
"186 -82 LINE",
"153 -82 LINE"
);
},
{
closed = 1;
nodes = (
"101 140 OFFCURVE",
"137 79 OFFCURVE",
"201 50 CURVE",
"421 666 LINE",
"410 667 OFFCURVE",
"404 668 OFFCURVE",
"393 668 CURVE SMOOTH",
"329 668 OFFCURVE",
"271 644 OFFCURVE",
"225 598 CURVE SMOOTH",
"179 552 OFFCURVE",
"143 484 OFFCURVE",
"126 397 CURVE SMOOTH",
"111 326 LINE SMOOTH",
"103 287 OFFCURVE",
"101 252 OFFCURVE",
"101 224 CURVE SMOOTH"
);
}
);
width = 596;
}
);
unicode = 20B5;
},
{
glyphname = uni20B8;
layers = (
{
layerId = "F5C437A1-5BE8-4656-AC88-288CA2D4AAEB";
name = "Light Italic";
paths = (
{
closed = 1;
nodes = (
"119 667 LINE",
"125 698 LINE",
"641 698 LINE",
"635 667 LINE"
);
},
{
closed = 1;
nodes = (
"365 515 LINE",
"262 0 LINE",
"225 0 LINE",
"329 515 LINE",
"88 515 LINE",
"94 546 LINE",
"611 546 LINE",
"605 515 LINE"
);
}
);
width = 588;
}
);
unicode = 20B8;
},
{
glyphname = uni20B9;
layers = (
{
layerId = "F5C437A1-5BE8-4656-AC88-288CA2D4AAEB";
name = "Light Italic";
paths = (
{
closed = 1;
nodes = (
"407 0 LINE",
"233 316 LINE",
"75 316 LINE",
"81 348 LINE",
"304 348 LINE SMOOTH",
"357 348 OFFCURVE",
"398 367 OFFCURVE",
"426 396 CURVE SMOOTH",
"453 424 OFFCURVE",
"468 462 OFFCURVE",
"472 499 CURVE",
"112 499 LINE",
"118 529 LINE",
"476 529 LINE",
"476 561 OFFCURVE",
"470 594 OFFCURVE",
"451 621 CURVE SMOOTH",
"431 648 OFFCURVE",
"401 666 OFFCURVE",
"354 666 CURVE SMOOTH",
"145 666 LINE",
"151 698 LINE",
"658 698 LINE",
"652 666 LINE",
"440 666 LINE",
"440 664 LINE",
"485 645 OFFCURVE",
"511 592 OFFCURVE",
"511 529 CURVE",
"625 529 LINE",
"619 499 LINE",
"508 499 LINE",
"501 447 OFFCURVE",
"480 401 OFFCURVE",
"445 369 CURVE SMOOTH",
"410 336 OFFCURVE",
"361 316 OFFCURVE",
"300 316 CURVE SMOOTH",
"273 316 LINE",
"449 0 LINE"
);
}
);
width = 601;
}
);
unicode = 20B9;
},
{
glyphname = uni20BA;
layers = (
{
layerId = "F5C437A1-5BE8-4656-AC88-288CA2D4AAEB";
name = "Light Italic";
paths = (
{
closed = 1;
nodes = (
"163 287 LINE",
"30 229 LINE",
"36 263 LINE",
"170 322 LINE",
"194 441 LINE",
"59 382 LINE",
"65 416 LINE",
"201 475 LINE",
"245 698 LINE",
"281 698 LINE",
"239 491 LINE",
"468 593 LINE",
"462 559 LINE",
"232 456 LINE",
"208 339 LINE",
"437 441 LINE",
"431 407 LINE",
"201 304 LINE",
"148 32 LINE",
"274 32 LINE SMOOTH",
"343 32 OFFCURVE",
"399 60 OFFCURVE",
"443 109 CURVE SMOOTH",
"486 157 OFFCURVE",
"515 225 OFFCURVE",
"531 305 CURVE",
"567 305 LINE",
"550 216 OFFCURVE",
"517 140 OFFCURVE",
"468 86 CURVE SMOOTH",
"419 32 OFFCURVE",
"353 0 OFFCURVE",
"272 0 CURVE SMOOTH",
"106 0 LINE"
);
}
);
width = 621;
}
);
unicode = 20BA;
},
{
glyphname = uni20BD;
layers = (
{
layerId = "F5C437A1-5BE8-4656-AC88-288CA2D4AAEB";
name = "Light Italic";
paths = (
{
closed = 1;
nodes = (
"130 163 LINE",
"96 0 LINE",
"60 0 LINE",
"94 163 LINE",
"3 163 LINE",
"9 194 LINE",
"100 194 LINE",
"124 316 LINE",
"34 316 LINE",
"40 348 LINE",
"131 348 LINE",
"200 698 LINE",
"449 698 LINE SMOOTH",
"553 698 OFFCURVE",
"605 633 OFFCURVE",
"605 545 CURVE SMOOTH",
"605 476 OFFCURVE",
"584 418 OFFCURVE",
"548 378 CURVE SMOOTH",
"511 338 OFFCURVE",
"457 316 OFFCURVE",
"390 316 CURVE SMOOTH",
"160 316 LINE",
"136 194 LINE",
"386 194 LINE",
"380 163 LINE"
);
},
{
closed = 1;
nodes = (
"167 348 LINE",
"394 348 LINE SMOOTH",
"489 348 OFFCURVE",
"544 402 OFFCURVE",
"559 479 CURVE SMOOTH",
"563 499 OFFCURVE",
"566 514 OFFCURVE",
"567 525 CURVE SMOOTH",
"568 535 OFFCURVE",
"569 543 OFFCURVE",
"569 549 CURVE SMOOTH",
"569 614 OFFCURVE",
"533 666 OFFCURVE",
"446 666 CURVE SMOOTH",
"229 666 LINE"
);
}
);
width = 601;
}
);
unicode = 20BD;
},
{
glyphname = uni20BF;
layers = (
{
layerId = "F5C437A1-5BE8-4656-AC88-288CA2D4AAEB";
name = "Light Italic";
paths = (
{
closed = 1;
nodes = (
"277 20 LINE",
"188 20 LINE",
"167 -82 LINE",
"136 -82 LINE",
"157 20 LINE",
"55 20 LINE",
"186 677 LINE",
"287 677 LINE",
"308 780 LINE",
"339 780 LINE",
"318 677 LINE",
"407 677 LINE",
"428 781 LINE",
"459 781 LINE",
"438 675 LINE",
"510 664 OFFCURVE",
"556 623 OFFCURVE",
"556 547 CURVE SMOOTH",
"556 458 OFFCURVE",
"516 388 OFFCURVE",
"416 368 CURVE",
"416 365 LINE",
"487 350 OFFCURVE",
"521 297 OFFCURVE",
"521 228 CURVE SMOOTH",
"521 171 OFFCURVE",
"506 119 OFFCURVE",
"473 82 CURVE SMOOTH",
"440 45 OFFCURVE",
"385 21 OFFCURVE",
"308 20 CURVE",
"287 -82 LINE",
"256 -82 LINE"
);
},
{
closed = 1;
nodes = (
"162 380 LINE",
"339 380 LINE SMOOTH",
"436 380 OFFCURVE",
"497 420 OFFCURVE",
"509 484 CURVE SMOOTH",
"512 503 OFFCURVE",
"515 516 OFFCURVE",
"516 525 CURVE SMOOTH",
"517 534 OFFCURVE",
"518 541 OFFCURVE",
"518 547 CURVE SMOOTH",
"518 618 OFFCURVE",
"470 645 OFFCURVE",
"390 645 CURVE SMOOTH",
"215 645 LINE"
);
},
{
closed = 1;
nodes = (
"97 52 LINE",
"311 52 LINE SMOOTH",
"403 52 OFFCURVE",
"459 91 OFFCURVE",
"474 163 CURVE SMOOTH",
"478 182 OFFCURVE",
"481 197 OFFCURVE",
"482 208 CURVE SMOOTH",
"483 218 OFFCURVE",
"484 226 OFFCURVE",
"484 232 CURVE SMOOTH",
"484 296 OFFCURVE",
"446 348 OFFCURVE",
"357 348 CURVE SMOOTH",
"156 348 LINE"
);
}
);
width = 601;
}
);
unicode = 20BF;
},
{
glyphname = fi;
layers = (
{
layerId = "F5C437A1-5BE8-4656-AC88-288CA2D4AAEB";
name = "Light Italic";
paths = (
{
closed = 1;
nodes = (
"74 508 LINE",
"170 508 LINE",
"205 688 LINE SMOOTH",
"212 724 OFFCURVE",
"226 740 OFFCURVE",
"267 740 CURVE SMOOTH",
"355 740 LINE",
"349 709 LINE",
"243 709 LINE",
"204 508 LINE",
"467 508 LINE",
"371 31 LINE",
"454 31 LINE",
"447 0 LINE",
"374 0 LINE SMOOTH",
"351 0 OFFCURVE",
"339 10 OFFCURVE",
"339 31 CURVE SMOOTH",
"339 39 OFFCURVE",
"343 61 OFFCURVE",
"346 73 CURVE",
"427 477 LINE",
"198 477 LINE",
"74 -148 LINE SMOOTH",
"67 -184 OFFCURVE",
"54 -200 OFFCURVE",
"13 -200 CURVE SMOOTH",
"-65 -200 LINE",
"-59 -169 LINE",
"36 -169 LINE",
"164 477 LINE",
"68 477 LINE"
);
},
{
closed = 1;
nodes = (
"464 664 OFFCURVE",
"458 674 OFFCURVE",
"458 685 CURVE SMOOTH",
"458 689 OFFCURVE",
"458 693 OFFCURVE",
"461 702 CURVE",
"464 717 OFFCURVE",
"473 726 OFFCURVE",
"494 726 CURVE SMOOTH",
"513 726 OFFCURVE",
"519 717 OFFCURVE",
"519 706 CURVE SMOOTH",
"519 704 OFFCURVE",
"519 702 OFFCURVE",
"519 700 CURVE",
"518 697 OFFCURVE",
"518 693 OFFCURVE",
"517 688 CURVE",
"513 673 OFFCURVE",
"504 664 OFFCURVE",
"483 664 CURVE SMOOTH"
);
}
);
width = 524;
}
);
leftKerningGroup = f;
rightKerningGroup = i;
unicode = FB01;
},
{
glyphname = fl;
layers = (
{
layerId = "F5C437A1-5BE8-4656-AC88-288CA2D4AAEB";
name = "Light Italic";
paths = (
{
closed = 1;
nodes = (
"74 508 LINE",
"170 508 LINE",
"205 688 LINE SMOOTH",
"212 724 OFFCURVE",
"225 740 OFFCURVE",
"265 740 CURVE SMOOTH",
"355 740 LINE",
"349 709 LINE",
"243 709 LINE",
"204 508 LINE",
"308 508 LINE",
"302 477 LINE",
"198 477 LINE",
"74 -148 LINE SMOOTH",
"67 -184 OFFCURVE",
"55 -200 OFFCURVE",
"15 -200 CURVE SMOOTH",
"-65 -200 LINE",
"-59 -169 LINE",
"36 -169 LINE",
"164 477 LINE",
"68 477 LINE"
);
},
{
closed = 1;
nodes = (
"374 0 LINE SMOOTH",
"352 0 OFFCURVE",
"341 9 OFFCURVE",
"341 28 CURVE SMOOTH",
"341 33 OFFCURVE",
"342 41 OFFCURVE",
"344 51 CURVE SMOOTH",
"481 740 LINE",
"515 740 LINE",
"374 31 LINE",
"457 31 LINE",
"451 0 LINE"
);
}
);
width = 526;
}
);
leftKerningGroup = f;
rightKerningGroup = d;
unicode = FB02;
},
{
glyphname = aacute;
layers = (
{
layerId = "F5C437A1-5BE8-4656-AC88-288CA2D4AAEB";
name = "Light Italic";
paths = (
{
closed = 1;
nodes = (
"419 0 LINE SMOOTH",
"396 0 OFFCURVE",
"385 10 OFFCURVE",
"385 29 CURVE SMOOTH",
"385 36 OFFCURVE",
"386 41 OFFCURVE",
"387 48 CURVE",
"400 111 LINE",
"397 111 LINE",
"354 34 OFFCURVE",
"303 -12 OFFCURVE",
"220 -12 CURVE SMOOTH",
"168 -12 OFFCURVE",
"128 8 OFFCURVE",
"101 42 CURVE SMOOTH",
"73 76 OFFCURVE",
"58 122 OFFCURVE",
"58 178 CURVE SMOOTH",
"58 266 OFFCURVE",
"80 351 OFFCURVE",
"122 415 CURVE SMOOTH",
"164 479 OFFCURVE",
"227 520 OFFCURVE",
"308 520 CURVE SMOOTH",
"388 520 OFFCURVE",
"440 481 OFFCURVE",
"459 417 CURVE",
"462 417 LINE",
"480 508 LINE",
"514 508 LINE",
"419 31 LINE",
"501 31 LINE",
"495 0 LINE"
);
},
{
closed = 1;
nodes = (
"268 19 OFFCURVE",
"299 32 OFFCURVE",
"334 61 CURVE SMOOTH",
"373 94 OFFCURVE",
"407 144 OFFCURVE",
"420 211 CURVE SMOOTH",
"447 344 LINE SMOOTH",
"454 377 OFFCURVE",
"448 413 OFFCURVE",
"426 441 CURVE SMOOTH",
"404 469 OFFCURVE",
"365 489 OFFCURVE",
"309 489 CURVE SMOOTH",
"201 489 OFFCURVE",
"132 411 OFFCURVE",
"107 286 CURVE SMOOTH",
"99 242 LINE SMOOTH",
"95 221 OFFCURVE",
"93 202 OFFCURVE",
"93 175 CURVE SMOOTH",
"93 132 OFFCURVE",
"103 93 OFFCURVE",
"125 65 CURVE SMOOTH",
"147 37 OFFCURVE",
"178 19 OFFCURVE",
"225 19 CURVE SMOOTH"
);
},
{
closed = 1;
nodes = (
"327 587 LINE",
"305 601 LINE",
"439 758 LINE",
"468 739 LINE"
);
}
);
width = 571;
}
);
leftKerningGroup = a;
rightKerningGroup = a;
unicode = 00E1;
},
{
glyphname = abreve;
layers = (
{
layerId = "F5C437A1-5BE8-4656-AC88-288CA2D4AAEB";
name = "Light Italic";
paths = (
{
closed = 1;
nodes = (
"419 0 LINE SMOOTH",
"396 0 OFFCURVE",
"385 10 OFFCURVE",
"385 29 CURVE SMOOTH",
"385 36 OFFCURVE",
"386 41 OFFCURVE",
"387 48 CURVE",
"400 111 LINE",
"397 111 LINE",
"354 34 OFFCURVE",
"303 -12 OFFCURVE",
"220 -12 CURVE SMOOTH",
"168 -12 OFFCURVE",
"128 8 OFFCURVE",
"101 42 CURVE SMOOTH",
"73 76 OFFCURVE",
"58 122 OFFCURVE",
"58 178 CURVE SMOOTH",
"58 266 OFFCURVE",
"80 351 OFFCURVE",
"122 415 CURVE SMOOTH",
"164 479 OFFCURVE",
"227 520 OFFCURVE",
"308 520 CURVE SMOOTH",
"388 520 OFFCURVE",
"440 481 OFFCURVE",
"459 417 CURVE",
"462 417 LINE",
"480 508 LINE",
"514 508 LINE",
"419 31 LINE",
"501 31 LINE",
"495 0 LINE"
);
},
{
closed = 1;
nodes = (
"268 19 OFFCURVE",
"299 32 OFFCURVE",
"334 61 CURVE SMOOTH",
"373 94 OFFCURVE",
"407 144 OFFCURVE",
"420 211 CURVE SMOOTH",
"447 344 LINE SMOOTH",
"454 377 OFFCURVE",
"448 413 OFFCURVE",
"426 441 CURVE SMOOTH",
"404 469 OFFCURVE",
"365 489 OFFCURVE",
"309 489 CURVE SMOOTH",
"201 489 OFFCURVE",
"132 411 OFFCURVE",
"107 286 CURVE SMOOTH",
"99 242 LINE SMOOTH",
"95 221 OFFCURVE",
"93 202 OFFCURVE",
"93 175 CURVE SMOOTH",
"93 132 OFFCURVE",
"103 93 OFFCURVE",
"125 65 CURVE SMOOTH",
"147 37 OFFCURVE",
"178 19 OFFCURVE",
"225 19 CURVE SMOOTH"
);
},
{
closed = 1;
nodes = (
"308 604 OFFCURVE",
"284 617 OFFCURVE",
"266 638 CURVE SMOOTH",
"248 659 OFFCURVE",
"235 690 OFFCURVE",
"226 725 CURVE",
"249 735 LINE",
"263 701 LINE SMOOTH",
"283 653 OFFCURVE",
"305 633 OFFCURVE",
"345 633 CURVE SMOOTH",
"389 633 OFFCURVE",
"414 650 OFFCURVE",
"451 702 CURVE SMOOTH",
"474 735 LINE",
"497 725 LINE",
"476 690 OFFCURVE",
"457 660 OFFCURVE",
"434 639 CURVE SMOOTH",
"410 618 OFFCURVE",
"382 604 OFFCURVE",
"345 604 CURVE SMOOTH"
);
}
);
width = 571;
}
);
leftKerningGroup = a;
rightKerningGroup = a;
unicode = 0103;
},
{
glyphname = acircumflex;
layers = (
{
layerId = "F5C437A1-5BE8-4656-AC88-288CA2D4AAEB";
name = "Light Italic";
paths = (
{
closed = 1;
nodes = (
"419 0 LINE SMOOTH",
"396 0 OFFCURVE",
"385 10 OFFCURVE",
"385 29 CURVE SMOOTH",
"385 36 OFFCURVE",
"386 41 OFFCURVE",
"387 48 CURVE",
"400 111 LINE",
"397 111 LINE",
"354 34 OFFCURVE",
"303 -12 OFFCURVE",
"220 -12 CURVE SMOOTH",
"168 -12 OFFCURVE",
"128 8 OFFCURVE",
"101 42 CURVE SMOOTH",
"73 76 OFFCURVE",
"58 122 OFFCURVE",
"58 178 CURVE SMOOTH",
"58 266 OFFCURVE",
"80 351 OFFCURVE",
"122 415 CURVE SMOOTH",
"164 479 OFFCURVE",
"227 520 OFFCURVE",
"308 520 CURVE SMOOTH",
"388 520 OFFCURVE",
"440 481 OFFCURVE",
"459 417 CURVE",
"462 417 LINE",
"480 508 LINE",
"514 508 LINE",
"419 31 LINE",
"501 31 LINE",
"495 0 LINE"
);
},
{
closed = 1;
nodes = (
"268 19 OFFCURVE",
"299 32 OFFCURVE",
"334 61 CURVE SMOOTH",
"373 94 OFFCURVE",
"407 144 OFFCURVE",
"420 211 CURVE SMOOTH",
"447 344 LINE SMOOTH",
"454 377 OFFCURVE",
"448 413 OFFCURVE",
"426 441 CURVE SMOOTH",
"404 469 OFFCURVE",
"365 489 OFFCURVE",
"309 489 CURVE SMOOTH",
"201 489 OFFCURVE",
"132 411 OFFCURVE",
"107 286 CURVE SMOOTH",
"99 242 LINE SMOOTH",
"95 221 OFFCURVE",
"93 202 OFFCURVE",
"93 175 CURVE SMOOTH",
"93 132 OFFCURVE",
"103 93 OFFCURVE",
"125 65 CURVE SMOOTH",
"147 37 OFFCURVE",
"178 19 OFFCURVE",
"225 19 CURVE SMOOTH"
);
},
{
closed = 1;
nodes = (
"390 748 LINE",
"491 612 LINE",
"469 597 LINE",
"367 721 LINE",
"222 597 LINE",
"202 614 LINE",
"350 748 LINE"
);
}
);
width = 571;
}
);
leftKerningGroup = a;
rightKerningGroup = a;
unicode = 00E2;
},
{
glyphname = adieresis;
layers = (
{
layerId = "F5C437A1-5BE8-4656-AC88-288CA2D4AAEB";
name = "Light Italic";
paths = (
{
closed = 1;
nodes = (
"419 0 LINE SMOOTH",
"396 0 OFFCURVE",
"385 10 OFFCURVE",
"385 29 CURVE SMOOTH",
"385 36 OFFCURVE",
"386 41 OFFCURVE",
"387 48 CURVE",
"400 111 LINE",
"397 111 LINE",
"354 34 OFFCURVE",
"303 -12 OFFCURVE",
"220 -12 CURVE SMOOTH",
"168 -12 OFFCURVE",
"128 8 OFFCURVE",
"101 42 CURVE SMOOTH",
"73 76 OFFCURVE",
"58 122 OFFCURVE",
"58 178 CURVE SMOOTH",
"58 266 OFFCURVE",
"80 351 OFFCURVE",
"122 415 CURVE SMOOTH",
"164 479 OFFCURVE",
"227 520 OFFCURVE",
"308 520 CURVE SMOOTH",
"388 520 OFFCURVE",
"440 481 OFFCURVE",
"459 417 CURVE",
"462 417 LINE",
"480 508 LINE",
"514 508 LINE",
"419 31 LINE",
"501 31 LINE",
"495 0 LINE"
);
},
{
closed = 1;
nodes = (
"268 19 OFFCURVE",
"299 32 OFFCURVE",
"334 61 CURVE SMOOTH",
"373 94 OFFCURVE",
"407 144 OFFCURVE",
"420 211 CURVE SMOOTH",
"447 344 LINE SMOOTH",
"454 377 OFFCURVE",
"448 413 OFFCURVE",
"426 441 CURVE SMOOTH",
"404 469 OFFCURVE",
"365 489 OFFCURVE",
"309 489 CURVE SMOOTH",
"201 489 OFFCURVE",
"132 411 OFFCURVE",
"107 286 CURVE SMOOTH",
"99 242 LINE SMOOTH",
"95 221 OFFCURVE",
"93 202 OFFCURVE",
"93 175 CURVE SMOOTH",
"93 132 OFFCURVE",
"103 93 OFFCURVE",
"125 65 CURVE SMOOTH",
"147 37 OFFCURVE",
"178 19 OFFCURVE",
"225 19 CURVE SMOOTH"
);
},
{
closed = 1;
nodes = (
"241 636 OFFCURVE",
"235 646 OFFCURVE",
"235 657 CURVE SMOOTH",
"235 664 OFFCURVE",
"239 683 OFFCURVE",
"248 692 CURVE SMOOTH",
"252 696 OFFCURVE",
"259 698 OFFCURVE",
"269 698 CURVE SMOOTH",
"288 698 OFFCURVE",
"294 688 OFFCURVE",
"294 677 CURVE SMOOTH",
"294 670 OFFCURVE",
"290 651 OFFCURVE",
"282 643 CURVE SMOOTH",
"277 638 OFFCURVE",
"270 636 OFFCURVE",
"260 636 CURVE SMOOTH"
);
},
{
closed = 1;
nodes = (
"423 636 OFFCURVE",
"417 646 OFFCURVE",
"417 657 CURVE SMOOTH",
"417 664 OFFCURVE",
"421 683 OFFCURVE",
"430 692 CURVE SMOOTH",
"434 696 OFFCURVE",
"441 698 OFFCURVE",
"451 698 CURVE SMOOTH",
"470 698 OFFCURVE",
"476 688 OFFCURVE",
"476 677 CURVE SMOOTH",
"476 670 OFFCURVE",
"472 651 OFFCURVE",
"464 643 CURVE SMOOTH",
"459 638 OFFCURVE",
"452 636 OFFCURVE",
"442 636 CURVE SMOOTH"
);
}
);
width = 571;
}
);
leftKerningGroup = a;
rightKerningGroup = a;
unicode = 00E4;
},
{
glyphname = uni1EA1;
layers = (
{
layerId = "F5C437A1-5BE8-4656-AC88-288CA2D4AAEB";
name = "Light Italic";
paths = (
{
closed = 1;
nodes = (
"419 0 LINE SMOOTH",
"396 0 OFFCURVE",
"385 10 OFFCURVE",
"385 29 CURVE SMOOTH",
"385 36 OFFCURVE",
"386 41 OFFCURVE",
"387 48 CURVE",
"400 111 LINE",
"397 111 LINE",
"354 34 OFFCURVE",
"303 -12 OFFCURVE",
"220 -12 CURVE SMOOTH",
"168 -12 OFFCURVE",
"128 8 OFFCURVE",
"101 42 CURVE SMOOTH",
"73 76 OFFCURVE",
"58 122 OFFCURVE",
"58 178 CURVE SMOOTH",
"58 266 OFFCURVE",
"80 351 OFFCURVE",
"122 415 CURVE SMOOTH",
"164 479 OFFCURVE",
"227 520 OFFCURVE",
"308 520 CURVE SMOOTH",
"388 520 OFFCURVE",
"440 481 OFFCURVE",
"459 417 CURVE",
"462 417 LINE",
"480 508 LINE",
"514 508 LINE",
"419 31 LINE",
"501 31 LINE",
"495 0 LINE"
);
},
{
closed = 1;
nodes = (
"268 19 OFFCURVE",
"299 32 OFFCURVE",
"334 61 CURVE SMOOTH",
"373 94 OFFCURVE",
"407 144 OFFCURVE",
"420 211 CURVE SMOOTH",
"447 344 LINE SMOOTH",
"454 377 OFFCURVE",
"448 413 OFFCURVE",
"426 441 CURVE SMOOTH",
"404 469 OFFCURVE",
"365 489 OFFCURVE",
"309 489 CURVE SMOOTH",
"201 489 OFFCURVE",
"132 411 OFFCURVE",
"107 286 CURVE SMOOTH",
"99 242 LINE SMOOTH",
"95 221 OFFCURVE",
"93 202 OFFCURVE",
"93 175 CURVE SMOOTH",
"93 132 OFFCURVE",
"103 93 OFFCURVE",
"125 65 CURVE SMOOTH",
"147 37 OFFCURVE",
"178 19 OFFCURVE",
"225 19 CURVE SMOOTH"
);
},
{
closed = 1;
nodes = (
"187 -142 OFFCURVE",
"180 -133 OFFCURVE",
"180 -121 CURVE SMOOTH",
"180 -114 OFFCURVE",
"184 -96 OFFCURVE",
"193 -87 CURVE",
"197 -82 OFFCURVE",
"204 -80 OFFCURVE",
"214 -80 CURVE SMOOTH",
"233 -80 OFFCURVE",
"239 -90 OFFCURVE",
"239 -102 CURVE SMOOTH",
"239 -110 OFFCURVE",
"236 -127 OFFCURVE",
"228 -135 CURVE SMOOTH",
"223 -140 OFFCURVE",
"216 -142 OFFCURVE",
"206 -142 CURVE SMOOTH"
);
}
);
width = 571;
}
);
leftKerningGroup = a;
rightKerningGroup = a;
unicode = 1EA1;
},
{
glyphname = agrave;
layers = (
{
layerId = "F5C437A1-5BE8-4656-AC88-288CA2D4AAEB";
name = "Light Italic";
paths = (
{
closed = 1;
nodes = (
"419 0 LINE SMOOTH",
"396 0 OFFCURVE",
"385 10 OFFCURVE",
"385 29 CURVE SMOOTH",
"385 36 OFFCURVE",
"386 41 OFFCURVE",
"387 48 CURVE",
"400 111 LINE",
"397 111 LINE",
"354 34 OFFCURVE",
"303 -12 OFFCURVE",
"220 -12 CURVE SMOOTH",
"168 -12 OFFCURVE",
"128 8 OFFCURVE",
"101 42 CURVE SMOOTH",
"73 76 OFFCURVE",
"58 122 OFFCURVE",
"58 178 CURVE SMOOTH",
"58 266 OFFCURVE",
"80 351 OFFCURVE",
"122 415 CURVE SMOOTH",
"164 479 OFFCURVE",
"227 520 OFFCURVE",
"308 520 CURVE SMOOTH",
"388 520 OFFCURVE",
"440 481 OFFCURVE",
"459 417 CURVE",
"462 417 LINE",
"480 508 LINE",
"514 508 LINE",
"419 31 LINE",
"501 31 LINE",
"495 0 LINE"
);
},
{
closed = 1;
nodes = (
"268 19 OFFCURVE",
"299 32 OFFCURVE",
"334 61 CURVE SMOOTH",
"373 94 OFFCURVE",
"407 144 OFFCURVE",
"420 211 CURVE SMOOTH",
"447 344 LINE SMOOTH",
"454 377 OFFCURVE",
"448 413 OFFCURVE",
"426 441 CURVE SMOOTH",
"404 469 OFFCURVE",
"365 489 OFFCURVE",
"309 489 CURVE SMOOTH",
"201 489 OFFCURVE",
"132 411 OFFCURVE",
"107 286 CURVE SMOOTH",
"99 242 LINE SMOOTH",
"95 221 OFFCURVE",
"93 202 OFFCURVE",
"93 175 CURVE SMOOTH",
"93 132 OFFCURVE",
"103 93 OFFCURVE",
"125 65 CURVE SMOOTH",
"147 37 OFFCURVE",
"178 19 OFFCURVE",
"225 19 CURVE SMOOTH"
);
},
{
closed = 1;
nodes = (
"263 741 LINE",
"294 757 LINE",
"370 598 LINE",
"347 587 LINE"
);
}
);
width = 571;
}
);
leftKerningGroup = a;
rightKerningGroup = a;
unicode = 00E0;
},
{
glyphname = uni1EA3;
layers = (
{
layerId = "F5C437A1-5BE8-4656-AC88-288CA2D4AAEB";
name = "Light Italic";
paths = (
{
closed = 1;
nodes = (
"419 0 LINE SMOOTH",
"396 0 OFFCURVE",
"385 10 OFFCURVE",
"385 29 CURVE SMOOTH",
"385 36 OFFCURVE",
"386 41 OFFCURVE",
"387 48 CURVE",
"400 111 LINE",
"397 111 LINE",
"354 34 OFFCURVE",
"303 -12 OFFCURVE",
"220 -12 CURVE SMOOTH",
"168 -12 OFFCURVE",
"128 8 OFFCURVE",
"101 42 CURVE SMOOTH",
"73 76 OFFCURVE",
"58 122 OFFCURVE",
"58 178 CURVE SMOOTH",
"58 266 OFFCURVE",
"80 351 OFFCURVE",
"122 415 CURVE SMOOTH",
"164 479 OFFCURVE",
"227 520 OFFCURVE",
"308 520 CURVE SMOOTH",
"388 520 OFFCURVE",
"440 481 OFFCURVE",
"459 417 CURVE",
"462 417 LINE",
"480 508 LINE",
"514 508 LINE",
"419 31 LINE",
"501 31 LINE",
"495 0 LINE"
);
},
{
closed = 1;
nodes = (
"268 19 OFFCURVE",
"299 32 OFFCURVE",
"334 61 CURVE SMOOTH",
"373 94 OFFCURVE",
"407 144 OFFCURVE",
"420 211 CURVE SMOOTH",
"447 344 LINE SMOOTH",
"454 377 OFFCURVE",
"448 413 OFFCURVE",
"426 441 CURVE SMOOTH",
"404 469 OFFCURVE",
"365 489 OFFCURVE",
"309 489 CURVE SMOOTH",
"201 489 OFFCURVE",
"132 411 OFFCURVE",
"107 286 CURVE SMOOTH",
"99 242 LINE SMOOTH",
"95 221 OFFCURVE",
"93 202 OFFCURVE",
"93 175 CURVE SMOOTH",
"93 132 OFFCURVE",
"103 93 OFFCURVE",
"125 65 CURVE SMOOTH",
"147 37 OFFCURVE",
"178 19 OFFCURVE",
"225 19 CURVE SMOOTH"
);
},
{
closed = 1;
nodes = (
"295 744 LINE",
"422 744 LINE SMOOTH",
"447 744 OFFCURVE",
"455 733 OFFCURVE",
"455 721 CURVE SMOOTH",
"455 714 OFFCURVE",
"452 706 OFFCURVE",
"446 697 CURVE SMOOTH",
"440 688 OFFCURVE",
"428 674 OFFCURVE",
"411 654 CURVE SMOOTH",
"352 583 LINE",
"331 596 LINE",
"425 716 LINE",
"291 716 LINE"
);
}
);
width = 571;
}
);
leftKerningGroup = a;
rightKerningGroup = a;
unicode = 1EA3;
},
{
glyphname = amacron;
layers = (
{
layerId = "F5C437A1-5BE8-4656-AC88-288CA2D4AAEB";
name = "Light Italic";
paths = (
{
closed = 1;
nodes = (
"419 0 LINE SMOOTH",
"396 0 OFFCURVE",
"385 10 OFFCURVE",
"385 29 CURVE SMOOTH",
"385 36 OFFCURVE",
"386 41 OFFCURVE",
"387 48 CURVE",
"400 111 LINE",
"397 111 LINE",
"354 34 OFFCURVE",
"303 -12 OFFCURVE",
"220 -12 CURVE SMOOTH",
"168 -12 OFFCURVE",
"128 8 OFFCURVE",
"101 42 CURVE SMOOTH",
"73 76 OFFCURVE",
"58 122 OFFCURVE",
"58 178 CURVE SMOOTH",
"58 266 OFFCURVE",
"80 351 OFFCURVE",
"122 415 CURVE SMOOTH",
"164 479 OFFCURVE",
"227 520 OFFCURVE",
"308 520 CURVE SMOOTH",
"388 520 OFFCURVE",
"440 481 OFFCURVE",
"459 417 CURVE",
"462 417 LINE",
"480 508 LINE",
"514 508 LINE",
"419 31 LINE",
"501 31 LINE",
"495 0 LINE"
);
},
{
closed = 1;
nodes = (
"268 19 OFFCURVE",
"299 32 OFFCURVE",
"334 61 CURVE SMOOTH",
"373 94 OFFCURVE",
"407 144 OFFCURVE",
"420 211 CURVE SMOOTH",
"447 344 LINE SMOOTH",
"454 377 OFFCURVE",
"448 413 OFFCURVE",
"426 441 CURVE SMOOTH",
"404 469 OFFCURVE",
"365 489 OFFCURVE",
"309 489 CURVE SMOOTH",
"201 489 OFFCURVE",
"132 411 OFFCURVE",
"107 286 CURVE SMOOTH",
"99 242 LINE SMOOTH",
"95 221 OFFCURVE",
"93 202 OFFCURVE",
"93 175 CURVE SMOOTH",
"93 132 OFFCURVE",
"103 93 OFFCURVE",
"125 65 CURVE SMOOTH",
"147 37 OFFCURVE",
"178 19 OFFCURVE",
"225 19 CURVE SMOOTH"
);
},
{
closed = 1;
nodes = (
"227 683 LINE",
"488 683 LINE",
"482 653 LINE",
"221 653 LINE"
);
}
);
width = 571;
}
);
leftKerningGroup = a;
rightKerningGroup = a;
unicode = 0101;
},
{
glyphname = aogonek;
layers = (
{
layerId = "F5C437A1-5BE8-4656-AC88-288CA2D4AAEB";
name = "Light Italic";
paths = (
{
closed = 1;
nodes = (
"495 0 LINE",
"443 -31 OFFCURVE",
"408 -53 OFFCURVE",
"386 -73 CURVE SMOOTH",
"364 -93 OFFCURVE",
"354 -112 OFFCURVE",
"354 -133 CURVE SMOOTH",
"354 -162 OFFCURVE",
"373 -177 OFFCURVE",
"400 -177 CURVE SMOOTH",
"429 -177 OFFCURVE",
"448 -166 OFFCURVE",
"463 -151 CURVE",
"481 -170 LINE",
"465 -189 OFFCURVE",
"436 -203 OFFCURVE",
"399 -203 CURVE SMOOTH",
"356 -203 OFFCURVE",
"322 -182 OFFCURVE",
"322 -135 CURVE SMOOTH",
"322 -115 OFFCURVE",
"330 -94 OFFCURVE",
"351 -72 CURVE SMOOTH",
"371 -50 OFFCURVE",
"405 -28 OFFCURVE",
"457 -3 CURVE",
"456 0 LINE",
"419 0 LINE SMOOTH",
"396 0 OFFCURVE",
"385 10 OFFCURVE",
"385 29 CURVE SMOOTH",
"385 36 OFFCURVE",
"386 41 OFFCURVE",
"387 48 CURVE",
"400 111 LINE",
"397 111 LINE",
"354 34 OFFCURVE",
"303 -12 OFFCURVE",
"219 -12 CURVE SMOOTH",
"168 -12 OFFCURVE",
"128 8 OFFCURVE",
"101 42 CURVE SMOOTH",
"73 76 OFFCURVE",
"58 123 OFFCURVE",
"58 178 CURVE SMOOTH",
"58 266 OFFCURVE",
"80 352 OFFCURVE",
"122 416 CURVE SMOOTH",
"164 479 OFFCURVE",
"227 520 OFFCURVE",
"308 520 CURVE SMOOTH",
"388 520 OFFCURVE",
"440 481 OFFCURVE",
"459 418 CURVE",
"462 418 LINE",
"480 508 LINE",
"514 508 LINE",
"419 31 LINE",
"501 31 LINE"
);
},
{
closed = 1;
nodes = (
"267 19 OFFCURVE",
"299 31 OFFCURVE",
"334 62 CURVE",
"373 94 OFFCURVE",
"407 146 OFFCURVE",
"420 211 CURVE SMOOTH",
"448 349 LINE",
"453 380 OFFCURVE",
"447 414 OFFCURVE",
"425 442 CURVE SMOOTH",
"403 469 OFFCURVE",
"365 489 OFFCURVE",
"310 489 CURVE SMOOTH",
"201 489 OFFCURVE",
"132 412 OFFCURVE",
"107 287 CURVE SMOOTH",
"98 242 LINE",
"95 221 OFFCURVE",
"93 201 OFFCURVE",
"93 176 CURVE SMOOTH",
"93 132 OFFCURVE",
"103 93 OFFCURVE",
"124 65 CURVE SMOOTH",
"145 37 OFFCURVE",
"179 19 OFFCURVE",
"224 19 CURVE SMOOTH"
);
}
);
width = 571;
}
);
leftKerningGroup = a;
rightKerningGroup = a;
unicode = 0105;
},
{
glyphname = aring;
layers = (
{
layerId = "F5C437A1-5BE8-4656-AC88-288CA2D4AAEB";
name = "Light Italic";
paths = (
{
closed = 1;
nodes = (
"419 0 LINE SMOOTH",
"396 0 OFFCURVE",
"385 10 OFFCURVE",
"385 29 CURVE SMOOTH",
"385 36 OFFCURVE",
"386 41 OFFCURVE",
"387 48 CURVE",
"400 111 LINE",
"397 111 LINE",
"354 34 OFFCURVE",
"303 -12 OFFCURVE",
"220 -12 CURVE SMOOTH",
"168 -12 OFFCURVE",
"128 8 OFFCURVE",
"101 42 CURVE SMOOTH",
"73 76 OFFCURVE",
"58 122 OFFCURVE",
"58 178 CURVE SMOOTH",
"58 266 OFFCURVE",
"80 351 OFFCURVE",
"122 415 CURVE SMOOTH",
"164 479 OFFCURVE",
"227 520 OFFCURVE",
"308 520 CURVE SMOOTH",
"388 520 OFFCURVE",
"440 481 OFFCURVE",
"459 417 CURVE",
"462 417 LINE",
"480 508 LINE",
"514 508 LINE",
"419 31 LINE",
"501 31 LINE",
"495 0 LINE"
);
},
{
closed = 1;
nodes = (
"268 19 OFFCURVE",
"299 32 OFFCURVE",
"334 61 CURVE SMOOTH",
"373 94 OFFCURVE",
"407 144 OFFCURVE",
"420 211 CURVE SMOOTH",
"447 344 LINE SMOOTH",
"454 377 OFFCURVE",
"448 413 OFFCURVE",
"426 441 CURVE SMOOTH",
"404 469 OFFCURVE",
"365 489 OFFCURVE",
"309 489 CURVE SMOOTH",
"201 489 OFFCURVE",
"132 411 OFFCURVE",
"107 286 CURVE SMOOTH",
"99 242 LINE SMOOTH",
"95 221 OFFCURVE",
"93 202 OFFCURVE",
"93 175 CURVE SMOOTH",
"93 132 OFFCURVE",
"103 93 OFFCURVE",
"125 65 CURVE SMOOTH",
"147 37 OFFCURVE",
"178 19 OFFCURVE",
"225 19 CURVE SMOOTH"
);
},
{
closed = 1;
nodes = (
"311 586 OFFCURVE",
"291 596 OFFCURVE",
"278 611 CURVE SMOOTH",
"265 626 OFFCURVE",
"259 645 OFFCURVE",
"259 664 CURVE SMOOTH",
"259 733 OFFCURVE",
"302 779 OFFCURVE",
"370 779 CURVE SMOOTH",
"399 779 OFFCURVE",
"421 769 OFFCURVE",
"434 754 CURVE SMOOTH",
"447 739 OFFCURVE",
"453 720 OFFCURVE",
"453 701 CURVE SMOOTH",
"453 632 OFFCURVE",
"410 586 OFFCURVE",
"342 586 CURVE SMOOTH"
);
},
{
closed = 1;
nodes = (
"385 611 OFFCURVE",
"414 632 OFFCURVE",
"422 675 CURVE",
"423 683 OFFCURVE",
"424 689 OFFCURVE",
"425 693 CURVE",
"426 696 OFFCURVE",
"426 700 OFFCURVE",
"426 703 CURVE SMOOTH",
"426 734 OFFCURVE",
"405 754 OFFCURVE",
"366 754 CURVE SMOOTH",
"327 754 OFFCURVE",
"298 733 OFFCURVE",
"290 690 CURVE",
"289 682 OFFCURVE",
"288 676 OFFCURVE",
"287 673 CURVE",
"286 669 OFFCURVE",
"286 665 OFFCURVE",
"286 662 CURVE SMOOTH",
"286 631 OFFCURVE",
"307 611 OFFCURVE",
"346 611 CURVE SMOOTH"
);
}
);
width = 571;
}
);
leftKerningGroup = a;
rightKerningGroup = a;
unicode = 00E5;
},
{
glyphname = aringacute;
layers = (
{
layerId = "F5C437A1-5BE8-4656-AC88-288CA2D4AAEB";
name = "Light Italic";
paths = (
{
closed = 1;
nodes = (
"419 0 LINE SMOOTH",
"396 0 OFFCURVE",
"385 10 OFFCURVE",
"385 29 CURVE SMOOTH",
"385 36 OFFCURVE",
"386 41 OFFCURVE",
"387 48 CURVE",
"400 111 LINE",
"397 111 LINE",
"354 34 OFFCURVE",
"303 -12 OFFCURVE",
"220 -12 CURVE SMOOTH",
"168 -12 OFFCURVE",
"128 8 OFFCURVE",
"101 42 CURVE SMOOTH",
"73 76 OFFCURVE",
"58 122 OFFCURVE",
"58 178 CURVE SMOOTH",
"58 266 OFFCURVE",
"80 351 OFFCURVE",
"122 415 CURVE SMOOTH",
"164 479 OFFCURVE",
"227 520 OFFCURVE",
"308 520 CURVE SMOOTH",
"388 520 OFFCURVE",
"440 481 OFFCURVE",
"459 417 CURVE",
"462 417 LINE",
"480 508 LINE",
"514 508 LINE",
"419 31 LINE",
"501 31 LINE",
"495 0 LINE"
);
},
{
closed = 1;
nodes = (
"268 19 OFFCURVE",
"299 32 OFFCURVE",
"334 61 CURVE SMOOTH",
"373 94 OFFCURVE",
"407 144 OFFCURVE",
"420 211 CURVE SMOOTH",
"447 344 LINE SMOOTH",
"454 377 OFFCURVE",
"448 413 OFFCURVE",
"426 441 CURVE SMOOTH",
"404 469 OFFCURVE",
"365 489 OFFCURVE",
"309 489 CURVE SMOOTH",
"201 489 OFFCURVE",
"132 411 OFFCURVE",
"107 286 CURVE SMOOTH",
"99 242 LINE SMOOTH",
"95 221 OFFCURVE",
"93 202 OFFCURVE",
"93 175 CURVE SMOOTH",
"93 132 OFFCURVE",
"103 93 OFFCURVE",
"125 65 CURVE SMOOTH",
"147 37 OFFCURVE",
"178 19 OFFCURVE",
"225 19 CURVE SMOOTH"
);
},
{
closed = 1;
nodes = (
"376 803 LINE",
"357 817 LINE",
"452 922 LINE",
"477 902 LINE"
);
},
{
closed = 1;
nodes = (
"310 584 OFFCURVE",
"290 594 OFFCURVE",
"277 609 CURVE SMOOTH",
"264 624 OFFCURVE",
"258 643 OFFCURVE",
"258 662 CURVE SMOOTH",
"258 731 OFFCURVE",
"301 777 OFFCURVE",
"369 777 CURVE SMOOTH",
"398 777 OFFCURVE",
"420 767 OFFCURVE",
"433 752 CURVE SMOOTH",
"446 737 OFFCURVE",
"452 718 OFFCURVE",
"452 699 CURVE SMOOTH",
"452 630 OFFCURVE",
"409 584 OFFCURVE",
"341 584 CURVE SMOOTH"
);
},
{
closed = 1;
nodes = (
"384 609 OFFCURVE",
"413 630 OFFCURVE",
"421 673 CURVE",
"422 681 OFFCURVE",
"423 687 OFFCURVE",
"424 691 CURVE",
"425 694 OFFCURVE",
"425 698 OFFCURVE",
"425 701 CURVE SMOOTH",
"425 732 OFFCURVE",
"404 752 OFFCURVE",
"365 752 CURVE SMOOTH",
"326 752 OFFCURVE",
"297 731 OFFCURVE",
"289 688 CURVE",
"288 680 OFFCURVE",
"287 674 OFFCURVE",
"286 671 CURVE",
"285 667 OFFCURVE",
"285 663 OFFCURVE",
"285 660 CURVE SMOOTH",
"285 629 OFFCURVE",
"306 609 OFFCURVE",
"345 609 CURVE SMOOTH"
);
}
);
width = 571;
}
);
leftKerningGroup = a;
rightKerningGroup = a;
unicode = 01FB;
},
{
glyphname = atilde;
layers = (
{
layerId = "F5C437A1-5BE8-4656-AC88-288CA2D4AAEB";
name = "Light Italic";
paths = (
{
closed = 1;
nodes = (
"419 0 LINE SMOOTH",
"396 0 OFFCURVE",
"385 10 OFFCURVE",
"385 29 CURVE SMOOTH",
"385 36 OFFCURVE",
"386 41 OFFCURVE",
"387 48 CURVE",
"400 111 LINE",
"397 111 LINE",
"354 34 OFFCURVE",
"303 -12 OFFCURVE",
"220 -12 CURVE SMOOTH",
"168 -12 OFFCURVE",
"128 8 OFFCURVE",
"101 42 CURVE SMOOTH",
"73 76 OFFCURVE",
"58 122 OFFCURVE",
"58 178 CURVE SMOOTH",
"58 266 OFFCURVE",
"80 351 OFFCURVE",
"122 415 CURVE SMOOTH",
"164 479 OFFCURVE",
"227 520 OFFCURVE",
"308 520 CURVE SMOOTH",
"388 520 OFFCURVE",
"440 481 OFFCURVE",
"459 417 CURVE",
"462 417 LINE",
"480 508 LINE",
"514 508 LINE",
"419 31 LINE",
"501 31 LINE",
"495 0 LINE"
);
},
{
closed = 1;
nodes = (
"268 19 OFFCURVE",
"299 32 OFFCURVE",
"334 61 CURVE SMOOTH",
"373 94 OFFCURVE",
"407 144 OFFCURVE",
"420 211 CURVE SMOOTH",
"447 344 LINE SMOOTH",
"454 377 OFFCURVE",
"448 413 OFFCURVE",
"426 441 CURVE SMOOTH",
"404 469 OFFCURVE",
"365 489 OFFCURVE",
"309 489 CURVE SMOOTH",
"201 489 OFFCURVE",
"132 411 OFFCURVE",
"107 286 CURVE SMOOTH",
"99 242 LINE SMOOTH",
"95 221 OFFCURVE",
"93 202 OFFCURVE",
"93 175 CURVE SMOOTH",
"93 132 OFFCURVE",
"103 93 OFFCURVE",
"125 65 CURVE SMOOTH",
"147 37 OFFCURVE",
"178 19 OFFCURVE",
"225 19 CURVE SMOOTH"
);
},
{
closed = 1;
nodes = (
"390 624 OFFCURVE",
"373 634 OFFCURVE",
"346 653 CURVE SMOOTH",
"319 672 OFFCURVE",
"304 679 OFFCURVE",
"281 679 CURVE SMOOTH",
"258 679 OFFCURVE",
"239 668 OFFCURVE",
"215 647 CURVE",
"200 665 LINE",
"228 694 OFFCURVE",
"257 708 OFFCURVE",
"288 708 CURVE SMOOTH",
"316 708 OFFCURVE",
"333 698 OFFCURVE",
"360 679 CURVE SMOOTH",
"387 660 OFFCURVE",
"402 653 OFFCURVE",
"425 653 CURVE SMOOTH",
"448 653 OFFCURVE",
"467 664 OFFCURVE",
"491 685 CURVE",
"506 667 LINE",
"478 638 OFFCURVE",
"449 624 OFFCURVE",
"418 624 CURVE SMOOTH"
);
}
);
width = 571;
}
);
leftKerningGroup = a;
rightKerningGroup = a;
unicode = 00E3;
},
{
glyphname = uni1EAF;
layers = (
{
layerId = "F5C437A1-5BE8-4656-AC88-288CA2D4AAEB";
name = "Light Italic";
paths = (
{
closed = 1;
nodes = (
"419 0 LINE SMOOTH",
"396 0 OFFCURVE",
"385 10 OFFCURVE",
"385 29 CURVE SMOOTH",
"385 36 OFFCURVE",
"386 41 OFFCURVE",
"387 48 CURVE",
"400 111 LINE",
"397 111 LINE",
"354 34 OFFCURVE",
"303 -12 OFFCURVE",
"220 -12 CURVE SMOOTH",
"168 -12 OFFCURVE",
"128 8 OFFCURVE",
"101 42 CURVE SMOOTH",
"73 76 OFFCURVE",
"58 122 OFFCURVE",
"58 178 CURVE SMOOTH",
"58 266 OFFCURVE",
"80 351 OFFCURVE",
"122 415 CURVE SMOOTH",
"164 479 OFFCURVE",
"227 520 OFFCURVE",
"308 520 CURVE SMOOTH",
"388 520 OFFCURVE",
"440 481 OFFCURVE",
"459 417 CURVE",
"462 417 LINE",
"480 508 LINE",
"514 508 LINE",
"419 31 LINE",
"501 31 LINE",
"495 0 LINE"
);
},
{
closed = 1;
nodes = (
"268 19 OFFCURVE",
"299 32 OFFCURVE",
"334 61 CURVE SMOOTH",
"373 94 OFFCURVE",
"407 144 OFFCURVE",
"420 211 CURVE SMOOTH",
"447 344 LINE SMOOTH",
"454 377 OFFCURVE",
"448 413 OFFCURVE",
"426 441 CURVE SMOOTH",
"404 469 OFFCURVE",
"365 489 OFFCURVE",
"309 489 CURVE SMOOTH",
"201 489 OFFCURVE",
"132 411 OFFCURVE",
"107 286 CURVE SMOOTH",
"99 242 LINE SMOOTH",
"95 221 OFFCURVE",
"93 202 OFFCURVE",
"93 175 CURVE SMOOTH",
"93 132 OFFCURVE",
"103 93 OFFCURVE",
"125 65 CURVE SMOOTH",
"147 37 OFFCURVE",
"178 19 OFFCURVE",
"225 19 CURVE SMOOTH"
);
},
{
closed = 1;
nodes = (
"306 592 OFFCURVE",
"281 604 OFFCURVE",
"263 625 CURVE SMOOTH",
"245 645 OFFCURVE",
"233 673 OFFCURVE",
"224 705 CURVE",
"247 715 LINE",
"261 683 LINE SMOOTH",
"280 639 OFFCURVE",
"303 620 OFFCURVE",
"343 620 CURVE SMOOTH",
"387 620 OFFCURVE",
"414 634 OFFCURVE",
"449 682 CURVE SMOOTH",
"472 715 LINE",
"496 705 LINE",
"476 673 OFFCURVE",
"457 644 OFFCURVE",
"433 624 CURVE SMOOTH",
"409 604 OFFCURVE",
"380 592 OFFCURVE",
"343 592 CURVE SMOOTH"
);
},
{
closed = 1;
nodes = (
"349 697 LINE",
"328 711 LINE",
"461 868 LINE",
"490 850 LINE"
);
}
);
width = 571;
}
);
leftKerningGroup = a;
rightKerningGroup = a;
unicode = 1EAF;
},
{
glyphname = uni1EB7;
layers = (
{
layerId = "F5C437A1-5BE8-4656-AC88-288CA2D4AAEB";
name = "Light Italic";
paths = (
{
closed = 1;
nodes = (
"419 0 LINE SMOOTH",
"396 0 OFFCURVE",
"385 10 OFFCURVE",
"385 29 CURVE SMOOTH",
"385 36 OFFCURVE",
"386 41 OFFCURVE",
"387 48 CURVE",
"400 111 LINE",
"397 111 LINE",
"354 34 OFFCURVE",
"303 -12 OFFCURVE",
"220 -12 CURVE SMOOTH",
"168 -12 OFFCURVE",
"128 8 OFFCURVE",
"101 42 CURVE SMOOTH",
"73 76 OFFCURVE",
"58 122 OFFCURVE",
"58 178 CURVE SMOOTH",
"58 266 OFFCURVE",
"80 351 OFFCURVE",
"122 415 CURVE SMOOTH",
"164 479 OFFCURVE",
"227 520 OFFCURVE",
"308 520 CURVE SMOOTH",
"388 520 OFFCURVE",
"440 481 OFFCURVE",
"459 417 CURVE",
"462 417 LINE",
"480 508 LINE",
"514 508 LINE",
"419 31 LINE",
"501 31 LINE",
"495 0 LINE"
);
},
{
closed = 1;
nodes = (
"268 19 OFFCURVE",
"299 32 OFFCURVE",
"334 61 CURVE SMOOTH",
"373 94 OFFCURVE",
"407 144 OFFCURVE",
"420 211 CURVE SMOOTH",
"447 344 LINE SMOOTH",
"454 377 OFFCURVE",
"448 413 OFFCURVE",
"426 441 CURVE SMOOTH",
"404 469 OFFCURVE",
"365 489 OFFCURVE",
"309 489 CURVE SMOOTH",
"201 489 OFFCURVE",
"132 411 OFFCURVE",
"107 286 CURVE SMOOTH",
"99 242 LINE SMOOTH",
"95 221 OFFCURVE",
"93 202 OFFCURVE",
"93 175 CURVE SMOOTH",
"93 132 OFFCURVE",
"103 93 OFFCURVE",
"125 65 CURVE SMOOTH",
"147 37 OFFCURVE",
"178 19 OFFCURVE",
"225 19 CURVE SMOOTH"
);
},
{
closed = 1;
nodes = (
"308 604 OFFCURVE",
"284 617 OFFCURVE",
"266 638 CURVE SMOOTH",
"248 659 OFFCURVE",
"235 690 OFFCURVE",
"226 725 CURVE",
"249 735 LINE",
"263 701 LINE SMOOTH",
"283 653 OFFCURVE",
"305 633 OFFCURVE",
"345 633 CURVE SMOOTH",
"389 633 OFFCURVE",
"414 650 OFFCURVE",
"451 702 CURVE SMOOTH",
"474 735 LINE",
"497 725 LINE",
"476 690 OFFCURVE",
"457 660 OFFCURVE",
"434 639 CURVE SMOOTH",
"410 618 OFFCURVE",
"382 604 OFFCURVE",
"345 604 CURVE SMOOTH"
);
},
{
closed = 1;
nodes = (
"187 -142 OFFCURVE",
"180 -133 OFFCURVE",
"180 -121 CURVE SMOOTH",
"180 -114 OFFCURVE",
"184 -96 OFFCURVE",
"193 -87 CURVE",
"197 -82 OFFCURVE",
"204 -80 OFFCURVE",
"214 -80 CURVE SMOOTH",
"233 -80 OFFCURVE",
"239 -90 OFFCURVE",
"239 -102 CURVE SMOOTH",
"239 -110 OFFCURVE",
"236 -127 OFFCURVE",
"228 -135 CURVE SMOOTH",
"223 -140 OFFCURVE",
"216 -142 OFFCURVE",
"206 -142 CURVE SMOOTH"
);
}
);
width = 571;
}
);
leftKerningGroup = a;
rightKerningGroup = a;
unicode = 1EB7;
},
{
glyphname = uni1EB1;
layers = (
{
layerId = "F5C437A1-5BE8-4656-AC88-288CA2D4AAEB";
name = "Light Italic";
paths = (
{
closed = 1;
nodes = (
"419 0 LINE SMOOTH",
"396 0 OFFCURVE",
"385 10 OFFCURVE",
"385 29 CURVE SMOOTH",
"385 36 OFFCURVE",
"386 41 OFFCURVE",
"387 48 CURVE",
"400 111 LINE",
"397 111 LINE",
"354 34 OFFCURVE",
"303 -12 OFFCURVE",
"220 -12 CURVE SMOOTH",
"168 -12 OFFCURVE",
"128 8 OFFCURVE",
"101 42 CURVE SMOOTH",
"73 76 OFFCURVE",
"58 122 OFFCURVE",
"58 178 CURVE SMOOTH",
"58 266 OFFCURVE",
"80 351 OFFCURVE",
"122 415 CURVE SMOOTH",
"164 479 OFFCURVE",
"227 520 OFFCURVE",
"308 520 CURVE SMOOTH",
"388 520 OFFCURVE",
"440 481 OFFCURVE",
"459 417 CURVE",
"462 417 LINE",
"480 508 LINE",
"514 508 LINE",
"419 31 LINE",
"501 31 LINE",
"495 0 LINE"
);
},
{
closed = 1;
nodes = (
"268 19 OFFCURVE",
"299 32 OFFCURVE",
"334 61 CURVE SMOOTH",
"373 94 OFFCURVE",
"407 144 OFFCURVE",
"420 211 CURVE SMOOTH",
"447 344 LINE SMOOTH",
"454 377 OFFCURVE",
"448 413 OFFCURVE",
"426 441 CURVE SMOOTH",
"404 469 OFFCURVE",
"365 489 OFFCURVE",
"309 489 CURVE SMOOTH",
"201 489 OFFCURVE",
"132 411 OFFCURVE",
"107 286 CURVE SMOOTH",
"99 242 LINE SMOOTH",
"95 221 OFFCURVE",
"93 202 OFFCURVE",
"93 175 CURVE SMOOTH",
"93 132 OFFCURVE",
"103 93 OFFCURVE",
"125 65 CURVE SMOOTH",
"147 37 OFFCURVE",
"178 19 OFFCURVE",
"225 19 CURVE SMOOTH"
);
},
{
closed = 1;
nodes = (
"306 592 OFFCURVE",
"281 604 OFFCURVE",
"263 625 CURVE SMOOTH",
"245 645 OFFCURVE",
"233 673 OFFCURVE",
"224 705 CURVE",
"247 715 LINE",
"261 683 LINE SMOOTH",
"280 639 OFFCURVE",
"303 620 OFFCURVE",
"343 620 CURVE SMOOTH",
"387 620 OFFCURVE",
"414 634 OFFCURVE",
"449 682 CURVE SMOOTH",
"472 715 LINE",
"496 705 LINE",
"476 673 OFFCURVE",
"457 644 OFFCURVE",
"433 624 CURVE SMOOTH",
"409 604 OFFCURVE",
"380 592 OFFCURVE",
"343 592 CURVE SMOOTH"
);
},
{
closed = 1;
nodes = (
"271 852 LINE",
"302 868 LINE",
"378 710 LINE",
"355 698 LINE"
);
}
);
width = 571;
}
);
leftKerningGroup = a;
rightKerningGroup = a;
unicode = 1EB1;
},
{
glyphname = uni1EB3;
layers = (
{
layerId = "F5C437A1-5BE8-4656-AC88-288CA2D4AAEB";
name = "Light Italic";
paths = (
{
closed = 1;
nodes = (
"419 0 LINE SMOOTH",
"396 0 OFFCURVE",
"385 10 OFFCURVE",
"385 29 CURVE SMOOTH",
"385 36 OFFCURVE",
"386 41 OFFCURVE",
"387 48 CURVE",
"400 111 LINE",
"397 111 LINE",
"354 34 OFFCURVE",
"303 -12 OFFCURVE",
"220 -12 CURVE SMOOTH",
"168 -12 OFFCURVE",
"128 8 OFFCURVE",
"101 42 CURVE SMOOTH",
"73 76 OFFCURVE",
"58 122 OFFCURVE",
"58 178 CURVE SMOOTH",
"58 266 OFFCURVE",
"80 351 OFFCURVE",
"122 415 CURVE SMOOTH",
"164 479 OFFCURVE",
"227 520 OFFCURVE",
"308 520 CURVE SMOOTH",
"388 520 OFFCURVE",
"440 481 OFFCURVE",
"459 417 CURVE",
"462 417 LINE",
"480 508 LINE",
"514 508 LINE",
"419 31 LINE",
"501 31 LINE",
"495 0 LINE"
);
},
{
closed = 1;
nodes = (
"268 19 OFFCURVE",
"299 32 OFFCURVE",
"334 61 CURVE SMOOTH",
"373 94 OFFCURVE",
"407 144 OFFCURVE",
"420 211 CURVE SMOOTH",
"447 344 LINE SMOOTH",
"454 377 OFFCURVE",
"448 413 OFFCURVE",
"426 441 CURVE SMOOTH",
"404 469 OFFCURVE",
"365 489 OFFCURVE",
"309 489 CURVE SMOOTH",
"201 489 OFFCURVE",
"132 411 OFFCURVE",
"107 286 CURVE SMOOTH",
"99 242 LINE SMOOTH",
"95 221 OFFCURVE",
"93 202 OFFCURVE",
"93 175 CURVE SMOOTH",
"93 132 OFFCURVE",
"103 93 OFFCURVE",
"125 65 CURVE SMOOTH",
"147 37 OFFCURVE",
"178 19 OFFCURVE",
"225 19 CURVE SMOOTH"
);
},
{
closed = 1;
nodes = (
"306 592 OFFCURVE",
"281 604 OFFCURVE",
"263 625 CURVE SMOOTH",
"245 645 OFFCURVE",
"233 673 OFFCURVE",
"224 705 CURVE",
"247 715 LINE",
"261 683 LINE SMOOTH",
"280 639 OFFCURVE",
"303 620 OFFCURVE",
"343 620 CURVE SMOOTH",
"387 620 OFFCURVE",
"414 634 OFFCURVE",
"449 682 CURVE SMOOTH",
"472 715 LINE",
"496 705 LINE",
"476 673 OFFCURVE",
"457 644 OFFCURVE",
"433 624 CURVE SMOOTH",
"409 604 OFFCURVE",
"380 592 OFFCURVE",
"343 592 CURVE SMOOTH"
);
},
{
closed = 1;
nodes = (
"293 855 LINE",
"419 855 LINE SMOOTH",
"446 855 OFFCURVE",
"452 844 OFFCURVE",
"452 832 CURVE SMOOTH",
"452 825 OFFCURVE",
"449 817 OFFCURVE",
"444 808 CURVE",
"438 799 OFFCURVE",
"426 784 OFFCURVE",
"409 764 CURVE SMOOTH",
"350 694 LINE",
"329 707 LINE",
"423 828 LINE",
"288 828 LINE"
);
}
);
width = 571;
}
);
leftKerningGroup = a;
rightKerningGroup = a;
unicode = 1EB3;
},
{
glyphname = uni1EB5;
layers = (
{
layerId = "F5C437A1-5BE8-4656-AC88-288CA2D4AAEB";
name = "Light Italic";
paths = (
{
closed = 1;
nodes = (
"419 0 LINE SMOOTH",
"396 0 OFFCURVE",
"385 10 OFFCURVE",
"385 29 CURVE SMOOTH",
"385 36 OFFCURVE",
"386 41 OFFCURVE",
"387 48 CURVE",
"400 111 LINE",
"397 111 LINE",
"354 34 OFFCURVE",
"303 -12 OFFCURVE",
"220 -12 CURVE SMOOTH",
"168 -12 OFFCURVE",
"128 8 OFFCURVE",
"101 42 CURVE SMOOTH",
"73 76 OFFCURVE",
"58 122 OFFCURVE",
"58 178 CURVE SMOOTH",
"58 266 OFFCURVE",
"80 351 OFFCURVE",
"122 415 CURVE SMOOTH",
"164 479 OFFCURVE",
"227 520 OFFCURVE",
"308 520 CURVE SMOOTH",
"388 520 OFFCURVE",
"440 481 OFFCURVE",
"459 417 CURVE",
"462 417 LINE",
"480 508 LINE",
"514 508 LINE",
"419 31 LINE",
"501 31 LINE",
"495 0 LINE"
);
},
{
closed = 1;
nodes = (
"268 19 OFFCURVE",
"299 32 OFFCURVE",
"334 61 CURVE SMOOTH",
"373 94 OFFCURVE",
"407 144 OFFCURVE",
"420 211 CURVE SMOOTH",
"447 344 LINE SMOOTH",
"454 377 OFFCURVE",
"448 413 OFFCURVE",
"426 441 CURVE SMOOTH",
"404 469 OFFCURVE",
"365 489 OFFCURVE",
"309 489 CURVE SMOOTH",
"201 489 OFFCURVE",
"132 411 OFFCURVE",
"107 286 CURVE SMOOTH",
"99 242 LINE SMOOTH",
"95 221 OFFCURVE",
"93 202 OFFCURVE",
"93 175 CURVE SMOOTH",
"93 132 OFFCURVE",
"103 93 OFFCURVE",
"125 65 CURVE SMOOTH",
"147 37 OFFCURVE",
"178 19 OFFCURVE",
"225 19 CURVE SMOOTH"
);
},
{
closed = 1;
nodes = (
"306 592 OFFCURVE",
"281 604 OFFCURVE",
"263 625 CURVE SMOOTH",
"245 645 OFFCURVE",
"233 673 OFFCURVE",
"224 705 CURVE",
"247 715 LINE",
"261 683 LINE SMOOTH",
"280 639 OFFCURVE",
"303 620 OFFCURVE",
"343 620 CURVE SMOOTH",
"387 620 OFFCURVE",
"414 634 OFFCURVE",
"449 682 CURVE SMOOTH",
"472 715 LINE",
"496 705 LINE",
"476 673 OFFCURVE",
"457 644 OFFCURVE",
"433 624 CURVE SMOOTH",
"409 604 OFFCURVE",
"380 592 OFFCURVE",
"343 592 CURVE SMOOTH"
);
},
{
closed = 1;
nodes = (
"413 764 OFFCURVE",
"396 775 OFFCURVE",
"369 794 CURVE SMOOTH",
"342 813 OFFCURVE",
"327 819 OFFCURVE",
"304 819 CURVE SMOOTH",
"281 819 OFFCURVE",
"262 808 OFFCURVE",
"237 788 CURVE",
"223 806 LINE",
"250 833 OFFCURVE",
"279 847 OFFCURVE",
"311 847 CURVE SMOOTH",
"339 847 OFFCURVE",
"356 837 OFFCURVE",
"383 818 CURVE",
"410 801 OFFCURVE",
"425 793 OFFCURVE",
"448 793 CURVE SMOOTH",
"471 793 OFFCURVE",
"491 804 OFFCURVE",
"515 824 CURVE",
"529 807 LINE",
"502 778 OFFCURVE",
"473 764 OFFCURVE",
"441 764 CURVE SMOOTH"
);
}
);
width = 571;
}
);
leftKerningGroup = a;
rightKerningGroup = a;
unicode = 1EB5;
},
{
glyphname = uni1EA5;
layers = (
{
layerId = "F5C437A1-5BE8-4656-AC88-288CA2D4AAEB";
name = "Light Italic";
paths = (
{
closed = 1;
nodes = (
"419 0 LINE SMOOTH",
"396 0 OFFCURVE",
"385 10 OFFCURVE",
"385 29 CURVE SMOOTH",
"385 36 OFFCURVE",
"386 41 OFFCURVE",
"387 48 CURVE",
"400 111 LINE",
"397 111 LINE",
"354 34 OFFCURVE",
"303 -12 OFFCURVE",
"220 -12 CURVE SMOOTH",
"168 -12 OFFCURVE",
"128 8 OFFCURVE",
"101 42 CURVE SMOOTH",
"73 76 OFFCURVE",
"58 122 OFFCURVE",
"58 178 CURVE SMOOTH",
"58 266 OFFCURVE",
"80 351 OFFCURVE",
"122 415 CURVE SMOOTH",
"164 479 OFFCURVE",
"227 520 OFFCURVE",
"308 520 CURVE SMOOTH",
"388 520 OFFCURVE",
"440 481 OFFCURVE",
"459 417 CURVE",
"462 417 LINE",
"480 508 LINE",
"514 508 LINE",
"419 31 LINE",
"501 31 LINE",
"495 0 LINE"
);
},
{
closed = 1;
nodes = (
"268 19 OFFCURVE",
"299 32 OFFCURVE",
"334 61 CURVE SMOOTH",
"373 94 OFFCURVE",
"407 144 OFFCURVE",
"420 211 CURVE SMOOTH",
"447 344 LINE SMOOTH",
"454 377 OFFCURVE",
"448 413 OFFCURVE",
"426 441 CURVE SMOOTH",
"404 469 OFFCURVE",
"365 489 OFFCURVE",
"309 489 CURVE SMOOTH",
"201 489 OFFCURVE",
"132 411 OFFCURVE",
"107 286 CURVE SMOOTH",
"99 242 LINE SMOOTH",
"95 221 OFFCURVE",
"93 202 OFFCURVE",
"93 175 CURVE SMOOTH",
"93 132 OFFCURVE",
"103 93 OFFCURVE",
"125 65 CURVE SMOOTH",
"147 37 OFFCURVE",
"178 19 OFFCURVE",
"225 19 CURVE SMOOTH"
);
},
{
closed = 1;
nodes = (
"481 699 LINE",
"460 713 LINE",
"593 870 LINE",
"622 852 LINE"
);
},
{
closed = 1;
nodes = (
"388 737 LINE",
"489 604 LINE",
"467 589 LINE",
"366 712 LINE",
"222 589 LINE",
"202 605 LINE",
"347 737 LINE"
);
}
);
width = 571;
}
);
leftKerningGroup = a;
rightKerningGroup = a;
unicode = 1EA5;
},
{
glyphname = uni1EAD;
layers = (
{
layerId = "F5C437A1-5BE8-4656-AC88-288CA2D4AAEB";
name = "Light Italic";
paths = (
{
closed = 1;
nodes = (
"419 0 LINE SMOOTH",
"396 0 OFFCURVE",
"385 10 OFFCURVE",
"385 29 CURVE SMOOTH",
"385 36 OFFCURVE",
"386 41 OFFCURVE",
"387 48 CURVE",
"400 111 LINE",
"397 111 LINE",
"354 34 OFFCURVE",
"303 -12 OFFCURVE",
"220 -12 CURVE SMOOTH",
"168 -12 OFFCURVE",
"128 8 OFFCURVE",
"101 42 CURVE SMOOTH",
"73 76 OFFCURVE",
"58 122 OFFCURVE",
"58 178 CURVE SMOOTH",
"58 266 OFFCURVE",
"80 351 OFFCURVE",
"122 415 CURVE SMOOTH",
"164 479 OFFCURVE",
"227 520 OFFCURVE",
"308 520 CURVE SMOOTH",
"388 520 OFFCURVE",
"440 481 OFFCURVE",
"459 417 CURVE",
"462 417 LINE",
"480 508 LINE",
"514 508 LINE",
"419 31 LINE",
"501 31 LINE",
"495 0 LINE"
);
},
{
closed = 1;
nodes = (
"268 19 OFFCURVE",
"299 32 OFFCURVE",
"334 61 CURVE SMOOTH",
"373 94 OFFCURVE",
"407 144 OFFCURVE",
"420 211 CURVE SMOOTH",
"447 344 LINE SMOOTH",
"454 377 OFFCURVE",
"448 413 OFFCURVE",
"426 441 CURVE SMOOTH",
"404 469 OFFCURVE",
"365 489 OFFCURVE",
"309 489 CURVE SMOOTH",
"201 489 OFFCURVE",
"132 411 OFFCURVE",
"107 286 CURVE SMOOTH",
"99 242 LINE SMOOTH",
"95 221 OFFCURVE",
"93 202 OFFCURVE",
"93 175 CURVE SMOOTH",
"93 132 OFFCURVE",
"103 93 OFFCURVE",
"125 65 CURVE SMOOTH",
"147 37 OFFCURVE",
"178 19 OFFCURVE",
"225 19 CURVE SMOOTH"
);
},
{
closed = 1;
nodes = (
"390 748 LINE",
"491 612 LINE",
"469 597 LINE",
"367 721 LINE",
"222 597 LINE",
"202 614 LINE",
"350 748 LINE"
);
},
{
closed = 1;
nodes = (
"187 -142 OFFCURVE",
"180 -133 OFFCURVE",
"180 -121 CURVE SMOOTH",
"180 -114 OFFCURVE",
"184 -96 OFFCURVE",
"193 -87 CURVE",
"197 -82 OFFCURVE",
"204 -80 OFFCURVE",
"214 -80 CURVE SMOOTH",
"233 -80 OFFCURVE",
"239 -90 OFFCURVE",
"239 -102 CURVE SMOOTH",
"239 -110 OFFCURVE",
"236 -127 OFFCURVE",
"228 -135 CURVE SMOOTH",
"223 -140 OFFCURVE",
"216 -142 OFFCURVE",
"206 -142 CURVE SMOOTH"
);
}
);
width = 571;
}
);
leftKerningGroup = a;
rightKerningGroup = a;
unicode = 1EAD;
},
{
glyphname = uni1EA7;
layers = (
{
layerId = "F5C437A1-5BE8-4656-AC88-288CA2D4AAEB";
name = "Light Italic";
paths = (
{
closed = 1;
nodes = (
"419 0 LINE SMOOTH",
"396 0 OFFCURVE",
"385 10 OFFCURVE",
"385 29 CURVE SMOOTH",
"385 36 OFFCURVE",
"386 41 OFFCURVE",
"387 48 CURVE",
"400 111 LINE",
"397 111 LINE",
"354 34 OFFCURVE",
"303 -12 OFFCURVE",
"220 -12 CURVE SMOOTH",
"168 -12 OFFCURVE",
"128 8 OFFCURVE",
"101 42 CURVE SMOOTH",
"73 76 OFFCURVE",
"58 122 OFFCURVE",
"58 178 CURVE SMOOTH",
"58 266 OFFCURVE",
"80 351 OFFCURVE",
"122 415 CURVE SMOOTH",
"164 479 OFFCURVE",
"227 520 OFFCURVE",
"308 520 CURVE SMOOTH",
"388 520 OFFCURVE",
"440 481 OFFCURVE",
"459 417 CURVE",
"462 417 LINE",
"480 508 LINE",
"514 508 LINE",
"419 31 LINE",
"501 31 LINE",
"495 0 LINE"
);
},
{
closed = 1;
nodes = (
"268 19 OFFCURVE",
"299 32 OFFCURVE",
"334 61 CURVE SMOOTH",
"373 94 OFFCURVE",
"407 144 OFFCURVE",
"420 211 CURVE SMOOTH",
"447 344 LINE SMOOTH",
"454 377 OFFCURVE",
"448 413 OFFCURVE",
"426 441 CURVE SMOOTH",
"404 469 OFFCURVE",
"365 489 OFFCURVE",
"309 489 CURVE SMOOTH",
"201 489 OFFCURVE",
"132 411 OFFCURVE",
"107 286 CURVE SMOOTH",
"99 242 LINE SMOOTH",
"95 221 OFFCURVE",
"93 202 OFFCURVE",
"93 175 CURVE SMOOTH",
"93 132 OFFCURVE",
"103 93 OFFCURVE",
"125 65 CURVE SMOOTH",
"147 37 OFFCURVE",
"178 19 OFFCURVE",
"225 19 CURVE SMOOTH"
);
},
{
closed = 1;
nodes = (
"137 852 LINE",
"167 868 LINE",
"244 710 LINE",
"221 698 LINE"
);
},
{
closed = 1;
nodes = (
"388 737 LINE",
"488 604 LINE",
"467 589 LINE",
"365 712 LINE",
"222 589 LINE",
"202 605 LINE",
"347 737 LINE"
);
}
);
width = 571;
}
);
leftKerningGroup = a;
rightKerningGroup = a;
unicode = 1EA7;
},
{
glyphname = uni1EA9;
layers = (
{
layerId = "F5C437A1-5BE8-4656-AC88-288CA2D4AAEB";
name = "Light Italic";
paths = (
{
closed = 1;
nodes = (
"419 0 LINE SMOOTH",
"396 0 OFFCURVE",
"385 10 OFFCURVE",
"385 29 CURVE SMOOTH",
"385 36 OFFCURVE",
"386 41 OFFCURVE",
"387 48 CURVE",
"400 111 LINE",
"397 111 LINE",
"354 34 OFFCURVE",
"303 -12 OFFCURVE",
"220 -12 CURVE SMOOTH",
"168 -12 OFFCURVE",
"128 8 OFFCURVE",
"101 42 CURVE SMOOTH",
"73 76 OFFCURVE",
"58 122 OFFCURVE",
"58 178 CURVE SMOOTH",
"58 266 OFFCURVE",
"80 351 OFFCURVE",
"122 415 CURVE SMOOTH",
"164 479 OFFCURVE",
"227 520 OFFCURVE",
"308 520 CURVE SMOOTH",
"388 520 OFFCURVE",
"440 481 OFFCURVE",
"459 417 CURVE",
"462 417 LINE",
"480 508 LINE",
"514 508 LINE",
"419 31 LINE",
"501 31 LINE",
"495 0 LINE"
);
},
{
closed = 1;
nodes = (
"268 19 OFFCURVE",
"299 32 OFFCURVE",
"334 61 CURVE SMOOTH",
"373 94 OFFCURVE",
"407 144 OFFCURVE",
"420 211 CURVE SMOOTH",
"447 344 LINE SMOOTH",
"454 377 OFFCURVE",
"448 413 OFFCURVE",
"426 441 CURVE SMOOTH",
"404 469 OFFCURVE",
"365 489 OFFCURVE",
"309 489 CURVE SMOOTH",
"201 489 OFFCURVE",
"132 411 OFFCURVE",
"107 286 CURVE SMOOTH",
"99 242 LINE SMOOTH",
"95 221 OFFCURVE",
"93 202 OFFCURVE",
"93 175 CURVE SMOOTH",
"93 132 OFFCURVE",
"103 93 OFFCURVE",
"125 65 CURVE SMOOTH",
"147 37 OFFCURVE",
"178 19 OFFCURVE",
"225 19 CURVE SMOOTH"
);
},
{
closed = 1;
nodes = (
"421 855 LINE",
"548 855 LINE SMOOTH",
"573 855 OFFCURVE",
"581 844 OFFCURVE",
"581 832 CURVE SMOOTH",
"581 825 OFFCURVE",
"578 817 OFFCURVE",
"572 808 CURVE SMOOTH",
"566 799 OFFCURVE",
"554 784 OFFCURVE",
"537 764 CURVE SMOOTH",
"479 694 LINE",
"458 707 LINE",
"552 828 LINE",
"417 828 LINE"
);
},
{
closed = 1;
nodes = (
"388 737 LINE",
"488 604 LINE",
"467 589 LINE",
"365 712 LINE",
"222 589 LINE",
"202 605 LINE",
"347 737 LINE"
);
}
);
width = 571;
}
);
leftKerningGroup = a;
rightKerningGroup = a;
unicode = 1EA9;
},
{
glyphname = uni1EAB;
layers = (
{
layerId = "F5C437A1-5BE8-4656-AC88-288CA2D4AAEB";
name = "Light Italic";
paths = (
{
closed = 1;
nodes = (
"419 0 LINE SMOOTH",
"396 0 OFFCURVE",
"385 10 OFFCURVE",
"385 29 CURVE SMOOTH",
"385 36 OFFCURVE",
"386 41 OFFCURVE",
"387 48 CURVE",
"400 111 LINE",
"397 111 LINE",
"354 34 OFFCURVE",
"303 -12 OFFCURVE",
"220 -12 CURVE SMOOTH",
"168 -12 OFFCURVE",
"128 8 OFFCURVE",
"101 42 CURVE SMOOTH",
"73 76 OFFCURVE",
"58 122 OFFCURVE",
"58 178 CURVE SMOOTH",
"58 266 OFFCURVE",
"80 351 OFFCURVE",
"122 415 CURVE SMOOTH",
"164 479 OFFCURVE",
"227 520 OFFCURVE",
"308 520 CURVE SMOOTH",
"388 520 OFFCURVE",
"440 481 OFFCURVE",
"459 417 CURVE",
"462 417 LINE",
"480 508 LINE",
"514 508 LINE",
"419 31 LINE",
"501 31 LINE",
"495 0 LINE"
);
},
{
closed = 1;
nodes = (
"268 19 OFFCURVE",
"299 32 OFFCURVE",
"334 61 CURVE SMOOTH",
"373 94 OFFCURVE",
"407 144 OFFCURVE",
"420 211 CURVE SMOOTH",
"447 344 LINE SMOOTH",
"454 377 OFFCURVE",
"448 413 OFFCURVE",
"426 441 CURVE SMOOTH",
"404 469 OFFCURVE",
"365 489 OFFCURVE",
"309 489 CURVE SMOOTH",
"201 489 OFFCURVE",
"132 411 OFFCURVE",
"107 286 CURVE SMOOTH",
"99 242 LINE SMOOTH",
"95 221 OFFCURVE",
"93 202 OFFCURVE",
"93 175 CURVE SMOOTH",
"93 132 OFFCURVE",
"103 93 OFFCURVE",
"125 65 CURVE SMOOTH",
"147 37 OFFCURVE",
"178 19 OFFCURVE",
"225 19 CURVE SMOOTH"
);
},
{
closed = 1;
nodes = (
"339 857 OFFCURVE",
"356 847 OFFCURVE",
"383 828 CURVE SMOOTH",
"410 809 OFFCURVE",
"425 802 OFFCURVE",
"448 802 CURVE SMOOTH",
"471 802 OFFCURVE",
"490 813 OFFCURVE",
"514 834 CURVE",
"529 816 LINE",
"501 787 OFFCURVE",
"472 773 OFFCURVE",
"441 773 CURVE SMOOTH",
"413 773 OFFCURVE",
"396 783 OFFCURVE",
"369 802 CURVE SMOOTH",
"342 821 OFFCURVE",
"327 828 OFFCURVE",
"304 828 CURVE SMOOTH",
"281 828 OFFCURVE",
"262 817 OFFCURVE",
"238 796 CURVE",
"223 814 LINE",
"251 843 OFFCURVE",
"280 857 OFFCURVE",
"311 857 CURVE SMOOTH"
);
},
{
closed = 1;
nodes = (
"388 737 LINE",
"488 604 LINE",
"467 589 LINE",
"365 712 LINE",
"222 589 LINE",
"202 605 LINE",
"347 737 LINE"
);
}
);
width = 571;
}
);
leftKerningGroup = a;
rightKerningGroup = a;
unicode = 1EAB;
},
{
glyphname = ae;
layers = (
{
layerId = "F5C437A1-5BE8-4656-AC88-288CA2D4AAEB";
name = "Light Italic";
paths = (
{
closed = 1;
nodes = (
"242 19 OFFCURVE",
"285 31 OFFCURVE",
"320 55 CURVE SMOOTH",
"355 78 OFFCURVE",
"381 112 OFFCURVE",
"389 159 CURVE SMOOTH",
"403 240 LINE",
"242 232 LINE SMOOTH",
"138 227 OFFCURVE",
"92 199 OFFCURVE",
"81 147 CURVE SMOOTH",
"78 134 OFFCURVE",
"77 126 OFFCURVE",
"77 121 CURVE",
"76 116 OFFCURVE",
"76 111 OFFCURVE",
"76 106 CURVE SMOOTH",
"76 50 OFFCURVE",
"119 19 OFFCURVE",
"199 19 CURVE SMOOTH"
);
},
{
closed = 1;
nodes = (
"596 490 OFFCURVE",
"551 468 OFFCURVE",
"516 431 CURVE SMOOTH",
"480 394 OFFCURVE",
"456 342 OFFCURVE",
"445 282 CURVE SMOOTH",
"442 268 LINE",
"582 271 OFFCURVE",
"666 286 OFFCURVE",
"715 310 CURVE SMOOTH",
"763 333 OFFCURVE",
"776 363 OFFCURVE",
"776 395 CURVE SMOOTH",
"776 456 OFFCURVE",
"734 490 OFFCURVE",
"649 490 CURVE SMOOTH"
);
},
{
closed = 1;
nodes = (
"97 -12 OFFCURVE",
"41 31 OFFCURVE",
"41 108 CURVE SMOOTH",
"41 208 OFFCURVE",
"104 252 OFFCURVE",
"244 259 CURVE SMOOTH",
"409 267 LINE",
"422 333 LINE SMOOTH",
"425 348 OFFCURVE",
"426 364 OFFCURVE",
"426 379 CURVE SMOOTH",
"426 410 OFFCURVE",
"418 437 OFFCURVE",
"398 457 CURVE SMOOTH",
"378 477 OFFCURVE",
"346 489 OFFCURVE",
"298 489 CURVE SMOOTH",
"214 489 OFFCURVE",
"173 461 OFFCURVE",
"133 398 CURVE",
"108 416 LINE",
"147 480 OFFCURVE",
"201 520 OFFCURVE",
"302 520 CURVE SMOOTH",
"353 520 OFFCURVE",
"390 507 OFFCURVE",
"414 485 CURVE SMOOTH",
"438 463 OFFCURVE",
"451 431 OFFCURVE",
"454 398 CURVE",
"458 398 LINE",
"499 473 OFFCURVE",
"564 520 OFFCURVE",
"652 520 CURVE SMOOTH",
"744 520 OFFCURVE",
"811 477 OFFCURVE",
"811 397 CURVE SMOOTH",
"811 357 OFFCURVE",
"794 318 OFFCURVE",
"739 290 CURVE SMOOTH",
"684 261 OFFCURVE",
"591 242 OFFCURVE",
"438 239 CURVE",
"435 222 OFFCURVE",
"432 203 OFFCURVE",
"432 186 CURVE SMOOTH",
"432 86 OFFCURVE",
"482 19 OFFCURVE",
"581 19 CURVE SMOOTH",
"660 19 OFFCURVE",
"722 62 OFFCURVE",
"762 134 CURVE",
"789 118 LINE",
"733 26 OFFCURVE",
"662 -12 OFFCURVE",
"579 -12 CURVE SMOOTH",
"487 -12 OFFCURVE",
"424 37 OFFCURVE",
"407 128 CURVE",
"403 128 LINE",
"391 85 OFFCURVE",
"363 50 OFFCURVE",
"327 26 CURVE SMOOTH",
"290 2 OFFCURVE",
"243 -12 OFFCURVE",
"194 -12 CURVE SMOOTH"
);
}
);
width = 847;
}
);
leftKerningGroup = ae;
rightKerningGroup = e;
unicode = 00E6;
},
{
glyphname = aeacute;
layers = (
{
layerId = "F5C437A1-5BE8-4656-AC88-288CA2D4AAEB";
name = "Light Italic";
paths = (
{
closed = 1;
nodes = (
"242 19 OFFCURVE",
"285 31 OFFCURVE",
"320 55 CURVE SMOOTH",
"355 78 OFFCURVE",
"381 112 OFFCURVE",
"389 159 CURVE SMOOTH",
"403 240 LINE",
"242 232 LINE SMOOTH",
"138 227 OFFCURVE",
"92 199 OFFCURVE",
"81 147 CURVE SMOOTH",
"78 134 OFFCURVE",
"77 126 OFFCURVE",
"77 121 CURVE",
"76 116 OFFCURVE",
"76 111 OFFCURVE",
"76 106 CURVE SMOOTH",
"76 50 OFFCURVE",
"119 19 OFFCURVE",
"199 19 CURVE SMOOTH"
);
},
{
closed = 1;
nodes = (
"596 490 OFFCURVE",
"551 468 OFFCURVE",
"516 431 CURVE SMOOTH",
"480 394 OFFCURVE",
"456 342 OFFCURVE",
"445 282 CURVE SMOOTH",
"442 268 LINE",
"582 271 OFFCURVE",
"666 286 OFFCURVE",
"715 310 CURVE SMOOTH",
"763 333 OFFCURVE",
"776 363 OFFCURVE",
"776 395 CURVE SMOOTH",
"776 456 OFFCURVE",
"734 490 OFFCURVE",
"649 490 CURVE SMOOTH"
);
},
{
closed = 1;
nodes = (
"97 -12 OFFCURVE",
"41 31 OFFCURVE",
"41 108 CURVE SMOOTH",
"41 208 OFFCURVE",
"104 252 OFFCURVE",
"244 259 CURVE SMOOTH",
"409 267 LINE",
"422 333 LINE SMOOTH",
"425 348 OFFCURVE",
"426 364 OFFCURVE",
"426 379 CURVE SMOOTH",
"426 410 OFFCURVE",
"418 437 OFFCURVE",
"398 457 CURVE SMOOTH",
"378 477 OFFCURVE",
"346 489 OFFCURVE",
"298 489 CURVE SMOOTH",
"214 489 OFFCURVE",
"173 461 OFFCURVE",
"133 398 CURVE",
"108 416 LINE",
"147 480 OFFCURVE",
"201 520 OFFCURVE",
"302 520 CURVE SMOOTH",
"353 520 OFFCURVE",
"390 507 OFFCURVE",
"414 485 CURVE SMOOTH",
"438 463 OFFCURVE",
"451 431 OFFCURVE",
"454 398 CURVE",
"458 398 LINE",
"499 473 OFFCURVE",
"564 520 OFFCURVE",
"652 520 CURVE SMOOTH",
"744 520 OFFCURVE",
"811 477 OFFCURVE",
"811 397 CURVE SMOOTH",
"811 357 OFFCURVE",
"794 318 OFFCURVE",
"739 290 CURVE SMOOTH",
"684 261 OFFCURVE",
"591 242 OFFCURVE",
"438 239 CURVE",
"435 222 OFFCURVE",
"432 203 OFFCURVE",
"432 186 CURVE SMOOTH",
"432 86 OFFCURVE",
"482 19 OFFCURVE",
"581 19 CURVE SMOOTH",
"660 19 OFFCURVE",
"722 62 OFFCURVE",
"762 134 CURVE",
"789 118 LINE",
"733 26 OFFCURVE",
"662 -12 OFFCURVE",
"579 -12 CURVE SMOOTH",
"487 -12 OFFCURVE",
"424 37 OFFCURVE",
"407 128 CURVE",
"403 128 LINE",
"391 85 OFFCURVE",
"363 50 OFFCURVE",
"327 26 CURVE SMOOTH",
"290 2 OFFCURVE",
"243 -12 OFFCURVE",
"194 -12 CURVE SMOOTH"
);
},
{
closed = 1;
nodes = (
"481 587 LINE",
"459 601 LINE",
"593 758 LINE",
"622 739 LINE"
);
}
);
width = 847;
}
);
leftKerningGroup = ae;
rightKerningGroup = e;
unicode = 01FD;
},
{
glyphname = cacute;
layers = (
{
layerId = "F5C437A1-5BE8-4656-AC88-288CA2D4AAEB";
name = "Light Italic";
paths = (
{
closed = 1;
nodes = (
"171 -12 OFFCURVE",
"129 8 OFFCURVE",
"101 44 CURVE SMOOTH",
"73 79 OFFCURVE",
"58 129 OFFCURVE",
"58 189 CURVE SMOOTH",
"58 281 OFFCURVE",
"80 364 OFFCURVE",
"121 424 CURVE SMOOTH",
"162 484 OFFCURVE",
"224 520 OFFCURVE",
"301 520 CURVE SMOOTH",
"384 520 OFFCURVE",
"441 472 OFFCURVE",
"456 404 CURVE",
"427 393 LINE",
"411 457 OFFCURVE",
"364 490 OFFCURVE",
"299 490 CURVE SMOOTH",
"202 490 OFFCURVE",
"131 418 OFFCURVE",
"108 301 CURVE SMOOTH",
"97 243 LINE SMOOTH",
"93 220 OFFCURVE",
"92 209 OFFCURVE",
"92 186 CURVE SMOOTH",
"92 139 OFFCURVE",
"102 98 OFFCURVE",
"125 68 CURVE SMOOTH",
"148 38 OFFCURVE",
"181 19 OFFCURVE",
"228 19 CURVE SMOOTH",
"300 19 OFFCURVE",
"353 59 OFFCURVE",
"398 131 CURVE",
"426 117 LINE",
"378 37 OFFCURVE",
"314 -12 OFFCURVE",
"226 -12 CURVE SMOOTH"
);
},
{
closed = 1;
nodes = (
"303 587 LINE",
"281 601 LINE",
"415 758 LINE",
"444 739 LINE"
);
}
);
width = 481;
}
);
leftKerningGroup = c;
rightKerningGroup = c;
unicode = 0107;
},
{
glyphname = ccaron;
layers = (
{
layerId = "F5C437A1-5BE8-4656-AC88-288CA2D4AAEB";
name = "Light Italic";
paths = (
{
closed = 1;
nodes = (
"171 -12 OFFCURVE",
"129 8 OFFCURVE",
"101 44 CURVE SMOOTH",
"73 79 OFFCURVE",
"58 129 OFFCURVE",
"58 189 CURVE SMOOTH",
"58 281 OFFCURVE",
"80 364 OFFCURVE",
"121 424 CURVE SMOOTH",
"162 484 OFFCURVE",
"224 520 OFFCURVE",
"301 520 CURVE SMOOTH",
"384 520 OFFCURVE",
"441 472 OFFCURVE",
"456 404 CURVE",
"427 393 LINE",
"411 457 OFFCURVE",
"364 490 OFFCURVE",
"299 490 CURVE SMOOTH",
"202 490 OFFCURVE",
"131 418 OFFCURVE",
"108 301 CURVE SMOOTH",
"97 243 LINE SMOOTH",
"93 220 OFFCURVE",
"92 209 OFFCURVE",
"92 186 CURVE SMOOTH",
"92 139 OFFCURVE",
"102 98 OFFCURVE",
"125 68 CURVE SMOOTH",
"148 38 OFFCURVE",
"181 19 OFFCURVE",
"228 19 CURVE SMOOTH",
"300 19 OFFCURVE",
"353 59 OFFCURVE",
"398 131 CURVE",
"426 117 LINE",
"378 37 OFFCURVE",
"314 -12 OFFCURVE",
"226 -12 CURVE SMOOTH"
);
},
{
closed = 1;
nodes = (
"299 602 LINE",
"198 738 LINE",
"220 753 LINE",
"322 629 LINE",
"467 753 LINE",
"487 736 LINE",
"339 602 LINE"
);
}
);
width = 481;
}
);
leftKerningGroup = c;
rightKerningGroup = c;
unicode = 010D;
},
{
glyphname = ccedilla;
layers = (
{
layerId = "F5C437A1-5BE8-4656-AC88-288CA2D4AAEB";
name = "Light Italic";
paths = (
{
closed = 1;
nodes = (
"384 520 OFFCURVE",
"441 472 OFFCURVE",
"456 404 CURVE",
"427 393 LINE",
"411 457 OFFCURVE",
"364 490 OFFCURVE",
"299 490 CURVE SMOOTH",
"202 490 OFFCURVE",
"131 418 OFFCURVE",
"108 301 CURVE SMOOTH",
"97 243 LINE SMOOTH",
"93 220 OFFCURVE",
"92 208 OFFCURVE",
"92 185 CURVE SMOOTH",
"92 138 OFFCURVE",
"103 98 OFFCURVE",
"125 68 CURVE SMOOTH",
"147 38 OFFCURVE",
"180 19 OFFCURVE",
"228 19 CURVE SMOOTH",
"300 19 OFFCURVE",
"353 59 OFFCURVE",
"398 131 CURVE",
"426 117 LINE",
"379 41 OFFCURVE",
"321 -7 OFFCURVE",
"237 -12 CURVE",
"213 -70 LINE",
"215 -72 LINE",
"223 -71 OFFCURVE",
"235 -69 OFFCURVE",
"244 -69 CURVE SMOOTH",
"280 -69 OFFCURVE",
"302 -88 OFFCURVE",
"302 -123 CURVE SMOOTH",
"302 -168 OFFCURVE",
"264 -203 OFFCURVE",
"204 -203 CURVE SMOOTH",
"164 -203 OFFCURVE",
"135 -189 OFFCURVE",
"123 -170 CURVE",
"143 -150 LINE",
"156 -166 OFFCURVE",
"176 -177 OFFCURVE",
"204 -177 CURVE SMOOTH",
"244 -177 OFFCURVE",
"271 -155 OFFCURVE",
"271 -124 CURVE SMOOTH",
"271 -101 OFFCURVE",
"258 -87 OFFCURVE",
"218 -84 CURVE SMOOTH",
"183 -82 LINE",
"213 -12 LINE",
"162 -8 OFFCURVE",
"124 14 OFFCURVE",
"98 50 CURVE SMOOTH",
"72 85 OFFCURVE",
"58 133 OFFCURVE",
"58 189 CURVE SMOOTH",
"58 281 OFFCURVE",
"80 364 OFFCURVE",
"121 424 CURVE SMOOTH",
"162 484 OFFCURVE",
"224 520 OFFCURVE",
"301 520 CURVE SMOOTH"
);
}
);
width = 481;
}
);
leftKerningGroup = c;
rightKerningGroup = c;
unicode = 00E7;
},
{
glyphname = ccircumflex;
layers = (
{
layerId = "F5C437A1-5BE8-4656-AC88-288CA2D4AAEB";
name = "Light Italic";
paths = (
{
closed = 1;
nodes = (
"171 -12 OFFCURVE",
"129 8 OFFCURVE",
"101 44 CURVE SMOOTH",
"73 79 OFFCURVE",
"58 129 OFFCURVE",
"58 189 CURVE SMOOTH",
"58 281 OFFCURVE",
"80 364 OFFCURVE",
"121 424 CURVE SMOOTH",
"162 484 OFFCURVE",
"224 520 OFFCURVE",
"301 520 CURVE SMOOTH",
"384 520 OFFCURVE",
"441 472 OFFCURVE",
"456 404 CURVE",
"427 393 LINE",
"411 457 OFFCURVE",
"364 490 OFFCURVE",
"299 490 CURVE SMOOTH",
"202 490 OFFCURVE",
"131 418 OFFCURVE",
"108 301 CURVE SMOOTH",
"97 243 LINE SMOOTH",
"93 220 OFFCURVE",
"92 209 OFFCURVE",
"92 186 CURVE SMOOTH",
"92 139 OFFCURVE",
"102 98 OFFCURVE",
"125 68 CURVE SMOOTH",
"148 38 OFFCURVE",
"181 19 OFFCURVE",
"228 19 CURVE SMOOTH",
"300 19 OFFCURVE",
"353 59 OFFCURVE",
"398 131 CURVE",
"426 117 LINE",
"378 37 OFFCURVE",
"314 -12 OFFCURVE",
"226 -12 CURVE SMOOTH"
);
},
{
closed = 1;
nodes = (
"366 748 LINE",
"467 612 LINE",
"445 597 LINE",
"343 721 LINE",
"198 597 LINE",
"178 614 LINE",
"326 748 LINE"
);
}
);
width = 481;
}
);
leftKerningGroup = c;
rightKerningGroup = c;
unicode = 0109;
},
